<?xml version="1.0" standalone="no"?>
<!DOCTYPE svg PUBLIC "-//W3C//DTD SVG 1.1//EN" "http://www.w3.org/Graphics/SVG/1.1/DTD/svg11.dtd" >
<svg xmlns="http://www.w3.org/2000/svg" xmlns:xlink="http://www.w3.org/1999/xlink" version="1.1">
<metadata>
Created by FontForge 20161116 at Wed Jun 13 18:00:27 2007
 By Jimmy Wärting
Copyright 1987, 1991, 1994, 2001, 2002 Adobe Systems Incorporated. All rights reserved. Aachen is a trademark of Esselte Pendaflex Corporation in the U.S.A., of Letraset Canada Ltd. in Canada and of Esselte Letraset Ltd. elsewhere.
</metadata>
<defs>
<font id="AachenStd-Bold" horiz-adv-x="340" >
  <font-face 
    font-family="Aachen Std"
    font-weight="700"
    font-stretch="normal"
    units-per-em="1000"
    panose-1="2 4 9 6 3 7 6 5 2 4"
    ascent="857"
    descent="-143"
    x-height="630"
    cap-height="857"
    bbox="-142 -332 1542 1144"
    underline-thickness="50"
    underline-position="-100"
    stemh="141"
    stemv="236"
    unicode-range="U+0020-FB02"
  />
<missing-glyph horiz-adv-x="500" 
d="M0 0v700h500v-700h-500zM250 395l170 255h-340zM280 350l170 -255v510zM80 50h340l-170 255zM50 605v-510l170 255z" />
    <glyph glyph-name="f_i" unicode="fi" horiz-adv-x="715" 
d="M538 668c-62 0 -130 30 -130 101c0 68 70 96 128 96c59 0 127 -32 127 -100c0 -66 -67 -97 -125 -97zM322 141v-141h-298v141c30 20 29 46 29 79v266h-29v144h29c-7 201 65 247 200 244c40 0 83 -6 123 -17v-137c-78 -2 -90 -32 -87 -90h374v-406c0 -32 -3 -64 30 -83
v-141h-295v141c31 19 29 47 29 79v183c0 32 3 83 -52 83h-86v-262c0 -31 -3 -69 33 -83z" />
    <glyph glyph-name="f_l" unicode="fl" horiz-adv-x="715" 
d="M53 486h-29v144h29c-7 201 65 247 200 244c40 -1 83 -6 125 -17h285v-633c0 -31 -3 -66 29 -83v-141h-294v141c31 19 29 47 29 79v413c0 32 3 84 -49 86h-22c-45 -1 -67 -28 -67 -89h71v-144h-71v-262c0 -31 -3 -69 33 -83v-141h-298v141c30 20 29 46 29 79v266z" />
    <glyph glyph-name=".notdef" horiz-adv-x="500" 
d="M0 0v700h500v-700h-500zM250 395l170 255h-340zM280 350l170 -255v510zM80 50h340l-170 255zM50 605v-510l170 255z" />
    <glyph glyph-name="space" unicode=" " 
 />
    <glyph glyph-name="exclam" unicode="!" horiz-adv-x="440" 
d="M217 -17c-62 0 -115 49 -115 115s53 115 115 115c64 0 115 -49 115 -115s-51 -115 -115 -115zM276 263h-112l-78 442c-24 133 30 169 134 169s158 -36 134 -169z" />
    <glyph glyph-name="quotedbl" unicode="&#x22;" horiz-adv-x="333" 
d="M77 874c33 0 52 -18 52 -60c0 -28 -14 -150 -21 -221c-2 -22 -17 -35 -31 -35s-29 13 -31 35c-7 71 -21 193 -21 221c0 42 19 60 52 60zM256 874c33 0 52 -18 52 -60c0 -28 -14 -150 -21 -221c-2 -22 -17 -35 -31 -35s-29 13 -31 35c-7 71 -21 193 -21 221
c0 42 19 60 52 60z" />
    <glyph glyph-name="numbersign" unicode="#" horiz-adv-x="730" 
d="M238 0h-132l39 234h-109v139h131l24 117h-114v139h133l40 230h131l-39 -230h110l38 230h134l-39 -230h109v-139h-130l-24 -117h112v-139h-132l-41 -234h-130l39 234h-111zM298 373h111l22 117h-110z" />
    <glyph glyph-name="dollar" unicode="$" horiz-adv-x="660" 
d="M377 561v20c0 36 3 95 -50 100c-23 2 -48 -27 -49 -61c-2 -34 18 -74 88 -91c161 -40 276 -67 276 -263c0 -146 -66 -234 -215 -247v-88h-191v88c-76 10 -150 33 -208 80v221h245v-25c0 -41 -5 -112 57 -116c25 -2 50 33 51 72s-23 82 -95 96c-200 41 -269 105 -269 251
c0 147 70 227 219 244v74h191v-74c70 -16 134 -47 195 -85v-196h-245z" />
    <glyph glyph-name="percent" unicode="%" horiz-adv-x="920" 
d="M916 276v-141c0 -119 -57 -152 -168 -152s-168 33 -168 152v141c0 119 57 152 168 152s168 -33 168 -152zM731 277v-143c0 -18 -5 -45 17 -45s17 27 17 45v143c0 18 5 45 -17 45s-17 -27 -17 -45zM349 722v-141c0 -119 -57 -152 -168 -152s-168 33 -168 152v141
c0 119 57 152 168 152s168 -33 168 -152zM164 723v-143c0 -18 -5 -45 17 -45s17 27 17 45v143c0 18 5 45 -17 45s-17 -27 -17 -45zM700 857l-307 -857h-164l307 857h164z" />
    <glyph glyph-name="ampersand" unicode="&#x26;" horiz-adv-x="740" 
d="M409 185v179h-40c-47 0 -64 -18 -64 -90c0 -71 17 -89 64 -89h40zM409 527v44h255v-44h40v-163h-40v-364h-359c-64 0 -140 0 -195 38c-62 44 -78 127 -78 198c0 89 19 187 116 218c-80 25 -107 95 -107 174c0 188 141 246 305 246c110 0 220 -30 318 -88v-168h-255
c0 39 -11 71 -52 71c-42 0 -50 -42 -50 -79c0 -68 32 -83 102 -83z" />
    <glyph glyph-name="quoteright" unicode="&#x2019;" 
d="M141 544l-45 41c26 29 50 61 64 97c-54 2 -95 38 -95 94c0 58 45 98 102 98c66 0 108 -55 108 -118c0 -81 -73 -165 -134 -212z" />
    <glyph glyph-name="parenleft" unicode="(" horiz-adv-x="480" 
d="M364 -118l-106 -71c-141 153 -221 308 -221 519c0 214 83 372 225 527l102 -74c-78 -151 -117 -294 -117 -456c0 -164 37 -292 117 -445z" />
    <glyph glyph-name="parenright" unicode=")" horiz-adv-x="480" 
d="M71 786l106 71c141 -153 221 -308 221 -519c0 -214 -83 -372 -225 -527l-102 74c78 151 117 294 117 456c0 164 -37 292 -117 445z" />
    <glyph glyph-name="asterisk" unicode="*" horiz-adv-x="540" 
d="M327 857v-149l143 46l33 -102l-142 -46l88 -123l-88 -64l-89 123l-87 -123l-89 64l89 123l-142 46l33 102l143 -46v149h108z" />
    <glyph glyph-name="plus" unicode="+" horiz-adv-x="651" 
d="M596 286h-206v-256h-128v256h-208v125h208v243h128v-243h206v-125z" />
    <glyph glyph-name="comma" unicode="," 
d="M138 -153l-49 45c28 32 54 68 71 107c-61 3 -107 43 -107 106c0 64 51 108 114 108c72 0 120 -61 120 -130c0 -91 -80 -184 -149 -236z" />
    <glyph glyph-name="hyphen" unicode="-" 
d="M340 239h-340v202h340v-202z" />
    <glyph glyph-name="period" unicode="." 
d="M170 -17c-62 0 -115 49 -115 115s53 115 115 115c64 0 115 -49 115 -115s-51 -115 -115 -115z" />
    <glyph glyph-name="slash" unicode="/" horiz-adv-x="600" 
d="M531 857l-333 -1083h-198l333 1083h198z" />
    <glyph glyph-name="zero" unicode="0" horiz-adv-x="680" 
d="M659 589v-321c0 -222 -113 -285 -319 -285s-319 63 -319 285v321c0 222 113 285 319 285s319 -63 319 -285zM392 266v326c0 40 4 97 -53 97c-52 0 -51 -51 -51 -88v-335c0 -37 -4 -98 52 -98c57 0 52 59 52 98z" />
    <glyph glyph-name="one" unicode="1" horiz-adv-x="460" 
d="M360 857v-621c0 -32 -3 -64 29 -84v-152h-325v152c32 20 29 52 29 84v385c0 32 3 64 -29 84v152h296z" />
    <glyph glyph-name="two" unicode="2" horiz-adv-x="720" 
d="M412 269h251v-269h-629v200c0 68 3 125 52 178c43 47 110 79 167 108c149 75 159 88 159 136c0 34 -17 67 -57 67c-57 0 -52 -65 -52 -105v-33h-254v232c92 68 211 91 324 91c73 0 152 -11 213 -53c59 -41 93 -108 93 -191v-30c0 -146 -88 -208 -160 -243l-95 -47
c-144 -72 -131 -87 -131 -133h31c67 0 86 23 88 92z" />
    <glyph glyph-name="three" unicode="3" horiz-adv-x="680" 
d="M288 572h-256v209c90 67 210 93 321 93c157 0 307 -60 307 -241c0 -86 -30 -151 -112 -184c95 -34 119 -109 119 -203c0 -79 -18 -160 -88 -207c-66 -45 -162 -56 -240 -56c-109 0 -225 22 -311 92v238h260v-32c0 -35 -5 -113 48 -113c55 0 64 51 64 90
c0 79 -33 99 -110 99h-83v170h69c87 0 117 13 117 86c0 35 -12 76 -56 76c-48 0 -49 -58 -49 -107v-10z" />
    <glyph glyph-name="four" unicode="4" horiz-adv-x="700" 
d="M347 385v185l-119 -185h119zM614 385h53v-177h-53c-1 -25 9 -48 33 -58v-150h-346v150c32 8 44 26 46 58h-341v203l295 446h313v-472z" />
    <glyph glyph-name="five" unicode="5" horiz-adv-x="660" 
d="M628 624h-252c-3 20 -8 34 -18 43c-9 9 -23 13 -44 13h-36v-112c39 16 83 21 125 21c65 0 145 -16 189 -68c49 -57 54 -144 54 -216c0 -83 -1 -178 -62 -242c-60 -63 -156 -80 -240 -80c-122 0 -226 26 -325 99v242h259v-96c0 -4 -2 -59 46 -59c59 0 55 57 55 124
c0 57 4 124 -52 124c-48 0 -48 -37 -49 -37h-259v477h609v-233z" />
    <glyph glyph-name="six" unicode="6" horiz-adv-x="680" 
d="M289 300v-54c0 -38 4 -78 53 -78c44 0 50 44 50 78v54c0 38 -3 83 -53 83c-49 0 -50 -46 -50 -83zM92 804c106 93 385 101 554 -22v-191h-255v13c0 35 0 85 -49 85s-49 -38 -49 -85v-69c95 45 239 24 305 -37c53 -49 61 -127 61 -195c0 -42 -3 -127 -14 -166
c-20 -66 -79 -154 -292 -154c-302 0 -331 132 -331 310v296c0 79 5 160 70 215z" />
    <glyph glyph-name="seven" unicode="7" horiz-adv-x="660" 
d="M250 597v-88h-221v348h615v-154l-259 -703h-282l250 680c-83 0 -103 -16 -103 -83z" />
    <glyph glyph-name="eight" unicode="8" horiz-adv-x="720" 
d="M417 275c0 40 1 93 -55 93s-55 -53 -55 -93c0 -42 -2 -107 55 -107c60 0 55 65 55 107zM574 452c95 -31 124 -111 124 -202c0 -217 -142 -267 -334 -267c-257 0 -338 116 -338 264c0 92 38 172 126 205c-82 37 -109 97 -109 183c0 191 151 239 316 239
c256 0 322 -114 322 -232c0 -85 -23 -158 -107 -190zM417 605c0 42 -4 84 -55 84s-55 -42 -55 -84s4 -84 55 -84c52 0 55 46 55 84z" />
    <glyph glyph-name="nine" unicode="9" horiz-adv-x="680" 
d="M286 600v-50c0 -34 1 -89 53 -89c51 0 53 55 53 89v50c0 34 -2 89 -53 89c-52 0 -53 -55 -53 -89zM391 254v63c-105 -39 -221 -34 -300 30c-63 49 -68 108 -68 183v76c0 178 71 268 306 268c240 0 328 -73 328 -277v-327c0 -132 -24 -287 -327 -287
c-104 0 -213 23 -296 87v183h246c0 -12 3 -27 9 -53c3 -11 14 -32 46 -32c54 0 56 49 56 86z" />
    <glyph glyph-name="colon" unicode=":" 
d="M170 344c-62 0 -115 49 -115 115s53 115 115 115c64 0 115 -49 115 -115s-51 -115 -115 -115zM170 -17c-62 0 -115 49 -115 115s53 115 115 115c64 0 115 -49 115 -115s-51 -115 -115 -115z" />
    <glyph glyph-name="semicolon" unicode=";" 
d="M138 -153l-49 45c28 32 54 68 71 107c-61 3 -107 43 -107 106c0 64 51 108 114 108c72 0 120 -61 120 -130c0 -91 -80 -184 -149 -236zM170 344c-62 0 -115 49 -115 115s53 115 115 115c64 0 115 -49 115 -115s-51 -115 -115 -115z" />
    <glyph glyph-name="less" unicode="&#x3c;" horiz-adv-x="651" 
d="M596 8l-540 275v133l539 274v-140l-424 -199v-2l425 -200v-141z" />
    <glyph glyph-name="equal" unicode="=" horiz-adv-x="651" 
d="M596 423h-541v125h541v-125zM596 149h-541v126h541v-126z" />
    <glyph glyph-name="greater" unicode="&#x3e;" horiz-adv-x="651" 
d="M56 690l540 -275v-133l-539 -274v141l423 200v2l-424 199v140z" />
    <glyph glyph-name="question" unicode="?" horiz-adv-x="700" 
d="M412 263h-232v111c0 76 23 97 122 152c45 24 94 47 94 105c0 35 -19 59 -56 59c-53 0 -56 -56 -56 -96v-34h-242v219c95 64 191 92 306 92c158 0 313 -52 313 -238c0 -45 -12 -112 -37 -151c-29 -47 -78 -75 -125 -100c-56 -31 -93 -49 -87 -119zM311 -17
c-62 0 -115 49 -115 115s53 115 115 115c64 0 115 -49 115 -115s-51 -115 -115 -115z" />
    <glyph glyph-name="at" unicode="@" horiz-adv-x="1002" 
d="M679 -29l31 -92c-85 -42 -148 -53 -242 -53c-277 0 -421 206 -421 430c0 253 184 488 499 488c268 0 416 -183 416 -396c0 -185 -113 -296 -252 -296c-75 0 -117 46 -126 113h-4c-31 -58 -92 -113 -168 -113c-88 0 -150 74 -150 180c0 175 123 300 303 300
c62 0 137 -16 173 -39l-37 -211c-14 -85 -3 -116 36 -116c45 -1 110 41 110 185c0 162 -115 298 -318 298c-158 0 -362 -143 -362 -384c0 -212 143 -342 322 -342c64 0 132 15 190 48zM554 322l19 85c-8 4 -24 7 -36 7c-53 0 -102 -53 -102 -133c0 -38 12 -65 47 -65
c31 0 59 41 72 106z" />
    <glyph glyph-name="A" unicode="A" horiz-adv-x="720" 
d="M290 391h88l-44 254h-2zM304 152v-152h-295v152c29 20 32 64 40 97l113 608h380l125 -621c5 -27 15 -75 45 -84v-152h-337v152c21 8 31 24 31 47c0 9 -2 17 -4 25h-129c-2 -8 -4 -17 -4 -25c0 -24 12 -41 35 -47z" />
    <glyph glyph-name="B" unicode="B" horiz-adv-x="760" 
d="M437 0h-400v152c30 13 33 39 34 68v417c-1 29 -4 55 -34 68v152h388c67 0 142 1 200 -35c64 -39 85 -111 85 -182c0 -98 -39 -165 -135 -192v-2c110 -14 148 -102 148 -202c0 -70 -16 -148 -72 -193c-61 -50 -139 -51 -214 -51zM338 679v-154h18c59 0 89 13 89 77
c0 63 -33 77 -89 77h-18zM338 364v-186h23c65 0 88 26 88 94c0 66 -23 92 -88 92h-23z" />
    <glyph glyph-name="C" unicode="C" horiz-adv-x="700" 
d="M401 543v51c0 35 7 95 -49 95s-49 -60 -49 -95v-331c0 -35 -7 -95 49 -95s49 60 49 95v97h258v-286c-69 -57 -180 -88 -288 -91c-107 -3 -211 21 -264 71c-74 69 -71 159 -71 253v298c0 77 10 152 73 204c58 48 153 69 254 65c102 -4 210 -36 296 -93v-238h-258z" />
    <glyph glyph-name="D" unicode="D" horiz-adv-x="740" 
d="M38 857h370c73 0 157 -1 218 -48c70 -55 77 -133 77 -215v-321c0 -84 -4 -149 -69 -210c-61 -58 -137 -63 -218 -63h-378v152c30 13 33 39 34 68v417c-1 30 -3 55 -34 68v152zM339 670v-489h21c58 0 76 21 76 83v323c0 62 -18 83 -76 83h-21z" />
    <glyph glyph-name="E" unicode="E" horiz-adv-x="700" 
d="M433 310h246v-310h-642v152c32 20 29 52 29 84v385c0 32 3 64 -29 84v152h642v-290h-246v26c0 58 -8 82 -80 82h-16v-153h169v-167h-169v-173h16c80 0 79 30 80 100v28z" />
    <glyph glyph-name="F" unicode="F" horiz-adv-x="660" 
d="M660 562h-231c0 40 3 70 -8 89c-10 19 -32 28 -83 24v-163h170v-167h-170v-109c0 -32 -3 -64 29 -84v-152h-325v152c32 20 29 52 29 84v385c0 45 -3 72 -34 84v152h623v-295z" />
    <glyph glyph-name="G" unicode="G" horiz-adv-x="700" 
d="M665 775v-216h-257v19c0 38 8 111 -51 111c-50 0 -54 -47 -54 -84v-381c0 -9 4 -56 54 -56c59 0 51 73 51 112v38h-46v167h303v-409c-84 -76 -211 -93 -320 -93c-77 0 -165 6 -226 57c-79 67 -83 145 -83 239v326c0 76 9 150 71 202c62 53 147 67 226 67
c117 0 238 -27 332 -99z" />
    <glyph glyph-name="H" unicode="H" horiz-adv-x="780" 
d="M737 152v-152h-325v152c32 20 29 52 29 84v126h-102v-126c0 -32 -3 -64 29 -84v-152h-325v152c32 20 29 52 29 84v385c0 32 3 64 -29 84v152h325v-152c-32 -20 -29 -52 -29 -84v-92h102v92c0 32 3 64 -29 84v152h325v-152c-32 -20 -29 -52 -29 -84v-385
c0 -32 -3 -64 29 -84z" />
    <glyph glyph-name="I" unicode="I" horiz-adv-x="400" 
d="M67 236v385c0 32 3 64 -29 84v152h325v-152c-32 -20 -29 -52 -29 -84v-385c0 -32 -3 -64 29 -84v-152h-325v152c32 20 29 52 29 84z" />
    <glyph glyph-name="J" unicode="J" horiz-adv-x="420" 
d="M1 -4v161c99 1 99 50 99 110v354c0 32 3 64 -29 84v152h325v-152c-32 -20 -29 -52 -29 -84v-358c0 -72 4 -150 -48 -208c-55 -60 -128 -72 -204 -72c-38 0 -76 7 -114 13z" />
    <glyph glyph-name="K" unicode="K" horiz-adv-x="760" 
d="M679 654l-114 -184l126 -250c14 -28 23 -49 60 -68v-152h-306v102c0 67 -10 81 -39 140l-67 130h-2v-136c0 -32 -3 -64 29 -84v-152h-325v152c32 20 29 52 29 84v385c0 32 3 64 -29 84v152h325v-152c-32 -20 -29 -52 -29 -84v-110l63 99c44 72 45 78 45 112v135h290v-152
c-34 -15 -42 -28 -56 -51z" />
    <glyph glyph-name="L" unicode="L" horiz-adv-x="680" 
d="M648 0h-624v152c32 20 29 52 29 84v385c0 32 3 64 -29 84v152h325v-152c-32 -20 -29 -52 -29 -84v-439h26c68 0 67 41 67 95v139h235v-416z" />
    <glyph glyph-name="M" unicode="M" horiz-adv-x="940" 
d="M385 857l88 -351h2l90 351h328v-152c-32 -20 -29 -52 -29 -84v-385c0 -32 -3 -64 29 -84v-152h-313v152c32 20 29 52 29 84v230h-2l-116 -466h-84l-122 466h-2v-230c0 -32 -3 -64 29 -84v-152h-264v152c32 20 29 52 29 84v385c0 32 3 64 -29 84v152h337z" />
    <glyph glyph-name="N" unicode="N" horiz-adv-x="780" 
d="M337 857l149 -387h2v151c0 32 3 64 -29 84v152h274v-152c-32 -20 -29 -52 -29 -84v-621h-259l-159 385h-2v-149c0 -32 -3 -64 29 -84v-152h-266v152c32 20 29 52 29 84v385c0 32 3 64 -29 84v152h290z" />
    <glyph glyph-name="O" unicode="O" horiz-adv-x="720" 
d="M679 609v-361c0 -212 -130 -265 -319 -265s-319 53 -319 265v361c0 212 130 265 319 265s319 -53 319 -265zM308 623v-388c0 -6 -3 -67 52 -67s52 61 52 67v388c0 6 3 66 -52 66s-52 -60 -52 -66z" />
    <glyph glyph-name="P" unicode="P" horiz-adv-x="720" 
d="M70 236v385c0 32 3 64 -29 84v152h349c73 0 171 1 231 -45c98 -75 84 -212 84 -234v-68c0 -163 -54 -264 -273 -264h-95c0 -42 -3 -74 29 -94v-152h-325v152c32 20 29 52 29 84zM337 678v-251h25c79 0 76 45 76 125c0 81 3 126 -76 126h-25z" />
    <glyph glyph-name="Q" unicode="Q" horiz-adv-x="700" 
d="M298 623v-388c0 -6 -3 -67 52 -67s52 61 52 67v388c0 6 3 66 -52 66s-52 -60 -52 -66zM620 74l59 -46l-93 -154c-70 29 -138 65 -198 111l-38 -2c-189 0 -319 53 -319 265v361c0 212 130 265 319 265s319 -53 319 -265v-361c0 -71 -10 -123 -49 -174z" />
    <glyph glyph-name="R" unicode="R" horiz-adv-x="760" 
d="M332 334v-98c0 -32 -3 -64 29 -84v-152h-325v152c32 20 29 52 29 84v385c0 32 3 64 -29 84v152h371c66 0 149 1 207 -34c70 -41 94 -114 94 -192c0 -94 -28 -176 -128 -201v-2c84 -20 112 -56 112 -143v-49c0 -29 0 -71 33 -84v-152h-287c-11 47 -18 87 -15 230
c0 68 -7 102 -80 104h-11zM332 680v-175h27c58 0 76 30 76 90c0 55 -18 85 -76 85h-27z" />
    <glyph glyph-name="S" unicode="S" horiz-adv-x="720" 
d="M410 582v16c0 38 -1 91 -53 91c-34 0 -52 -25 -52 -57c0 -17 2 -34 16 -48c15 -16 53 -28 75 -34c64 -17 150 -40 204 -76c31 -21 54 -46 66 -82c14 -37 20 -78 20 -118v-4c0 -165 -73 -287 -328 -287c-109 0 -224 21 -311 90v230h261c0 -51 -1 -89 8 -107
c9 -17 28 -28 48 -28c36 0 52 35 52 66c0 88 -55 95 -129 113c-162 40 -253 79 -253 264v19c4 92 19 138 89 191c57 43 140 53 220 53c116 0 219 -23 316 -90v-202h-249z" />
    <glyph glyph-name="T" unicode="T" horiz-adv-x="760" 
d="M11 470v387h739v-387h-189v144c0 39 -9 60 -47 61v-439c0 -32 -3 -64 29 -84v-152h-325v152c32 20 29 52 29 84v439c-38 -1 -47 -22 -47 -61v-144h-189z" />
    <glyph glyph-name="U" unicode="U" horiz-adv-x="740" 
d="M403 705v152h310v-152c-36 -20 -33 -52 -33 -84v-347c-2 -91 -9 -163 -82 -227c-63 -55 -150 -64 -227 -64s-164 9 -227 64c-73 64 -80 136 -82 227v347c0 32 3 64 -29 84v152h325v-152c-32 -20 -29 -52 -29 -84v-391c0 -17 4 -61 53 -61s53 44 53 61v391
c-1 32 2 64 -32 84z" />
    <glyph glyph-name="V" unicode="V" horiz-adv-x="700" 
d="M651 601l-115 -601h-364l-119 620c-8 39 -12 59 -44 87v150h331v-152c-31 -22 -27 -34 -19 -88l55 -353h2l47 353c7 55 8 72 -27 88v152h293v-150c-26 -16 -34 -75 -40 -106z" />
    <glyph glyph-name="W" unicode="W" horiz-adv-x="1000" 
d="M701 705v152h289v-152c-30 -24 -33 -63 -40 -99l-113 -606h-257l-75 409h-2l-83 -409h-252l-113 606c-7 35 -14 77 -44 99v152h334v-152c-19 -8 -28 -25 -28 -46l33 -270h2l90 468h164l94 -467h2l27 269c0 21 -9 38 -28 46z" />
    <glyph glyph-name="X" unicode="X" horiz-adv-x="700" 
d="M58 220l132 229l-110 181c-17 28 -35 65 -60 75v152h305v-71c0 -44 0 -47 19 -87l26 -54l26 54c18 40 19 43 19 87v71h268v-152c-25 -10 -43 -47 -60 -75l-108 -181l135 -240c12 -20 24 -44 41 -57v-152h-327v95c0 64 -19 95 -46 151c-33 -61 -45 -81 -45 -151v-95h-263
v152c19 20 34 44 48 68z" />
    <glyph glyph-name="Y" unicode="Y" horiz-adv-x="700" 
d="M211 320l-147 299c-15 31 -26 67 -55 86v152h306v-111c0 -62 18 -104 49 -158c31 54 49 96 49 158v111h269v-152c-26 -18 -33 -31 -47 -62l-157 -305v-102c0 -32 -3 -64 29 -84v-152h-325v152c16 10 23 23 27 38c3 14 2 30 2 46v84z" />
    <glyph glyph-name="Z" unicode="Z" horiz-adv-x="740" 
d="M686 857v-149l-327 -524h41c80 0 96 26 96 100v76h196v-360h-656v155l326 518h-35c-93 0 -93 -34 -93 -114v-43h-192v341h644z" />
    <glyph glyph-name="bracketleft" unicode="[" horiz-adv-x="413" 
d="M389 -189h-365v1046h365v-152h-129v-742h129v-152z" />
    <glyph glyph-name="backslash" unicode="\" horiz-adv-x="414" 
d="M395 -52h-135l-240 956h134z" />
    <glyph glyph-name="bracketright" unicode="]" horiz-adv-x="413" 
d="M389 -189h-365v152h129v742h-129v152h365v-1046z" />
    <glyph glyph-name="asciicircum" unicode="^" horiz-adv-x="668" 
d="M622 364l-140 -1l-150 356l-154 -355h-133l227 490h124z" />
    <glyph glyph-name="underscore" unicode="_" horiz-adv-x="500" 
d="M500 -125h-500v50h500v-50z" />
    <glyph glyph-name="quoteleft" unicode="&#x2018;" 
d="M199 874l45 -41c-26 -29 -50 -61 -64 -97c54 -2 95 -38 95 -94c0 -58 -45 -98 -102 -98c-66 0 -108 55 -108 118c0 81 73 165 134 212z" />
    <glyph glyph-name="a" unicode="a" horiz-adv-x="640" 
d="M355 181v87c-42 -17 -98 -27 -98 -71c0 -20 13 -43 34 -39c20 0 42 7 64 23zM364 0v48c-50 -42 -99 -61 -164 -61c-110 0 -179 69 -179 180c0 126 76 163 182 198l152 49v22c0 31 -8 62 -41 62c-38 0 -46 -31 -46 -62v-26h-221v155c81 58 183 78 281 78
c63 0 144 -10 197 -50c66 -52 67 -118 66 -191v-176c0 -33 -3 -62 29 -85v-141h-256z" />
    <glyph glyph-name="b" unicode="b" horiz-adv-x="640" 
d="M281 857v-253c39 29 82 39 128 39c137 0 197 -75 197 -198v-233c0 -147 -62 -225 -256 -225c-105 0 -221 18 -305 86v560c0 33 2 62 -30 83v141h266zM281 458v-299c36 -12 58 -12 72 -2c13 10 17 31 17 60v183c0 29 -4 50 -17 60c-14 11 -36 11 -72 -2z" />
    <glyph glyph-name="c" unicode="c" horiz-adv-x="620" 
d="M361 393v20c0 30 3 83 -43 83c-45 0 -44 -47 -44 -79v-201c0 -32 -1 -82 44 -82c50 0 43 69 43 101v33h221v-195c-67 -67 -185 -86 -276 -86c-267 0 -268 155 -268 231v210c0 134 49 215 262 215c99 0 202 -17 282 -78v-172h-221z" />
    <glyph glyph-name="d" unicode="d" horiz-adv-x="640" 
d="M354 174v282c-12 8 -28 13 -43 13c-47 0 -47 -42 -47 -78v-139c0 -34 0 -89 48 -89c13 0 30 4 42 11zM360 0v36c-45 -34 -100 -49 -156 -49c-141 0 -176 86 -176 223v237c0 138 68 196 187 196c45 0 97 -14 139 -46v34c0 33 6 64 -26 85v141h262v-647
c0 -19 -3 -47 28 -69v-141h-258z" />
    <glyph glyph-name="e" unicode="e" horiz-adv-x="620" 
d="M30 230v171c-4 172 54 241 275 242c232 1 289 -76 285 -230v-149h-324v-58c-1 -31 3 -72 44 -72s44 37 44 69v23h236v-158c-52 -45 -149 -74 -246 -81c-96 -7 -193 9 -245 48c-66 49 -69 119 -69 195zM358 408v24c0 25 -4 64 -46 64s-46 -39 -46 -64v-24h92z" />
    <glyph glyph-name="f" unicode="f" horiz-adv-x="380" 
d="M53 486h-29v144h29c-7 201 65 247 200 244c40 0 83 -6 123 -17v-137c-78 -2 -90 -32 -87 -90h71v-144h-71v-262c0 -31 -3 -69 33 -83v-141h-298v141c30 20 29 46 29 79v266z" />
    <glyph glyph-name="g" unicode="g" horiz-adv-x="660" 
d="M359 177v282c-12 8 -28 13 -43 13c-47 0 -47 -42 -47 -78v-139c0 -34 0 -89 48 -89c13 0 30 4 42 11zM624 630v-141c-31 -19 -29 -46 -29 -78v-382c0 -71 3 -167 -52 -220c-54 -53 -145 -62 -217 -62c-105 0 -184 16 -276 67v151h219c0 -14 1 -32 7 -46
c7 -14 18 -24 37 -24c52 0 46 62 46 98v40c-42 -32 -94 -46 -139 -46c-119 0 -187 58 -187 196v237c0 137 35 223 176 223c56 0 111 -15 156 -49v36h259z" />
    <glyph glyph-name="h" unicode="h" horiz-adv-x="680" 
d="M294 857v-255c54 32 110 43 160 41c49 -2 92 -18 116 -42c43 -41 48 -87 48 -141v-236c0 -31 -3 -66 28 -83v-141h-251c-14 64 -13 131 -13 196v184c0 4 3 33 -7 56c-16 24 -42 42 -81 24v-236c0 -31 -3 -66 29 -83v-141h-294v141c31 18 29 47 29 79v413
c1 32 3 66 -30 83v141h266z" />
    <glyph glyph-name="i" unicode="i" 
d="M288 630v-406c0 -32 -3 -64 30 -83v-141h-295v141c31 19 29 47 29 79v186c0 32 3 64 -29 83v141h265zM163 668c-62 0 -130 30 -130 101c0 68 70 96 128 96c59 0 127 -32 127 -100c0 -66 -67 -97 -125 -97z" />
    <glyph glyph-name="j" unicode="j" 
d="M296 630v-604c0 -54 4 -132 -20 -180c-25 -52 -103 -122 -290 -71v141c48 4 74 2 74 90v401c0 32 3 63 -29 83v140h265zM166 669c-62 0 -130 30 -130 101c0 68 70 96 128 96c59 0 127 -32 127 -100c0 -66 -67 -97 -125 -97z" />
    <glyph glyph-name="k" unicode="k" horiz-adv-x="660" 
d="M289 857v-421l42 49c37 43 33 65 33 120v25h264v-141c-8 -4 -30 -13 -47 -34l-73 -92l66 -136c16 -33 28 -68 66 -86v-141h-213l-136 274h-2v-50c0 -34 -3 -60 29 -83v-141h-294v141c30 23 29 45 29 79v413c0 34 3 60 -29 83v141h265z" />
    <glyph glyph-name="l" unicode="l" 
d="M288 857v-633c0 -31 -3 -66 29 -83v-141h-294v141c31 19 29 47 29 79v413c0 32 3 64 -29 83v141h265z" />
    <glyph glyph-name="m" unicode="m" horiz-adv-x="1000" 
d="M284 630v-38c151 89 252 45 303 -9c172 117 298 37 322 -3c33 -43 33 -104 33 -156v-200c0 -35 -3 -58 29 -83v-141h-252c-14 64 -13 131 -13 196v153c4 84 1 135 -88 111v-236c0 -35 -3 -58 29 -83v-141h-252c-14 64 -13 131 -13 196v153c4 84 1 135 -88 111v-236
c0 -34 -3 -61 29 -83v-141h-294v141c30 20 29 46 29 79v186c0 33 3 63 -29 83v141h255z" />
    <glyph glyph-name="n" unicode="n" horiz-adv-x="680" 
d="M287 630v-39c64 43 120 54 170 52c49 -2 92 -18 116 -42c43 -41 48 -87 48 -141v-236c0 -31 -3 -66 28 -83v-141h-251c-14 64 -13 131 -13 196v184c0 4 3 33 -7 56c-16 24 -42 42 -81 24v-236c0 -31 -3 -66 29 -83v-141h-294v141c31 18 29 47 29 79v191c0 34 1 56 -29 78
v141h255z" />
    <glyph glyph-name="o" unicode="o" horiz-adv-x="619" 
d="M590 404v-164c0 -70 -2 -149 -59 -198s-141 -55 -213 -55c-65 0 -157 5 -212 42c-77 51 -77 128 -77 211v164c0 68 1 142 60 188c57 45 134 51 205 51c64 0 160 -5 215 -37c76 -46 81 -122 81 -202zM265 402v-182c0 -34 -3 -86 44 -86c48 0 45 52 45 86v182
c0 34 7 94 -44 94s-45 -59 -45 -94z" />
    <glyph glyph-name="p" unicode="p" horiz-adv-x="660" 
d="M290 455v-282c12 -8 28 -13 43 -13c47 0 47 42 47 78v139c0 34 0 89 -48 89c-13 0 -30 -4 -42 -11zM284 630v-36c45 34 100 49 156 49c59 0 114 -13 148 -65c34 -42 28 -148 28 -172v-201c0 -24 -4 -113 -34 -153c-35 -47 -90 -65 -148 -65c-50 0 -102 14 -144 46v-33
c0 -33 -3 -62 29 -83v-143h-294v143c32 21 29 50 29 83v404c0 33 3 62 -29 83v143h259z" />
    <glyph glyph-name="q" unicode="q" horiz-adv-x="640" 
d="M354 172v282c-12 8 -28 13 -43 13c-47 0 -47 -42 -47 -78v-139c0 -34 0 -89 48 -89c13 0 30 4 42 11zM590 630v-631c0 -33 -3 -62 29 -83v-143h-294v143c32 21 29 50 29 83v34c-42 -32 -94 -46 -144 -46c-58 0 -113 18 -148 65c-30 40 -34 129 -34 153v201
c0 24 -6 130 28 172c34 52 89 65 148 65c56 0 111 -15 156 -49v36h230z" />
    <glyph glyph-name="r" unicode="r" horiz-adv-x="440" 
d="M278 630v-50c25 43 51 64 102 64c9 0 19 -1 28 -3v-215h-19c-82 0 -100 -46 -100 -120v-61c0 -20 0 -48 4 -68c4 -21 10 -26 30 -36v-141h-299v143c32 21 29 50 29 83v178c0 33 3 62 -29 83v143h254z" />
    <glyph glyph-name="s" unicode="s" horiz-adv-x="600" 
d="M255 235v-15c0 -36 -4 -86 47 -86c25 0 45 21 45 48c0 57 -72 66 -114 76c-113 26 -211 46 -211 184c0 66 16 119 73 158c50 33 123 43 182 43c100 0 203 -20 284 -82v-150h-219v23c0 29 -9 62 -47 62c-25 0 -46 -19 -46 -43c0 -45 60 -53 94 -60
c123 -26 235 -46 235 -200c0 -164 -127 -206 -269 -206c-89 0 -209 21 -276 85v163h222z" />
    <glyph glyph-name="t" unicode="t" horiz-adv-x="380" 
d="M280 820v-190h78v-144h-78v-241c0 -68 -1 -93 78 -102v-143l-118 -9c-52 -4 -116 5 -156 44c-43 43 -40 102 -40 157v294h-29v144h29v123z" />
    <glyph glyph-name="u" unicode="u" horiz-adv-x="660" 
d="M39 231v175c0 34 2 60 -28 83v141h251c10 -39 13 -80 13 -120v-249c0 -37 -5 -100 49 -100c15 0 26 5 38 11v234c1 32 3 64 -29 83v141h265v-406c0 -33 -3 -63 29 -83v-141h-255v41c-49 -37 -102 -54 -163 -54c-58 0 -119 21 -148 74c-27 48 -22 116 -22 170z" />
    <glyph glyph-name="v" unicode="v" horiz-adv-x="620" 
d="M355 489v141h256v-141c-26 -20 -31 -43 -40 -73l-123 -416h-278l-116 397c-10 32 -17 72 -45 92v141h291v-141c-19 -13 -26 -18 -13 -73l40 -173h2l40 173c13 55 5 60 -14 73z" />
    <glyph glyph-name="w" unicode="w" horiz-adv-x="919" 
d="M653 489v141h254v-141c-29 -21 -38 -65 -47 -99l-107 -390h-229l-64 242l-67 -242h-226l-110 405c-8 31 -16 66 -45 84v141h298v-141c-16 -8 -29 -19 -25 -36l31 -145h2l84 322h157l86 -322h2l31 145c4 17 -9 28 -25 36z" />
    <glyph glyph-name="x" unicode="x" horiz-adv-x="600" 
d="M53 181l105 143l-79 104c-21 28 -32 46 -67 59v143h265v-24c0 -66 -5 -71 39 -124l4 6c32 52 32 48 32 111v31h228v-143c-24 -14 -40 -37 -57 -59l-78 -104l84 -121c14 -20 38 -53 64 -62v-141h-277v24c0 68 4 90 -39 147c-47 -56 -45 -71 -45 -141v-30h-224v141
c21 6 32 23 45 40z" />
    <glyph glyph-name="y" unicode="y" horiz-adv-x="620" 
d="M356 489v141h257v-141c-28 -19 -35 -58 -44 -89l-112 -379c-39 -134 -71 -247 -236 -247c-37 0 -73 4 -109 14v137c45 0 77 15 93 59l-153 434c-11 31 -16 55 -44 71v141h301v-141c-15 -7 -26 -11 -26 -30c0 -11 6 -31 8 -41l46 -149l37 149c2 10 8 30 8 41
c0 19 -11 23 -26 30z" />
    <glyph glyph-name="z" unicode="z" horiz-adv-x="600" 
d="M19 0v149l263 337h-23c-19 0 -54 4 -64 -17c-7 -15 -8 -45 -8 -58v-15h-164v234h552v-142l-267 -339h24c20 0 55 -3 66 17c9 15 10 43 10 60v19h173v-245h-562z" />
    <glyph glyph-name="braceleft" unicode="{" horiz-adv-x="413" 
d="M333 164v-212c0 -77 20 -118 85 -136v-2c-302 -21 -304 57 -304 183v201c0 80 -15 115 -85 135v2c64 17 85 56 85 133v228c0 142 32 176 304 163v-2c-67 -22 -85 -58 -85 -138v-229c0 -86 -16 -137 -94 -155v-2c73 -20 94 -59 94 -169z" />
    <glyph glyph-name="bar" unicode="|" horiz-adv-x="414" 
d="M117 997h179v-1329h-179v1329z" />
    <glyph glyph-name="braceright" unicode="}" horiz-adv-x="413" 
d="M80 -48v212c0 110 21 149 94 169v2c-78 18 -94 69 -94 155v229c0 80 -18 116 -85 138v2c272 13 304 -21 304 -163v-228c0 -77 21 -116 85 -133v-2c-70 -20 -85 -55 -85 -135v-201c0 -126 -2 -204 -304 -183v2c65 18 85 59 85 136z" />
    <glyph glyph-name="asciitilde" unicode="~" horiz-adv-x="651" 
d="M539 454l74 -68c-42 -81 -109 -137 -174 -137c-48 0 -79 13 -130 46c-33 23 -57 41 -95 41c-50 0 -77 -45 -105 -85l-75 69c35 71 107 135 187 135c59 0 92 -22 121 -39c44 -28 66 -46 95 -46c44 0 71 39 102 84z" />
    <glyph glyph-name="exclamdown" unicode="&#xa1;" horiz-adv-x="440" 
d="M221 413c-62 0 -115 49 -115 115s53 115 115 115c64 0 115 -49 115 -115s-51 -115 -115 -115zM278 363l78 -439c24 -133 -30 -169 -134 -169s-158 36 -134 169l78 439h112z" />
    <glyph glyph-name="cent" unicode="&#xa2;" horiz-adv-x="600" 
d="M349 504v25c0 30 2 82 -42 82c-46 0 -45 -47 -45 -80v-201c0 -32 -2 -80 43 -80c52 0 44 63 44 98v31h221v-195c-43 -44 -103 -63 -161 -76v-108h-202v104c-69 15 -115 37 -143 72c-27 35 -38 84 -38 154v211c0 130 54 187 181 207v109h202v-114c58 -10 112 -34 161 -68
v-171h-221z" />
    <glyph glyph-name="sterling" unicode="&#xa3;" horiz-adv-x="720" 
d="M433 284h245v-284h-641v152c16 10 23 23 27 38c4 14 2 30 2 46v94h-29v167h29v102c0 190 92 275 293 275c114 0 225 -34 319 -97v-233h-245v55c0 36 0 86 -49 86c-50 0 -51 -49 -51 -86v-102h166v-167h-166v-148c79 0 101 8 100 80v22z" />
    <glyph glyph-name="fraction" unicode="&#x2044;" horiz-adv-x="278" 
d="M-9 -9h-133l429 878h133z" />
    <glyph glyph-name="yen" unicode="&#xa5;" horiz-adv-x="680" 
d="M635 643l-71 -139h118v-100h-170l-17 -34h187v-100h-204v-34c0 -32 -3 -64 29 -84v-152h-325v152c32 20 29 52 29 84v34h-202v100h177l-17 34h-160v100h111l-56 115c-15 31 -26 67 -55 88v150h306v-111c0 -62 18 -104 49 -158c31 54 49 96 49 158v111h269v-150
c-26 -20 -33 -33 -47 -64z" />
    <glyph glyph-name="florin" unicode="&#x192;" horiz-adv-x="680" 
d="M543 630l-30 -144h-71l-100 -479c-12 -55 -23 -122 -67 -169c-47 -51 -120 -64 -179 -64c-42 0 -84 6 -121 18l28 137c53 -1 91 17 103 76l100 481h-29l30 144h29c15 67 26 134 70 181c47 51 120 64 179 64c42 0 84 -6 121 -18l-28 -137c-53 1 -91 -17 -106 -90h71z" />
    <glyph glyph-name="section" unicode="&#xa7;" horiz-adv-x="717" 
d="M600 865l-30 -152c-34 16 -94 31 -147 31c-80 0 -102 -24 -102 -39c0 -23 38 -43 135 -73c148 -55 212 -117 212 -218c0 -68 -40 -121 -97 -162c31 -23 59 -76 59 -122c0 -150 -159 -218 -291 -218c-80 0 -172 10 -239 50l36 154c36 -20 114 -48 180 -48
c49 0 101 10 101 50c0 35 -40 44 -132 70c-136 36 -230 95 -230 218c0 60 39 130 111 157c-32 33 -54 80 -54 124c0 146 122 216 290 216c73 0 141 -12 198 -38zM244 443c0 -37 33 -55 96 -74c49 -16 99 -29 119 -41c15 7 25 23 25 47c0 36 -35 61 -87 77
c-42 14 -92 27 -121 37c-18 -9 -32 -23 -32 -46z" />
    <glyph glyph-name="currency" unicode="&#xa4;" horiz-adv-x="693" 
d="M627 163l-78 -73l-77 96c-37 -29 -82 -39 -126 -39c-45 0 -87 8 -125 41l-76 -98l-79 73l84 94c-29 41 -50 100 -50 168c0 64 18 127 52 166l-85 88l79 75l74 -92c37 31 80 42 126 42s89 -7 127 -41l77 93l76 -77l-85 -88c36 -39 53 -102 53 -166
c0 -63 -21 -127 -53 -167zM348 581h-3c-67 0 -116 -68 -116 -156c0 -91 48 -155 119 -155c69 0 118 66 118 155c0 88 -48 156 -118 156z" />
    <glyph glyph-name="quotesingle" unicode="'" horiz-adv-x="222" 
d="M111 874c33 0 52 -18 52 -60c0 -28 -14 -150 -21 -221c-2 -22 -17 -35 -31 -35s-29 13 -31 35c-7 71 -21 193 -21 221c0 42 19 60 52 60z" />
    <glyph glyph-name="quotedblleft" unicode="&#x201c;" horiz-adv-x="600" 
d="M459 874l45 -41c-26 -29 -50 -61 -64 -97c54 -2 95 -38 95 -94c0 -58 -45 -98 -102 -98c-66 0 -108 55 -108 118c0 81 73 165 134 212zM202 874l45 -41c-26 -29 -50 -61 -64 -97c54 -2 95 -38 95 -94c0 -58 -45 -98 -102 -98c-66 0 -108 55 -108 118c0 81 73 165 134 212
z" />
    <glyph glyph-name="guillemotleft" unicode="&#xab;" horiz-adv-x="520" 
d="M329 514h140l-84 -174l84 -163h-140l-84 163zM127 514h140l-84 -174l84 -163h-140l-84 163z" />
    <glyph glyph-name="guilsinglleft" unicode="&#x2039;" 
d="M149 514h140l-84 -174l84 -163h-140l-84 163z" />
    <glyph glyph-name="guilsinglright" unicode="&#x203a;" 
d="M191 166h-140l84 174l-84 163h140l84 -163z" />
    <glyph glyph-name="fi" unicode="&#xfb01;" horiz-adv-x="715" 
d="M538 668c-62 0 -130 30 -130 101c0 68 70 96 128 96c59 0 127 -32 127 -100c0 -66 -67 -97 -125 -97zM322 141v-141h-298v141c30 20 29 46 29 79v266h-29v144h29c-7 201 65 247 200 244c40 0 83 -6 123 -17v-137c-78 -2 -90 -32 -87 -90h374v-406c0 -32 -3 -64 30 -83
v-141h-295v141c31 19 29 47 29 79v183c0 32 3 83 -52 83h-86v-262c0 -31 -3 -69 33 -83z" />
    <glyph glyph-name="fl" unicode="&#xfb02;" horiz-adv-x="715" 
d="M53 486h-29v144h29c-7 201 65 247 200 244c40 -1 83 -6 125 -17h285v-633c0 -31 -3 -66 29 -83v-141h-294v141c31 19 29 47 29 79v413c0 32 3 84 -49 86h-22c-45 -1 -67 -28 -67 -89h71v-144h-71v-262c0 -31 -3 -69 33 -83v-141h-298v141c30 20 29 46 29 79v266z" />
    <glyph glyph-name="endash" unicode="&#x2013;" horiz-adv-x="500" 
d="M500 239h-500v202h500v-202z" />
    <glyph glyph-name="dagger" unicode="&#x2020;" horiz-adv-x="681" 
d="M233 891h214l-17 -250l209 13v-198l-209 13l17 -534h-214l16 534l-208 -13v198l208 -13z" />
    <glyph glyph-name="daggerdbl" unicode="&#x2021;" horiz-adv-x="681" 
d="M236 891h203l-13 -228l214 14v-193l-214 15v-174l214 15v-192l-214 14l13 -227h-203l11 227l-206 -14v192l208 -15v174l-208 -15v193l208 -14z" />
    <glyph glyph-name="periodcentered" unicode="&#xb7;" 
d="M170 200c-62 0 -115 49 -115 115s53 115 115 115c64 0 115 -49 115 -115s-51 -115 -115 -115z" />
    <glyph glyph-name="paragraph" unicode="&#xb6;" horiz-adv-x="696" 
d="M392 -63h-136v403h-13c-73 0 -206 62 -204 261c2 184 124 293 381 293c80 0 154 -6 191 -15v-942h-137v819h-82v-819z" />
    <glyph glyph-name="bullet" unicode="&#x2022;" horiz-adv-x="392" 
d="M196 529c86 0 160 -68 158 -158c2 -90 -72 -158 -158 -158s-158 68 -158 158s72 158 158 158z" />
    <glyph glyph-name="quotesinglbase" unicode="&#x201a;" 
d="M145 -137l-45 41c26 29 50 61 64 97c-54 2 -95 38 -95 94c0 58 45 98 102 98c66 0 108 -55 108 -118c0 -81 -73 -165 -134 -212z" />
    <glyph glyph-name="quotedblbase" unicode="&#x201e;" horiz-adv-x="600" 
d="M402 -137l-45 41c26 29 50 61 64 97c-54 2 -95 38 -95 94c0 58 45 98 102 98c66 0 108 -55 108 -118c0 -81 -73 -165 -134 -212zM145 -137l-45 41c26 29 50 61 64 97c-54 2 -95 38 -95 94c0 58 45 98 102 98c66 0 108 -55 108 -118c0 -81 -73 -165 -134 -212z" />
    <glyph glyph-name="quotedblright" unicode="&#x201d;" horiz-adv-x="600" 
d="M401 544l-45 41c26 29 50 61 64 97c-54 2 -95 38 -95 94c0 58 45 98 102 98c66 0 108 -55 108 -118c0 -81 -73 -165 -134 -212zM144 544l-45 41c26 29 50 61 64 97c-54 2 -95 38 -95 94c0 58 45 98 102 98c66 0 108 -55 108 -118c0 -81 -73 -165 -134 -212z" />
    <glyph glyph-name="guillemotright" unicode="&#xbb;" horiz-adv-x="520" 
d="M393 166h-140l84 174l-84 163h140l84 -163zM191 166h-140l84 174l-84 163h140l84 -163z" />
    <glyph glyph-name="ellipsis" unicode="&#x2026;" horiz-adv-x="1000" 
d="M166 -17c-64 0 -114 53 -114 117s53 114 116 114s114 -50 114 -113c0 -64 -51 -118 -116 -118zM499 -16c-64 0 -114 53 -114 117s53 114 116 114s114 -50 114 -113c0 -64 -51 -118 -116 -118zM832 -12c-64 0 -114 53 -114 117s53 114 116 114s114 -50 114 -113
c0 -64 -51 -118 -116 -118z" />
    <glyph glyph-name="perthousand" unicode="&#x2030;" horiz-adv-x="1572" 
d="M1323 398h-2c-40 0 -57 -45 -57 -140c0 -107 21 -142 60 -142c32 0 54 29 54 141c0 102 -14 141 -55 141zM370 -9h-116l449 877h116zM1325 524h1c123 0 216 -88 216 -258c0 -185 -103 -275 -221 -275c-124 0 -219 97 -219 260c0 174 94 273 223 273zM255 872h2
c122 0 214 -88 214 -257c0 -186 -103 -276 -221 -276c-122 0 -220 97 -220 261c0 173 97 272 225 272zM252 746h-1c-41 0 -57 -45 -57 -140c0 -106 20 -141 59 -141c32 0 54 29 54 140c0 102 -14 141 -55 141zM832 524h1c122 0 215 -88 215 -258c0 -184 -103 -275 -220 -275
c-124 0 -219 97 -219 260c0 174 94 273 223 273zM829 398c-41 0 -58 -45 -58 -141c0 -105 20 -141 59 -141c33 0 55 30 55 141c0 102 -14 141 -56 141z" />
    <glyph glyph-name="questiondown" unicode="&#xbf;" horiz-adv-x="700" 
d="M292 365h232v-111c0 -76 -23 -97 -122 -152c-45 -24 -94 -47 -94 -105c0 -35 19 -59 56 -59c53 0 56 56 56 96v34h242v-219c-95 -64 -191 -92 -306 -92c-158 0 -313 52 -313 238c0 45 12 112 37 151c29 47 78 75 125 100c56 31 93 49 87 119zM394 413
c-62 0 -115 49 -115 115s53 115 115 115c64 0 115 -49 115 -115s-51 -115 -115 -115z" />
    <glyph glyph-name="grave" unicode="`" horiz-adv-x="380" 
d="M251 860l51 -156h-114l-102 156h165z" />
    <glyph glyph-name="acute" unicode="&#xb4;" horiz-adv-x="380" 
d="M137 860h165l-103 -156h-113z" />
    <glyph glyph-name="circumflex" unicode="&#x2c6;" horiz-adv-x="520" 
d="M425 701h-136l-34 68l-34 -68h-135l107 156h125z" />
    <glyph glyph-name="tilde" unicode="&#x2dc;" horiz-adv-x="540" 
d="M372 835h87c-9 -59 -50 -126 -116 -126c-30 0 -62 8 -90 16c-51 8 -61 14 -78 -11h-89c9 60 59 123 123 123c23 0 53 -5 75 -11c73 -19 72 -7 88 9z" />
    <glyph glyph-name="macron" unicode="&#xaf;" 
d="M400 888v-78h-328v78h328z" />
    <glyph glyph-name="breve" unicode="&#x2d8;" 
d="M316 923h84c0 -209 -328 -207 -328 0h84c0 -99 160 -99 160 0z" />
    <glyph glyph-name="dotaccent" unicode="&#x2d9;" 
d="M254 781c0 -49 -37 -87 -87 -87c-47 0 -82 41 -82 87c0 44 39 82 83 82c45 0 86 -35 86 -82z" />
    <glyph glyph-name="dieresis" unicode="&#xa8;" horiz-adv-x="560" 
d="M478 781c0 -49 -37 -87 -87 -87c-47 0 -82 41 -82 87c0 44 39 82 83 82c45 0 86 -35 86 -82zM254 781c0 -49 -37 -87 -87 -87c-47 0 -82 41 -82 87c0 44 39 82 83 82c45 0 86 -35 86 -82z" />
    <glyph glyph-name="ring" unicode="&#x2da;" horiz-adv-x="420" 
d="M330 796c0 -65 -54 -121 -122 -121s-122 56 -122 121s54 121 122 121s122 -56 122 -121zM246 796c0 22 -19 37 -39 37s-37 -16 -37 -37s17 -37 37 -37s39 15 39 37z" />
    <glyph glyph-name="cedilla" unicode="&#xb8;" 
d="M139 -94h-19c-16 0 -32 8 -32 31v63h81v-38h23c24 0 32 -13 32 -32v-109c0 -27 -13 -57 -39 -57h-113v85h67v57z" />
    <glyph glyph-name="hungarumlaut" unicode="&#x2dd;" horiz-adv-x="460" 
d="M284 750h-113l51 156h165zM107 750h-113l51 156h165z" />
    <glyph glyph-name="ogonek" unicode="&#x2db;" 
d="M280 0h102c-80 -118 -78 -133 -1 -119v-92h-94c-31 0 -108 42 -7 211z" />
    <glyph glyph-name="caron" unicode="&#x2c7;" horiz-adv-x="341" 
d="M1 854h136l34 -68l34 68h135l-107 -156h-125z" />
    <glyph glyph-name="emdash" unicode="&#x2014;" horiz-adv-x="1000" 
d="M1000 239h-1000v202h1000v-202z" />
    <glyph glyph-name="AE" unicode="&#xc6;" horiz-adv-x="1033" 
d="M417 380v283h-2l-84 -283h86zM772 575v21c0 73 -22 79 -94 79v-147h171v-167h-171v-179h26c73 0 68 42 68 99v35h240v-316h-628v155c29 13 33 35 33 74h-133c-13 -42 -4 -65 22 -74v-155h-297v155c25 22 38 55 48 86l199 616h756v-282h-240z" />
    <glyph glyph-name="ordfeminine" unicode="&#xaa;" horiz-adv-x="384" 
d="M214 597v52c-22 -8 -59 -14 -59 -43c0 -12 9 -23 22 -23s28 7 37 14zM386 573v-85h-165v29c-33 -25 -64 -37 -107 -37c-71 0 -116 42 -116 108c0 76 49 98 118 119l98 30v13c0 18 -5 37 -28 37c-26 0 -28 -22 -28 -40v-13h-143v93c52 35 119 47 182 47
c41 0 90 -5 124 -27c46 -29 46 -71 46 -118v-106c0 -20 -2 -38 19 -50z" />
    <glyph glyph-name="Lslash" unicode="&#x141;" horiz-adv-x="680" 
d="M320 182h26c68 0 67 41 67 95v139h235v-416h-624v152c32 20 29 52 29 84v105l-55 -27v136l55 23v148c0 32 3 64 -29 84v152h325v-152c-32 -20 -29 -52 -29 -84v-56l92 47v-130l-92 -46v-254z" />
    <glyph glyph-name="Oslash" unicode="&#xd8;" horiz-adv-x="720" 
d="M536 941l174 -105l-52 -90c16 -42 22 -87 22 -131v-350c0 -79 -9 -159 -72 -215c-66 -59 -150 -67 -234 -67c-54 0 -107 3 -159 17l-38 -63l-175 103l54 97c-17 51 -14 106 -14 159v309c0 77 10 162 76 212c67 51 147 63 228 57l143 -10zM309 623v-388
c0 -6 -3 -67 52 -67s52 61 52 67v388c0 6 3 66 -52 66s-52 -60 -52 -66z" />
    <glyph glyph-name="OE" unicode="&#x152;" horiz-adv-x="1042" 
d="M410 271v315c0 41 5 103 -51 103s-51 -62 -51 -103v-315c0 -41 -5 -103 51 -103s51 62 51 103zM773 316h240v-316h-501c-23 -7 -48 -11 -72 -14c-25 -2 -49 -3 -74 -3c-190 0 -325 50 -325 265v361c0 215 135 265 325 265c49 0 99 -3 146 -17h501v-281h-241
c1 42 -4 67 -18 81c-13 15 -34 19 -66 18h-11v-147h171v-167h-171v-179h12c74 0 83 17 84 94v40z" />
    <glyph glyph-name="ordmasculine" unicode="&#xba;" horiz-adv-x="372" 
d="M386 731v-99c0 -42 -1 -89 -38 -119c-37 -29 -92 -33 -139 -33c-42 0 -102 3 -138 26c-50 30 -50 76 -50 126v99c0 40 1 85 39 112c37 27 87 31 134 31c41 0 104 -3 139 -22c50 -28 53 -73 53 -121zM174 730v-111c0 -20 -2 -51 29 -51c32 0 30 31 30 51v111
c0 20 4 56 -29 56c-34 0 -30 -35 -30 -56z" />
    <glyph glyph-name="ae" unicode="&#xe6;" horiz-adv-x="943" 
d="M587 410h91v35c0 27 -10 53 -45 53c-36 0 -44 -26 -46 -53v-35zM351 171v89c-40 -8 -96 -24 -96 -67c0 -38 44 -60 96 -22zM266 453v-43h-220v157c36 28 122 73 230 76c69 2 140 -11 192 -42c52 31 123 44 192 42c68 -2 135 -18 177 -45c73 -47 77 -111 77 -188v-136
h-327v-59c0 -30 0 -79 46 -79c45 0 45 49 45 79v20h236v-166c-77 -54 -169 -82 -261 -82c-80 0 -159 13 -222 67c-61 -48 -139 -67 -215 -67c-123 0 -197 54 -197 183c0 132 81 161 191 194l141 42v47c-2 24 -11 45 -42 45c-35 0 -41 -21 -43 -45z" />
    <glyph glyph-name="dotlessi" unicode="&#x131;" 
d="M289 630v-406c0 -32 -2 -64 29 -83v-141h-294v141c31 19 29 47 29 79v186c0 32 3 64 -29 83v141h265z" />
    <glyph glyph-name="lslash" unicode="&#x142;" 
d="M23 857h265v-299l61 26v-126l-61 -26v-208c0 -31 -3 -66 29 -83v-141h-294v141c31 19 29 47 29 79v123l-61 -28v126l61 28v164c0 32 3 64 -29 83v141z" />
    <glyph glyph-name="oslash" unicode="&#xf8;" horiz-adv-x="619" 
d="M481 696l132 -96l-45 -61c20 -35 20 -77 20 -116v-207c0 -66 -10 -142 -70 -182c-16 -11 -52 -29 -109 -41c-28 -4 -62 -6 -101 -6c-38 0 -82 4 -132 14l-45 -53l-125 96l41 50c-20 35 -20 77 -20 116v207c0 66 10 142 70 180c16 12 52 32 109 40c29 4 62 7 101 6
c39 0 83 -2 132 -11zM263 402v-182c0 -34 -3 -86 44 -86c48 0 45 52 45 86v182c0 34 7 94 -44 94s-45 -59 -45 -94z" />
    <glyph glyph-name="oe" unicode="&#x153;" horiz-adv-x="943" 
d="M679 400v22c0 33 -4 74 -47 74c-42 0 -47 -40 -46 -73v-23h93zM910 263h-324v-58c0 -32 2 -71 45 -71c39 0 43 37 43 68v24h236v-159c-40 -33 -129 -80 -279 -80c-52 0 -108 5 -160 21c-53 -16 -109 -21 -161 -21c-230 0 -285 75 -285 235v186c0 160 55 235 285 235
c52 0 108 -5 161 -21c46 17 132 21 194 18c154 -7 245 -42 245 -214v-163zM261 430v-230c0 -6 -3 -66 45 -66c50 0 44 60 44 66v230c0 6 7 66 -45 66c-50 0 -44 -60 -44 -66z" />
    <glyph glyph-name="germandbls" unicode="&#xdf;" horiz-adv-x="660" 
d="M378 208v114c0 40 -1 79 -55 79v146c57 0 55 49 55 89c0 36 4 91 -45 91s-45 -55 -45 -89v-638h-264v145c32 24 28 41 28 77v403c0 73 -2 151 63 199c60 44 144 50 216 50c227 0 280 -80 280 -208c0 -75 -6 -154 -90 -181c71 -19 92 -68 93 -138v-163
c-1 -171 -99 -184 -207 -184h-84v145c51 4 55 14 55 63z" />
    <glyph glyph-name="onesuperior" unicode="&#xb9;" horiz-adv-x="408" 
d="M291 857v-373c0 -19 -2 -38 19 -50v-91h-211v91c20 12 18 31 18 50v231c0 20 2 39 -18 51v91h192z" />
    <glyph glyph-name="logicalnot" unicode="&#xac;" horiz-adv-x="651" 
d="M596 157h-126v241h-415v125h541v-366z" />
    <glyph glyph-name="mu" unicode="&#xb5;" horiz-adv-x="660" 
d="M39 111v295c0 34 2 60 -28 83v141h251c10 -39 13 -80 13 -120v-249c0 -37 -5 -100 49 -100c15 0 26 5 38 11v234c1 32 3 64 -29 83v141h265v-406c0 -33 -3 -63 29 -83v-141h-255v41c-30 -23 -62 -38 -95 -47l8 -46c24 -133 -30 -169 -134 -169s-152 35 -134 169z" />
    <glyph glyph-name="trademark" unicode="&#x2122;" horiz-adv-x="906" 
d="M371 857v-88h-118v-316h-108v316h-116v88h342zM582 857l71 -199l71 199h162v-404h-108v286h-2l-97 -286h-52l-97 286h-2v-286h-108v404h162z" />
    <glyph glyph-name="Eth" unicode="&#xd0;" horiz-adv-x="740" 
d="M71 380h-40v152h40v105c-1 30 -3 55 -34 68v152h370c73 0 157 -1 218 -48c70 -55 77 -133 77 -215v-321c0 -84 -4 -149 -69 -210c-61 -58 -137 -63 -218 -63h-378v152c30 13 33 39 34 68v160zM338 532h40v-152h-40v-199h21c58 0 76 21 76 83v323c0 62 -18 83 -76 83h-21
v-138z" />
    <glyph glyph-name="onehalf" unicode="&#xbd;" horiz-adv-x="1068" 
d="M327 -9h-132l430 877h132zM319 350h-178v368h-3l-77 -33l-35 120l132 60h161v-515zM618 0v98l84 83c94 86 125 117 125 153c0 24 -26 46 -68 46c-33 0 -78 -17 -100 -32l-39 123c34 22 111 50 193 50c113 0 199 -56 199 -160c0 -98 -64 -144 -141 -211l-21 -6v-4h168
v-140h-400z" />
    <glyph glyph-name="plusminus" unicode="&#xb1;" horiz-adv-x="651" 
d="M592 394h-204v-237h-128v237h-206v126h206v228h128v-228h204v-126zM596 -19h-538v125h538v-125z" />
    <glyph glyph-name="Thorn" unicode="&#xde;" horiz-adv-x="720" 
d="M337 581v-201h25c81 0 78 36 78 89v23c0 53 3 89 -78 89h-25zM70 236v385c0 32 3 64 -29 84v152h296v-132h55c73 0 171 1 231 -36c75 -46 84 -116 84 -187v-43c0 -71 -9 -141 -84 -187c-60 -37 -158 -36 -231 -36h-55c0 -32 -3 -64 29 -84v-152h-325v152
c32 20 29 52 29 84z" />
    <glyph glyph-name="onequarter" unicode="&#xbc;" horiz-adv-x="1027" 
d="M924 0h-164v100h-224v104l209 312h179v-295h60v-121h-60v-100zM760 221v57c0 29 0 54 2 82l-2 2c-12 -20 -24 -42 -36 -58l-67 -83h2h101zM328 -9h-133l430 877h133zM319 350h-178v368h-3l-77 -33l-35 120l132 60h161v-515z" />
    <glyph glyph-name="divide" unicode="&#xf7;" horiz-adv-x="651" 
d="M329 493h-2c-43 0 -89 45 -89 98s46 101 91 101c50 0 91 -48 91 -101s-41 -98 -91 -98zM596 286h-541v125h541v-125zM328 205h2c43 0 88 -44 88 -98c0 -52 -45 -101 -90 -101c-52 0 -92 49 -92 101c0 54 40 98 92 98z" />
    <glyph glyph-name="brokenbar" unicode="&#xa6;" horiz-adv-x="414" 
d="M117 898h179v-465h-179v465zM117 233h179v-465h-179v465z" />
    <glyph glyph-name="degree" unicode="&#xb0;" horiz-adv-x="480" 
d="M236 890h2c118 0 191 -99 191 -211c0 -134 -88 -211 -193 -211c-102 0 -190 77 -190 211c0 129 88 211 190 211zM237 810h-1c-57 0 -93 -54 -93 -130c0 -78 38 -133 95 -133c58 0 93 54 93 129s-29 134 -94 134z" />
    <glyph glyph-name="thorn" unicode="&#xfe;" horiz-adv-x="660" 
d="M381 263v113c0 38 2 86 -50 86c-14 0 -29 -3 -40 -12v-283c12 -7 28 -11 42 -11c56 0 48 69 48 107zM25 716v141h257v-270c50 35 96 56 156 56c55 0 104 -14 139 -58c38 -48 40 -103 40 -159v-223c0 -52 -1 -109 -35 -151c-33 -44 -89 -65 -143 -65
c-55 0 -102 16 -148 43v-32c0 -34 -4 -60 27 -83v-141h-293v141c31 18 30 47 30 79v639c0 32 3 65 -30 83z" />
    <glyph glyph-name="threequarters" unicode="&#xbe;" horiz-adv-x="1087" 
d="M984 0h-164v100h-223v104l208 312h179v-295h60v-121h-60v-100zM820 221v57c0 29 1 54 3 82l-3 2c-12 -20 -24 -42 -36 -58l-67 -83h3h100zM388 -9h-133l431 877h132zM72 719l-28 118c35 20 102 35 183 35c105 0 189 -44 189 -132c0 -63 -50 -100 -105 -120v-3
c67 -9 122 -60 122 -116c0 -98 -92 -157 -229 -157c-66 0 -145 12 -176 30l26 123c22 -13 72 -28 110 -28c50 0 84 18 84 44c0 32 -47 50 -100 50h-36v110h31c51 0 95 11 95 36c0 17 -15 37 -69 37c-36 0 -71 -11 -97 -27z" />
    <glyph glyph-name="twosuperior" unicode="&#xb2;" horiz-adv-x="429" 
d="M324 567l-65 -31c-87 -40 -88 -51 -86 -75h21c43 0 56 11 57 50h163v-161h-409v120c0 41 2 75 34 107c28 28 71 47 108 65c97 45 103 52 103 81c0 21 -12 40 -36 40c-37 0 -34 -39 -34 -63v-19h-165v139c60 41 137 54 210 54c48 0 99 -6 139 -31c47 -30 60 -71 60 -122
c0 -88 -31 -121 -100 -154z" />
    <glyph glyph-name="registered" unicode="&#xae;" horiz-adv-x="939" 
d="M470 -17c-247 0 -446 201 -446 446c0 244 199 445 446 445c244 0 445 -201 445 -445c0 -245 -201 -446 -445 -446zM470 103c178 0 325 146 325 326c0 179 -147 325 -325 325c-181 0 -326 -146 -326 -325c0 -180 145 -326 326 -326zM574 404l102 -198h-128l-95 198h-60
v-198h-114v469h229c39 0 92 -1 127 -21c42 -28 55 -73 55 -122c0 -87 -44 -122 -116 -128zM393 486h111c42 -1 71 9 71 57c0 50 -54 50 -91 50h-91v-107z" />
    <glyph glyph-name="minus" unicode="&#x2212;" horiz-adv-x="651" 
d="M596 286h-541v125h541v-125z" />
    <glyph glyph-name="eth" unicode="&#xf0;" horiz-adv-x="620" 
d="M266 402v-182c0 -34 -3 -86 44 -86c48 0 45 52 45 86v182c0 34 7 94 -44 94s-45 -59 -45 -94zM180 818l75 56h129l-92 -76c151 -32 264 -116 287 -228c9 -43 12 -103 12 -166v-164c0 -70 -2 -149 -59 -198s-141 -55 -213 -55c-65 0 -157 5 -212 42
c-77 51 -77 128 -77 211v164c0 68 1 142 60 188c34 27 87 51 180 56c-16 30 -48 46 -68 46l-42 -40h-120l71 64c-27 4 -51 2 -95 -2l40 100c30 4 62 0 124 2z" />
    <glyph glyph-name="multiply" unicode="&#xd7;" horiz-adv-x="651" 
d="M604 114l-92 -83l-191 215l-190 -214l-92 82l203 223l-198 220l91 86l194 -214l186 216l91 -85l-202 -222z" />
    <glyph glyph-name="threesuperior" unicode="&#xb3;" horiz-adv-x="424" 
d="M173 694h-166v125c58 40 136 55 208 55c103 0 200 -35 200 -144c0 -51 -19 -90 -73 -110c62 -21 78 -66 78 -122c0 -47 -12 -96 -58 -124c-43 -27 -105 -34 -156 -34c-70 0 -146 13 -202 55v143h169v-19c0 -21 -3 -67 31 -67c33 0 39 30 39 53c0 48 -18 60 -68 60h-54
v101h44c57 0 76 8 76 52c0 21 -8 46 -36 46c-31 0 -32 -35 -32 -56v-14z" />
    <glyph glyph-name="copyright" unicode="&#xa9;" horiz-adv-x="939" 
d="M470 -17c-247 0 -446 199 -446 446c0 246 199 445 446 445c246 0 445 -199 445 -445c0 -247 -199 -446 -445 -446zM470 103c178 0 325 146 325 326c0 179 -147 325 -325 325c-181 0 -326 -146 -326 -325c0 -180 145 -326 326 -326zM705 522h-126c0 21 -12 40 -31 53
s-45 21 -73 21c-86 0 -104 -70 -104 -163s18 -163 104 -163c56 0 104 32 104 74h126c-12 -63 -37 -106 -75 -135s-89 -43 -153 -47c-146 -9 -264 100 -264 271s118 280 264 271c127 -8 204 -56 228 -182z" />
    <glyph glyph-name="Aacute" unicode="&#xc1;" horiz-adv-x="720" 
d="M290 391h88l-44 254h-2zM304 152v-152h-295v152c29 20 32 64 40 97l113 608h380l125 -621c5 -27 15 -75 45 -84v-152h-337v152c21 8 31 24 31 47c0 9 -2 17 -4 25h-129c-2 -8 -4 -17 -4 -25c0 -24 12 -41 35 -47zM307 1087h165l-103 -156h-113z" />
    <glyph glyph-name="Acircumflex" unicode="&#xc2;" horiz-adv-x="720" 
d="M290 391h88l-44 254h-2zM304 152v-152h-295v152c29 20 32 64 40 97l113 608h380l125 -621c5 -27 15 -75 45 -84v-152h-337v152c21 8 31 24 31 47c0 9 -2 17 -4 25h-129c-2 -8 -4 -17 -4 -25c0 -24 12 -41 35 -47zM525 928h-136l-34 68l-34 -68h-135l107 156h125z" />
    <glyph glyph-name="Adieresis" unicode="&#xc4;" horiz-adv-x="720" 
d="M290 391h88l-44 254h-2zM304 152v-152h-295v152c29 20 32 64 40 97l113 608h380l125 -621c5 -27 15 -75 45 -84v-152h-337v152c21 8 31 24 31 47c0 9 -2 17 -4 25h-129c-2 -8 -4 -17 -4 -25c0 -24 12 -41 35 -47zM558 1008c0 -49 -37 -87 -87 -87c-47 0 -82 41 -82 87
c0 44 39 82 83 82c45 0 86 -35 86 -82zM334 1008c0 -49 -37 -87 -87 -87c-47 0 -82 41 -82 87c0 44 39 82 83 82c45 0 86 -35 86 -82z" />
    <glyph glyph-name="Agrave" unicode="&#xc0;" horiz-adv-x="720" 
d="M290 391h88l-44 254h-2zM304 152v-152h-295v152c29 20 32 64 40 97l113 608h380l125 -621c5 -27 15 -75 45 -84v-152h-337v152c21 8 31 24 31 47c0 9 -2 17 -4 25h-129c-2 -8 -4 -17 -4 -25c0 -24 12 -41 35 -47zM421 1087l51 -156h-114l-102 156h165z" />
    <glyph glyph-name="Aring" unicode="&#xc5;" horiz-adv-x="720" 
d="M290 391h88l-44 254h-2zM304 152v-152h-295v152c29 20 32 64 40 97l113 608h380l125 -621c5 -27 15 -75 45 -84v-152h-337v152c21 8 31 24 31 47c0 9 -2 17 -4 25h-129c-2 -8 -4 -17 -4 -25c0 -24 12 -41 35 -47zM480 1023c0 -65 -54 -121 -122 -121s-122 56 -122 121
s54 121 122 121s122 -56 122 -121zM396 1023c0 22 -19 37 -39 37s-37 -16 -37 -37s17 -37 37 -37s39 15 39 37z" />
    <glyph glyph-name="Atilde" unicode="&#xc3;" horiz-adv-x="720" 
d="M290 391h88l-44 254h-2zM304 152v-152h-295v152c29 20 32 64 40 97l113 608h380l125 -621c5 -27 15 -75 45 -84v-152h-337v152c21 8 31 24 31 47c0 9 -2 17 -4 25h-129c-2 -8 -4 -17 -4 -25c0 -24 12 -41 35 -47zM462 1062h87c-9 -59 -50 -126 -116 -126
c-30 0 -62 8 -90 16c-51 8 -61 14 -78 -11h-89c9 60 59 123 123 123c23 0 53 -5 75 -11c73 -19 72 -7 88 9z" />
    <glyph glyph-name="Ccedilla" unicode="&#xc7;" horiz-adv-x="700" 
d="M349 -16v-22h23c24 0 32 -13 32 -32v-109c0 -27 -13 -57 -39 -57h-113v85h67v57h-19c-16 0 -32 8 -32 31v53c-67 9 -126 31 -161 64c-74 69 -71 159 -71 253v298c0 77 10 152 73 204c58 48 153 69 254 65c102 -4 210 -36 296 -93v-238h-258v51c0 35 7 95 -49 95
s-49 -60 -49 -95v-331c0 -35 -7 -95 49 -95s49 60 49 95v97h258v-286c-69 -57 -180 -88 -288 -91c-8 0 -15 0 -22 1z" />
    <glyph glyph-name="Eacute" unicode="&#xc9;" horiz-adv-x="700" 
d="M433 310h246v-310h-642v152c32 20 29 52 29 84v385c0 32 3 64 -29 84v152h642v-290h-246v26c0 58 -8 82 -80 82h-16v-153h169v-167h-169v-173h16c80 0 79 30 80 100v28zM297 1087h165l-103 -156h-113z" />
    <glyph glyph-name="Ecircumflex" unicode="&#xca;" horiz-adv-x="700" 
d="M433 310h246v-310h-642v152c32 20 29 52 29 84v385c0 32 3 64 -29 84v152h642v-290h-246v26c0 58 -8 82 -80 82h-16v-153h169v-167h-169v-173h16c80 0 79 30 80 100v28zM515 928h-136l-34 68l-34 -68h-135l107 156h125z" />
    <glyph glyph-name="Edieresis" unicode="&#xcb;" horiz-adv-x="700" 
d="M433 310h246v-310h-642v152c32 20 29 52 29 84v385c0 32 3 64 -29 84v152h642v-290h-246v26c0 58 -8 82 -80 82h-16v-153h169v-167h-169v-173h16c80 0 79 30 80 100v28zM548 1008c0 -49 -37 -87 -87 -87c-47 0 -82 41 -82 87c0 44 39 82 83 82c45 0 86 -35 86 -82z
M324 1008c0 -49 -37 -87 -87 -87c-47 0 -82 41 -82 87c0 44 39 82 83 82c45 0 86 -35 86 -82z" />
    <glyph glyph-name="Egrave" unicode="&#xc8;" horiz-adv-x="700" 
d="M433 310h246v-310h-642v152c32 20 29 52 29 84v385c0 32 3 64 -29 84v152h642v-290h-246v26c0 58 -8 82 -80 82h-16v-153h169v-167h-169v-173h16c80 0 79 30 80 100v28zM411 1087l51 -156h-114l-102 156h165z" />
    <glyph glyph-name="Iacute" unicode="&#xcd;" horiz-adv-x="400" 
d="M67 236v385c0 32 3 64 -29 84v152h325v-152c-32 -20 -29 -52 -29 -84v-385c0 -32 -3 -64 29 -84v-152h-325v152c32 20 29 52 29 84zM147 1087h165l-103 -156h-113z" />
    <glyph glyph-name="Icircumflex" unicode="&#xce;" horiz-adv-x="400" 
d="M67 236v385c0 32 3 64 -29 84v152h325v-152c-32 -20 -29 -52 -29 -84v-385c0 -32 -3 -64 29 -84v-152h-325v152c32 20 29 52 29 84zM365 928h-136l-34 68l-34 -68h-135l107 156h125z" />
    <glyph glyph-name="Idieresis" unicode="&#xcf;" horiz-adv-x="400" 
d="M67 236v385c0 32 3 64 -29 84v152h325v-152c-32 -20 -29 -52 -29 -84v-385c0 -32 -3 -64 29 -84v-152h-325v152c32 20 29 52 29 84zM398 1008c0 -49 -37 -87 -87 -87c-47 0 -82 41 -82 87c0 44 39 82 83 82c45 0 86 -35 86 -82zM174 1008c0 -49 -37 -87 -87 -87
c-47 0 -82 41 -82 87c0 44 39 82 83 82c45 0 86 -35 86 -82z" />
    <glyph glyph-name="Igrave" unicode="&#xcc;" horiz-adv-x="400" 
d="M67 236v385c0 32 3 64 -29 84v152h325v-152c-32 -20 -29 -52 -29 -84v-385c0 -32 -3 -64 29 -84v-152h-325v152c32 20 29 52 29 84zM261 1087l51 -156h-114l-102 156h165z" />
    <glyph glyph-name="Ntilde" unicode="&#xd1;" horiz-adv-x="780" 
d="M337 857l149 -387h2v151c0 32 3 64 -29 84v152h274v-152c-32 -20 -29 -52 -29 -84v-621h-259l-159 385h-2v-149c0 -32 -3 -64 29 -84v-152h-266v152c32 20 29 52 29 84v385c0 32 3 64 -29 84v152h290zM492 1062h87c-9 -59 -50 -126 -116 -126c-30 0 -62 8 -90 16
c-51 8 -61 14 -78 -11h-89c9 60 59 123 123 123c23 0 53 -5 75 -11c73 -19 72 -7 88 9z" />
    <glyph glyph-name="Oacute" unicode="&#xd3;" horiz-adv-x="720" 
d="M679 609v-361c0 -212 -130 -265 -319 -265s-319 53 -319 265v361c0 212 130 265 319 265s319 -53 319 -265zM308 623v-388c0 -6 -3 -67 52 -67s52 61 52 67v388c0 6 3 66 -52 66s-52 -60 -52 -66zM307 1087h165l-103 -156h-113z" />
    <glyph glyph-name="Ocircumflex" unicode="&#xd4;" horiz-adv-x="720" 
d="M679 609v-361c0 -212 -130 -265 -319 -265s-319 53 -319 265v361c0 212 130 265 319 265s319 -53 319 -265zM308 623v-388c0 -6 -3 -67 52 -67s52 61 52 67v388c0 6 3 66 -52 66s-52 -60 -52 -66zM525 928h-136l-34 68l-34 -68h-135l107 156h125z" />
    <glyph glyph-name="Odieresis" unicode="&#xd6;" horiz-adv-x="720" 
d="M679 609v-361c0 -212 -130 -265 -319 -265s-319 53 -319 265v361c0 212 130 265 319 265s319 -53 319 -265zM308 623v-388c0 -6 -3 -67 52 -67s52 61 52 67v388c0 6 3 66 -52 66s-52 -60 -52 -66zM558 1008c0 -49 -37 -87 -87 -87c-47 0 -82 41 -82 87c0 44 39 82 83 82
c45 0 86 -35 86 -82zM334 1008c0 -49 -37 -87 -87 -87c-47 0 -82 41 -82 87c0 44 39 82 83 82c45 0 86 -35 86 -82z" />
    <glyph glyph-name="Ograve" unicode="&#xd2;" horiz-adv-x="720" 
d="M679 609v-361c0 -212 -130 -265 -319 -265s-319 53 -319 265v361c0 212 130 265 319 265s319 -53 319 -265zM308 623v-388c0 -6 -3 -67 52 -67s52 61 52 67v388c0 6 3 66 -52 66s-52 -60 -52 -66zM421 1087l51 -156h-114l-102 156h165z" />
    <glyph glyph-name="Otilde" unicode="&#xd5;" horiz-adv-x="720" 
d="M679 609v-361c0 -212 -130 -265 -319 -265s-319 53 -319 265v361c0 212 130 265 319 265s319 -53 319 -265zM308 623v-388c0 -6 -3 -67 52 -67s52 61 52 67v388c0 6 3 66 -52 66s-52 -60 -52 -66zM462 1062h87c-9 -59 -50 -126 -116 -126c-30 0 -62 8 -90 16
c-51 8 -61 14 -78 -11h-89c9 60 59 123 123 123c23 0 53 -5 75 -11c73 -19 72 -7 88 9z" />
    <glyph glyph-name="Scaron" unicode="&#x160;" horiz-adv-x="720" 
d="M410 582v16c0 38 -1 91 -53 91c-34 0 -52 -25 -52 -57c0 -17 2 -34 16 -48c15 -16 53 -28 75 -34c64 -17 150 -40 204 -76c31 -21 54 -46 66 -82c14 -37 20 -78 20 -118v-4c0 -165 -73 -287 -328 -287c-109 0 -224 21 -311 90v230h261c0 -51 -1 -89 8 -107
c9 -17 28 -28 48 -28c36 0 52 35 52 66c0 88 -55 95 -129 113c-162 40 -253 79 -253 264v19c4 92 19 138 89 191c57 43 140 53 220 53c116 0 219 -23 316 -90v-202h-249zM191 1081h136l34 -68l34 68h135l-107 -156h-125z" />
    <glyph glyph-name="Uacute" unicode="&#xda;" horiz-adv-x="740" 
d="M403 705v152h310v-152c-36 -20 -33 -52 -33 -84v-347c-2 -91 -9 -163 -82 -227c-63 -55 -150 -64 -227 -64s-164 9 -227 64c-73 64 -80 136 -82 227v347c0 32 3 64 -29 84v152h325v-152c-32 -20 -29 -52 -29 -84v-391c0 -17 4 -61 53 -61s53 44 53 61v391
c-1 32 2 64 -32 84zM317 1087h165l-103 -156h-113z" />
    <glyph glyph-name="Ucircumflex" unicode="&#xdb;" horiz-adv-x="740" 
d="M403 705v152h310v-152c-36 -20 -33 -52 -33 -84v-347c-2 -91 -9 -163 -82 -227c-63 -55 -150 -64 -227 -64s-164 9 -227 64c-73 64 -80 136 -82 227v347c0 32 3 64 -29 84v152h325v-152c-32 -20 -29 -52 -29 -84v-391c0 -17 4 -61 53 -61s53 44 53 61v391
c-1 32 2 64 -32 84zM535 928h-136l-34 68l-34 -68h-135l107 156h125z" />
    <glyph glyph-name="Udieresis" unicode="&#xdc;" horiz-adv-x="740" 
d="M403 705v152h310v-152c-36 -20 -33 -52 -33 -84v-347c-2 -91 -9 -163 -82 -227c-63 -55 -150 -64 -227 -64s-164 9 -227 64c-73 64 -80 136 -82 227v347c0 32 3 64 -29 84v152h325v-152c-32 -20 -29 -52 -29 -84v-391c0 -17 4 -61 53 -61s53 44 53 61v391
c-1 32 2 64 -32 84zM568 1008c0 -49 -37 -87 -87 -87c-47 0 -82 41 -82 87c0 44 39 82 83 82c45 0 86 -35 86 -82zM344 1008c0 -49 -37 -87 -87 -87c-47 0 -82 41 -82 87c0 44 39 82 83 82c45 0 86 -35 86 -82z" />
    <glyph glyph-name="Ugrave" unicode="&#xd9;" horiz-adv-x="740" 
d="M403 705v152h310v-152c-36 -20 -33 -52 -33 -84v-347c-2 -91 -9 -163 -82 -227c-63 -55 -150 -64 -227 -64s-164 9 -227 64c-73 64 -80 136 -82 227v347c0 32 3 64 -29 84v152h325v-152c-32 -20 -29 -52 -29 -84v-391c0 -17 4 -61 53 -61s53 44 53 61v391
c-1 32 2 64 -32 84zM431 1087l51 -156h-114l-102 156h165z" />
    <glyph glyph-name="Yacute" unicode="&#xdd;" horiz-adv-x="700" 
d="M211 320l-147 299c-15 31 -26 67 -55 86v152h306v-111c0 -62 18 -104 49 -158c31 54 49 96 49 158v111h269v-152c-26 -18 -33 -31 -47 -62l-157 -305v-102c0 -32 -3 -64 29 -84v-152h-325v152c16 10 23 23 27 38c3 14 2 30 2 46v84zM297 1087h165l-103 -156h-113z" />
    <glyph glyph-name="Ydieresis" unicode="&#x178;" horiz-adv-x="700" 
d="M211 320l-147 299c-15 31 -26 67 -55 86v152h306v-111c0 -62 18 -104 49 -158c31 54 49 96 49 158v111h269v-152c-26 -18 -33 -31 -47 -62l-157 -305v-102c0 -32 -3 -64 29 -84v-152h-325v152c16 10 23 23 27 38c3 14 2 30 2 46v84zM548 1008c0 -49 -37 -87 -87 -87
c-47 0 -82 41 -82 87c0 44 39 82 83 82c45 0 86 -35 86 -82zM324 1008c0 -49 -37 -87 -87 -87c-47 0 -82 41 -82 87c0 44 39 82 83 82c45 0 86 -35 86 -82z" />
    <glyph glyph-name="Zcaron" unicode="&#x17d;" horiz-adv-x="740" 
d="M686 857v-149l-327 -524h41c80 0 96 26 96 100v76h196v-360h-656v155l326 518h-35c-93 0 -93 -34 -93 -114v-43h-192v341h644zM201 1081h136l34 -68l34 68h135l-107 -156h-125z" />
    <glyph glyph-name="aacute" unicode="&#xe1;" horiz-adv-x="640" 
d="M355 181v87c-42 -17 -98 -27 -98 -71c0 -20 13 -43 34 -39c20 0 42 7 64 23zM364 0v48c-50 -42 -99 -61 -164 -61c-110 0 -179 69 -179 180c0 126 76 163 182 198l152 49v22c0 31 -8 62 -41 62c-38 0 -46 -31 -46 -62v-26h-221v155c81 58 183 78 281 78
c63 0 144 -10 197 -50c66 -52 67 -118 66 -191v-176c0 -33 -3 -62 29 -85v-141h-256zM267 860h165l-103 -156h-113z" />
    <glyph glyph-name="acircumflex" unicode="&#xe2;" horiz-adv-x="640" 
d="M355 181v87c-42 -17 -98 -27 -98 -71c0 -20 13 -43 34 -39c20 0 42 7 64 23zM364 0v48c-50 -42 -99 -61 -164 -61c-110 0 -179 69 -179 180c0 126 76 163 182 198l152 49v22c0 31 -8 62 -41 62c-38 0 -46 -31 -46 -62v-26h-221v155c81 58 183 78 281 78
c63 0 144 -10 197 -50c66 -52 67 -118 66 -191v-176c0 -33 -3 -62 29 -85v-141h-256zM485 701h-136l-34 68l-34 -68h-135l107 156h125z" />
    <glyph glyph-name="adieresis" unicode="&#xe4;" horiz-adv-x="640" 
d="M355 181v87c-42 -17 -98 -27 -98 -71c0 -20 13 -43 34 -39c20 0 42 7 64 23zM364 0v48c-50 -42 -99 -61 -164 -61c-110 0 -179 69 -179 180c0 126 76 163 182 198l152 49v22c0 31 -8 62 -41 62c-38 0 -46 -31 -46 -62v-26h-221v155c81 58 183 78 281 78
c63 0 144 -10 197 -50c66 -52 67 -118 66 -191v-176c0 -33 -3 -62 29 -85v-141h-256zM518 781c0 -49 -37 -87 -87 -87c-47 0 -82 41 -82 87c0 44 39 82 83 82c45 0 86 -35 86 -82zM294 781c0 -49 -37 -87 -87 -87c-47 0 -82 41 -82 87c0 44 39 82 83 82c45 0 86 -35 86 -82z
" />
    <glyph glyph-name="agrave" unicode="&#xe0;" horiz-adv-x="640" 
d="M355 181v87c-42 -17 -98 -27 -98 -71c0 -20 13 -43 34 -39c20 0 42 7 64 23zM364 0v48c-50 -42 -99 -61 -164 -61c-110 0 -179 69 -179 180c0 126 76 163 182 198l152 49v22c0 31 -8 62 -41 62c-38 0 -46 -31 -46 -62v-26h-221v155c81 58 183 78 281 78
c63 0 144 -10 197 -50c66 -52 67 -118 66 -191v-176c0 -33 -3 -62 29 -85v-141h-256zM381 860l51 -156h-114l-102 156h165z" />
    <glyph glyph-name="aring" unicode="&#xe5;" horiz-adv-x="640" 
d="M355 181v87c-42 -17 -98 -27 -98 -71c0 -20 13 -43 34 -39c20 0 42 7 64 23zM364 0v48c-50 -42 -99 -61 -164 -61c-110 0 -179 69 -179 180c0 126 76 163 182 198l152 49v22c0 31 -8 62 -41 62c-38 0 -46 -31 -46 -62v-26h-221v155c81 58 183 78 281 78
c63 0 144 -10 197 -50c66 -52 67 -118 66 -191v-176c0 -33 -3 -62 29 -85v-141h-256zM440 796c0 -65 -54 -121 -122 -121s-122 56 -122 121s54 121 122 121s122 -56 122 -121zM356 796c0 22 -19 37 -39 37s-37 -16 -37 -37s17 -37 37 -37s39 15 39 37z" />
    <glyph glyph-name="atilde" unicode="&#xe3;" horiz-adv-x="640" 
d="M355 181v87c-42 -17 -98 -27 -98 -71c0 -20 13 -43 34 -39c20 0 42 7 64 23zM364 0v48c-50 -42 -99 -61 -164 -61c-110 0 -179 69 -179 180c0 126 76 163 182 198l152 49v22c0 31 -8 62 -41 62c-38 0 -46 -31 -46 -62v-26h-221v155c81 58 183 78 281 78
c63 0 144 -10 197 -50c66 -52 67 -118 66 -191v-176c0 -33 -3 -62 29 -85v-141h-256zM422 835h87c-9 -59 -50 -126 -116 -126c-30 0 -62 8 -90 16c-51 8 -61 14 -78 -11h-89c9 60 59 123 123 123c23 0 53 -5 75 -11c73 -19 72 -7 88 9z" />
    <glyph glyph-name="ccedilla" unicode="&#xe7;" horiz-adv-x="620" 
d="M309 -13v-25h23c24 0 32 -13 32 -32v-109c0 -27 -13 -57 -39 -57h-113v85h67v57h-19c-16 0 -32 8 -32 31v56c-94 14 -142 53 -166 97c-24 45 -24 94 -24 128v210c0 134 49 215 262 215c99 0 202 -17 282 -78v-172h-221v20c0 30 3 83 -43 83c-45 0 -44 -47 -44 -79v-201
c0 -32 -1 -82 44 -82c50 0 43 69 43 101v33h221v-195c-67 -67 -183 -86 -273 -86z" />
    <glyph glyph-name="eacute" unicode="&#xe9;" horiz-adv-x="620" 
d="M30 230v171c-4 172 54 241 275 242c232 1 289 -76 285 -230v-149h-324v-58c-1 -31 3 -72 44 -72s44 37 44 69v23h236v-158c-52 -45 -149 -74 -246 -81c-96 -7 -193 9 -245 48c-66 49 -69 119 -69 195zM358 408v24c0 25 -4 64 -46 64s-46 -39 -46 -64v-24h92zM257 860h165
l-103 -156h-113z" />
    <glyph glyph-name="ecircumflex" unicode="&#xea;" horiz-adv-x="620" 
d="M30 230v171c-4 172 54 241 275 242c232 1 289 -76 285 -230v-149h-324v-58c-1 -31 3 -72 44 -72s44 37 44 69v23h236v-158c-52 -45 -149 -74 -246 -81c-96 -7 -193 9 -245 48c-66 49 -69 119 -69 195zM358 408v24c0 25 -4 64 -46 64s-46 -39 -46 -64v-24h92zM475 701
h-136l-34 68l-34 -68h-135l107 156h125z" />
    <glyph glyph-name="edieresis" unicode="&#xeb;" horiz-adv-x="620" 
d="M30 230v171c-4 172 54 241 275 242c232 1 289 -76 285 -230v-149h-324v-58c-1 -31 3 -72 44 -72s44 37 44 69v23h236v-158c-52 -45 -149 -74 -246 -81c-96 -7 -193 9 -245 48c-66 49 -69 119 -69 195zM358 408v24c0 25 -4 64 -46 64s-46 -39 -46 -64v-24h92zM498 781
c0 -49 -37 -87 -87 -87c-47 0 -82 41 -82 87c0 44 39 82 83 82c45 0 86 -35 86 -82zM274 781c0 -49 -37 -87 -87 -87c-47 0 -82 41 -82 87c0 44 39 82 83 82c45 0 86 -35 86 -82z" />
    <glyph glyph-name="egrave" unicode="&#xe8;" horiz-adv-x="620" 
d="M30 230v171c-4 172 54 241 275 242c232 1 289 -76 285 -230v-149h-324v-58c-1 -31 3 -72 44 -72s44 37 44 69v23h236v-158c-52 -45 -149 -74 -246 -81c-96 -7 -193 9 -245 48c-66 49 -69 119 -69 195zM358 408v24c0 25 -4 64 -46 64s-46 -39 -46 -64v-24h92zM371 860
l51 -156h-114l-102 156h165z" />
    <glyph glyph-name="iacute" unicode="&#xed;" 
d="M289 630v-406c0 -32 -2 -64 29 -83v-141h-294v141c31 19 29 47 29 79v186c0 32 3 64 -29 83v141h265zM117 860h165l-103 -156h-113z" />
    <glyph glyph-name="icircumflex" unicode="&#xee;" 
d="M289 630v-406c0 -32 -2 -64 29 -83v-141h-294v141c31 19 29 47 29 79v186c0 32 3 64 -29 83v141h265zM335 701h-136l-34 68l-34 -68h-135l107 156h125z" />
    <glyph glyph-name="idieresis" unicode="&#xef;" 
d="M289 630v-406c0 -32 -2 -64 29 -83v-141h-294v141c31 19 29 47 29 79v186c0 32 3 64 -29 83v141h265zM368 781c0 -49 -37 -87 -87 -87c-47 0 -82 41 -82 87c0 44 39 82 83 82c45 0 86 -35 86 -82zM144 781c0 -49 -37 -87 -87 -87c-47 0 -82 41 -82 87c0 44 39 82 83 82
c45 0 86 -35 86 -82z" />
    <glyph glyph-name="igrave" unicode="&#xec;" 
d="M289 630v-406c0 -32 -2 -64 29 -83v-141h-294v141c31 19 29 47 29 79v186c0 32 3 64 -29 83v141h265zM211 860l51 -156h-114l-102 156h165z" />
    <glyph glyph-name="ntilde" unicode="&#xf1;" horiz-adv-x="680" 
d="M287 630v-39c64 43 120 54 170 52c49 -2 92 -18 116 -42c43 -41 48 -87 48 -141v-236c0 -31 -3 -66 28 -83v-141h-251c-14 64 -13 131 -13 196v184c0 4 3 33 -7 56c-16 24 -42 42 -81 24v-236c0 -31 -3 -66 29 -83v-141h-294v141c31 18 29 47 29 79v191c0 34 1 56 -29 78
v141h255zM442 835h87c-9 -59 -50 -126 -116 -126c-30 0 -62 8 -90 16c-51 8 -61 14 -78 -11h-89c9 60 59 123 123 123c23 0 53 -5 75 -11c73 -19 72 -7 88 9z" />
    <glyph glyph-name="oacute" unicode="&#xf3;" horiz-adv-x="619" 
d="M590 404v-164c0 -70 -2 -149 -59 -198s-141 -55 -213 -55c-65 0 -157 5 -212 42c-77 51 -77 128 -77 211v164c0 68 1 142 60 188c57 45 134 51 205 51c64 0 160 -5 215 -37c76 -46 81 -122 81 -202zM265 402v-182c0 -34 -3 -86 44 -86c48 0 45 52 45 86v182
c0 34 7 94 -44 94s-45 -59 -45 -94zM257 860h165l-103 -156h-113z" />
    <glyph glyph-name="ocircumflex" unicode="&#xf4;" horiz-adv-x="619" 
d="M590 404v-164c0 -70 -2 -149 -59 -198s-141 -55 -213 -55c-65 0 -157 5 -212 42c-77 51 -77 128 -77 211v164c0 68 1 142 60 188c57 45 134 51 205 51c64 0 160 -5 215 -37c76 -46 81 -122 81 -202zM265 402v-182c0 -34 -3 -86 44 -86c48 0 45 52 45 86v182
c0 34 7 94 -44 94s-45 -59 -45 -94zM475 701h-136l-34 68l-34 -68h-135l107 156h125z" />
    <glyph glyph-name="odieresis" unicode="&#xf6;" horiz-adv-x="619" 
d="M590 404v-164c0 -70 -2 -149 -59 -198s-141 -55 -213 -55c-65 0 -157 5 -212 42c-77 51 -77 128 -77 211v164c0 68 1 142 60 188c57 45 134 51 205 51c64 0 160 -5 215 -37c76 -46 81 -122 81 -202zM265 402v-182c0 -34 -3 -86 44 -86c48 0 45 52 45 86v182
c0 34 7 94 -44 94s-45 -59 -45 -94zM508 781c0 -49 -37 -87 -87 -87c-47 0 -82 41 -82 87c0 44 39 82 83 82c45 0 86 -35 86 -82zM284 781c0 -49 -37 -87 -87 -87c-47 0 -82 41 -82 87c0 44 39 82 83 82c45 0 86 -35 86 -82z" />
    <glyph glyph-name="ograve" unicode="&#xf2;" horiz-adv-x="619" 
d="M590 404v-164c0 -70 -2 -149 -59 -198s-141 -55 -213 -55c-65 0 -157 5 -212 42c-77 51 -77 128 -77 211v164c0 68 1 142 60 188c57 45 134 51 205 51c64 0 160 -5 215 -37c76 -46 81 -122 81 -202zM265 402v-182c0 -34 -3 -86 44 -86c48 0 45 52 45 86v182
c0 34 7 94 -44 94s-45 -59 -45 -94zM371 860l51 -156h-114l-102 156h165z" />
    <glyph glyph-name="otilde" unicode="&#xf5;" horiz-adv-x="619" 
d="M590 404v-164c0 -70 -2 -149 -59 -198s-141 -55 -213 -55c-65 0 -157 5 -212 42c-77 51 -77 128 -77 211v164c0 68 1 142 60 188c57 45 134 51 205 51c64 0 160 -5 215 -37c76 -46 81 -122 81 -202zM265 402v-182c0 -34 -3 -86 44 -86c48 0 45 52 45 86v182
c0 34 7 94 -44 94s-45 -59 -45 -94zM412 835h87c-9 -59 -50 -126 -116 -126c-30 0 -62 8 -90 16c-51 8 -61 14 -78 -11h-89c9 60 59 123 123 123c23 0 53 -5 75 -11c73 -19 72 -7 88 9z" />
    <glyph glyph-name="scaron" unicode="&#x161;" horiz-adv-x="600" 
d="M255 235v-15c0 -36 -4 -86 47 -86c25 0 45 21 45 48c0 57 -72 66 -114 76c-113 26 -211 46 -211 184c0 66 16 119 73 158c50 33 123 43 182 43c100 0 203 -20 284 -82v-150h-219v23c0 29 -9 62 -47 62c-25 0 -46 -19 -46 -43c0 -45 60 -53 94 -60
c123 -26 235 -46 235 -200c0 -164 -127 -206 -269 -206c-89 0 -209 21 -276 85v163h222zM131 854h136l34 -68l34 68h135l-107 -156h-125z" />
    <glyph glyph-name="uacute" unicode="&#xfa;" horiz-adv-x="660" 
d="M39 231v175c0 34 2 60 -28 83v141h251c10 -39 13 -80 13 -120v-249c0 -37 -5 -100 49 -100c15 0 26 5 38 11v234c1 32 3 64 -29 83v141h265v-406c0 -33 -3 -63 29 -83v-141h-255v41c-49 -37 -102 -54 -163 -54c-58 0 -119 21 -148 74c-27 48 -22 116 -22 170zM277 860
h165l-103 -156h-113z" />
    <glyph glyph-name="ucircumflex" unicode="&#xfb;" horiz-adv-x="660" 
d="M39 231v175c0 34 2 60 -28 83v141h251c10 -39 13 -80 13 -120v-249c0 -37 -5 -100 49 -100c15 0 26 5 38 11v234c1 32 3 64 -29 83v141h265v-406c0 -33 -3 -63 29 -83v-141h-255v41c-49 -37 -102 -54 -163 -54c-58 0 -119 21 -148 74c-27 48 -22 116 -22 170zM495 701
h-136l-34 68l-34 -68h-135l107 156h125z" />
    <glyph glyph-name="udieresis" unicode="&#xfc;" horiz-adv-x="660" 
d="M39 231v175c0 34 2 60 -28 83v141h251c10 -39 13 -80 13 -120v-249c0 -37 -5 -100 49 -100c15 0 26 5 38 11v234c1 32 3 64 -29 83v141h265v-406c0 -33 -3 -63 29 -83v-141h-255v41c-49 -37 -102 -54 -163 -54c-58 0 -119 21 -148 74c-27 48 -22 116 -22 170zM518 781
c0 -49 -37 -87 -87 -87c-47 0 -82 41 -82 87c0 44 39 82 83 82c45 0 86 -35 86 -82zM294 781c0 -49 -37 -87 -87 -87c-47 0 -82 41 -82 87c0 44 39 82 83 82c45 0 86 -35 86 -82z" />
    <glyph glyph-name="ugrave" unicode="&#xf9;" horiz-adv-x="660" 
d="M39 231v175c0 34 2 60 -28 83v141h251c10 -39 13 -80 13 -120v-249c0 -37 -5 -100 49 -100c15 0 26 5 38 11v234c1 32 3 64 -29 83v141h265v-406c0 -33 -3 -63 29 -83v-141h-255v41c-49 -37 -102 -54 -163 -54c-58 0 -119 21 -148 74c-27 48 -22 116 -22 170zM371 860
l51 -156h-114l-102 156h165z" />
    <glyph glyph-name="yacute" unicode="&#xfd;" horiz-adv-x="620" 
d="M356 489v141h257v-141c-28 -19 -35 -58 -44 -89l-112 -379c-39 -134 -71 -247 -236 -247c-37 0 -73 4 -109 14v137c45 0 77 15 93 59l-153 434c-11 31 -16 55 -44 71v141h301v-141c-15 -7 -26 -11 -26 -30c0 -11 6 -31 8 -41l46 -149l37 149c2 10 8 30 8 41
c0 19 -11 23 -26 30zM257 860h165l-103 -156h-113z" />
    <glyph glyph-name="ydieresis" unicode="&#xff;" horiz-adv-x="620" 
d="M356 489v141h257v-141c-28 -19 -35 -58 -44 -89l-112 -379c-39 -134 -71 -247 -236 -247c-37 0 -73 4 -109 14v137c45 0 77 15 93 59l-153 434c-11 31 -16 55 -44 71v141h301v-141c-15 -7 -26 -11 -26 -30c0 -11 6 -31 8 -41l46 -149l37 149c2 10 8 30 8 41
c0 19 -11 23 -26 30zM508 781c0 -49 -37 -87 -87 -87c-47 0 -82 41 -82 87c0 44 39 82 83 82c45 0 86 -35 86 -82zM284 781c0 -49 -37 -87 -87 -87c-47 0 -82 41 -82 87c0 44 39 82 83 82c45 0 86 -35 86 -82z" />
    <glyph glyph-name="zcaron" unicode="&#x17e;" horiz-adv-x="600" 
d="M19 0v149l263 337h-23c-19 0 -54 4 -64 -17c-7 -15 -8 -45 -8 -58v-15h-164v234h552v-142l-267 -339h24c20 0 55 -3 66 17c9 15 10 43 10 60v19h173v-245h-562zM131 854h136l34 -68l34 68h135l-107 -156h-125z" />
    <glyph glyph-name="Delta" unicode="&#x2206;" horiz-adv-x="808" 
d="M26 0v121l250 752h267l236 -748v-125h-753zM256 179h286l-85 244c-15 66 -44 163 -55 213h-3c-9 -41 -36 -126 -53 -196z" />
    <glyph glyph-name="Omega" unicode="&#x2126;" horiz-adv-x="840" 
d="M176 179v4c-60 63 -129 168 -129 308c0 190 140 381 375 381c254 0 366 -220 366 -370c0 -138 -64 -250 -131 -319v-4h149v-179h-350v132c56 36 107 125 107 320c0 142 -50 234 -142 234c-89 0 -148 -96 -148 -244c0 -172 48 -276 108 -310v-132h-351v179h146z" />
    <glyph glyph-name="pi" unicode="&#x3c0;" horiz-adv-x="770" 
d="M745 463h-72v-280c0 -77 5 -139 14 -183h-215c-17 32 -22 106 -22 178v285h-110c-4 -104 -26 -322 -66 -463h-215c36 156 64 360 63 463c-40 0 -74 -2 -102 -9l-20 149c31 28 108 49 224 49h537z" />
    <glyph glyph-name="Euro" unicode="&#x20ac;" horiz-adv-x="700" 
d="M674 74c-68 -57 -162 -91 -282 -91s-206 20 -259 71c-32 31 -53 70 -62 117c-5 26 -8 46 -8 133v22h-37v93h37v41h-37v93h37v52c0 96 24 164 72 204c57 48 140 65 249 65c108 0 205 -36 290 -93v-189h-253v11c0 32 -1 43 -3 52c-6 23 -22 34 -45 34
c-24 0 -38 -11 -44 -34c-2 -9 -4 -29 -4 -61v-41h151v-93h-151v-41h151v-93h-151v-63c0 -32 2 -52 4 -61c6 -23 20 -34 44 -34c23 0 39 11 45 34c2 9 3 41 3 73v17h253v-218z" />
    <glyph glyph-name="estimated" unicode="&#x212e;" horiz-adv-x="1074" 
d="M1032 416h-802c-4 0 -6 -1 -6 -5v-243c0 -10 4 -19 10 -27c78 -81 185 -132 303 -132c128 0 241 58 319 147h71c-88 -104 -232 -172 -391 -172c-273 0 -494 199 -494 444c0 246 221 446 494 446c274 0 496 -200 496 -446v-12zM850 448v244c0 10 -4 21 -12 29
c-78 76 -183 126 -301 126c-117 0 -224 -51 -302 -130c-7 -8 -11 -19 -11 -31v-238c0 -3 2 -8 6 -8h614c4 0 6 5 6 8z" />
    <glyph glyph-name="partialdiff" unicode="&#x2202;" horiz-adv-x="734" 
d="M128 734l-56 168c35 26 114 73 243 73c199 0 364 -165 364 -472c0 -325 -143 -514 -368 -514c-183 0 -271 173 -271 299c0 204 114 331 267 331c85 0 137 -51 154 -76h1v28c0 89 -56 221 -178 221c-73 0 -126 -33 -156 -58zM334 174h2c64 0 100 125 108 198
c-4 23 -35 69 -89 69c-65 0 -97 -84 -97 -165c0 -52 30 -102 76 -102z" />
    <glyph glyph-name="product" unicode="&#x220f;" horiz-adv-x="904" 
d="M875 657h-113v-776h-220v776h-180v-776h-221v776h-113v202h847v-202z" />
    <glyph glyph-name="summation" unicode="&#x2211;" horiz-adv-x="683" 
d="M664 -119h-635v140l257 352l-250 331v155h608v-187h-316v-4l205 -256l-237 -321v-4h368v-206z" />
    <glyph glyph-name="uni2219" unicode="&#x2219;" 
d="M170 200c-62 0 -115 49 -115 115s53 115 115 115c64 0 115 -49 115 -115s-51 -115 -115 -115z" />
    <glyph glyph-name="radical" unicode="&#x221a;" horiz-adv-x="749" 
d="M768 1041l-275 -1200h-170l-165 504l-89 -37l-33 120l251 103l94 -318c10 -48 21 -93 28 -125l2 -2c5 31 11 85 22 142l186 813h149z" />
    <glyph glyph-name="infinity" unicode="&#x221e;" horiz-adv-x="952" 
d="M896 353v-1c0 -147 -102 -230 -206 -230c-64 0 -135 15 -212 131c-62 -81 -124 -131 -221 -131c-103 0 -203 85 -203 223c0 136 94 226 215 226c90 0 151 -39 212 -125c39 45 99 126 214 125c108 -1 201 -84 201 -218zM271 236h2c58 0 100 46 143 103
c-46 68 -76 120 -146 120c-62 0 -101 -43 -102 -115c0 -59 47 -108 103 -108zM684 459h-1c-66 0 -110 -64 -145 -109c66 -94 97 -114 153 -114c59 0 91 64 91 107c0 61 -36 116 -98 116z" />
    <glyph glyph-name="integral" unicode="&#x222b;" horiz-adv-x="532" 
d="M498 1063l-18 -151c-13 5 -24 8 -42 8c-26 0 -45 -10 -59 -33c-21 -31 -24 -104 -24 -193c0 -208 19 -320 19 -562c0 -100 -11 -189 -36 -244c-40 -86 -121 -116 -195 -116c-46 0 -88 10 -109 20l23 157c13 -5 28 -11 50 -11c19 0 38 4 50 21c18 27 24 76 24 169
c0 247 -20 361 -20 587c0 152 24 233 81 295c40 45 109 65 172 65c37 0 68 -6 84 -12z" />
    <glyph glyph-name="approxequal" unicode="&#x2248;" horiz-adv-x="651" 
d="M539 581l73 -68c-43 -84 -110 -137 -173 -137c-48 0 -79 11 -129 45c-34 24 -58 41 -96 41c-51 0 -76 -45 -105 -84l-73 69c35 71 106 134 186 134c58 0 91 -22 120 -39c44 -29 66 -46 95 -46c44 0 71 39 102 85zM539 333l73 -69c-42 -82 -108 -137 -175 -137
c-46 0 -79 15 -127 46c-36 25 -59 42 -96 42c-51 0 -75 -45 -105 -86l-73 69c35 71 106 135 185 135c59 0 93 -22 120 -39c37 -22 63 -46 95 -46c46 0 70 38 103 85z" />
    <glyph glyph-name="notequal" unicode="&#x2260;" horiz-adv-x="651" 
d="M497 640l-39 -94h138v-122h-182l-61 -152h243v-121h-288l-55 -133l-94 36l40 97h-144v121h188l61 152h-249v122h293l54 130z" />
    <glyph glyph-name="lessequal" unicode="&#x2264;" horiz-adv-x="651" 
d="M593 126l-533 270v133l533 269v-140l-418 -194v-3l418 -195v-140zM599 -40h-542v125h542v-125z" />
    <glyph glyph-name="greaterequal" unicode="&#x2265;" horiz-adv-x="651" 
d="M64 798l533 -270v-133l-533 -269v140l418 196v2l-418 194v140zM596 -40h-538v125h538v-125z" />
    <glyph glyph-name="lozenge" unicode="&#x25ca;" horiz-adv-x="746" 
d="M692 429l-236 -494h-176l-225 494l235 494h177zM500 424l-99 237c-9 26 -19 59 -23 85h-5c-5 -27 -15 -59 -23 -85l-103 -228l101 -244c7 -24 16 -60 20 -78h7c4 19 16 64 20 74z" />
    <glyph glyph-name="uni02C9" unicode="&#x2c9;" 
d="M400 888v-78h-328v78h328z" />
    <glyph glyph-name="uni00AD" unicode="&#xad;" 
d="M340 239h-340v202h340v-202z" />
    <glyph glyph-name="uni03A9" unicode="&#x3a9;" horiz-adv-x="840" 
d="M176 179v4c-60 63 -129 168 -129 308c0 190 140 381 375 381c254 0 366 -220 366 -370c0 -138 -64 -250 -131 -319v-4h149v-179h-350v132c56 36 107 125 107 320c0 142 -50 234 -142 234c-89 0 -148 -96 -148 -244c0 -172 48 -276 108 -310v-132h-351v179h146z" />
    <glyph glyph-name="uni00A0" unicode="&#xa0;" 
 />
    <glyph glyph-name="afii61289" unicode="&#x2113;" horiz-adv-x="660" 
d="M562 267l83 -92c-74 -150 -183 -189 -279 -189c-154 0 -220 80 -239 176c0 3 0 7 -1 11c-18 -13 -37 -29 -56 -41l-50 113c38 31 72 55 103 85v281c0 213 104 330 251 330c133 0 190 -106 190 -238c0 -134 -84 -262 -226 -398l1 -66c3 -40 32 -76 81 -76
c53 0 104 50 142 104zM338 608v-107c59 75 94 164 94 216c0 46 -11 69 -44 69c-26 0 -50 -33 -50 -178z" />
    <glyph glyph-name="uni03BC" unicode="&#x3bc;" horiz-adv-x="660" 
d="M39 111v295c0 34 2 60 -28 83v141h251c10 -39 13 -80 13 -120v-249c0 -37 -5 -100 49 -100c15 0 26 5 38 11v234c1 32 3 64 -29 83v141h265v-406c0 -33 -3 -63 29 -83v-141h-255v41c-30 -23 -62 -38 -95 -47l8 -46c24 -133 -30 -169 -134 -169s-152 35 -134 169z" />
    <glyph glyph-name="uni2215" unicode="&#x2215;" horiz-adv-x="278" 
d="M-9 -9h-133l429 878h133z" />
    <glyph glyph-name="a.superior" horiz-adv-x="384" 
d="M214 597v52c-22 -8 -59 -14 -59 -43c0 -12 9 -23 22 -23s28 7 37 14zM386 573v-85h-165v29c-33 -25 -64 -37 -107 -37c-71 0 -116 42 -116 108c0 76 49 98 118 119l98 30v13c0 18 -5 37 -28 37c-26 0 -28 -22 -28 -40v-13h-143v93c52 35 119 47 182 47
c41 0 90 -5 124 -27c46 -29 46 -71 46 -118v-106c0 -20 -2 -38 19 -50z" />
    <glyph glyph-name="o.superior" horiz-adv-x="372" 
d="M386 731v-99c0 -42 -1 -89 -38 -119c-37 -29 -92 -33 -139 -33c-42 0 -102 3 -138 26c-50 30 -50 76 -50 126v99c0 40 1 85 39 112c37 27 87 31 134 31c41 0 104 -3 139 -22c50 -28 53 -73 53 -121zM174 730v-111c0 -20 -2 -51 29 -51c32 0 30 31 30 51v111
c0 20 4 56 -29 56c-34 0 -30 -35 -30 -56z" />
    <glyph glyph-name="one.superior" horiz-adv-x="408" 
d="M291 857v-373c0 -19 -2 -38 19 -50v-91h-211v91c20 12 18 31 18 50v231c0 20 2 39 -18 51v91h192z" />
    <glyph glyph-name="two.superior" horiz-adv-x="429" 
d="M324 567l-65 -31c-87 -40 -88 -51 -86 -75h21c43 0 56 11 57 50h163v-161h-409v120c0 41 2 75 34 107c28 28 71 47 108 65c97 45 103 52 103 81c0 21 -12 40 -36 40c-37 0 -34 -39 -34 -63v-19h-165v139c60 41 137 54 210 54c48 0 99 -6 139 -31c47 -30 60 -71 60 -122
c0 -88 -31 -121 -100 -154z" />
    <glyph glyph-name="three.superior" horiz-adv-x="424" 
d="M173 694h-166v125c58 40 136 55 208 55c103 0 200 -35 200 -144c0 -51 -19 -90 -73 -110c62 -21 78 -66 78 -122c0 -47 -12 -96 -58 -124c-43 -27 -105 -34 -156 -34c-70 0 -146 13 -202 55v143h169v-19c0 -21 -3 -67 31 -67c33 0 39 30 39 53c0 48 -18 60 -68 60h-54
v101h44c57 0 76 8 76 52c0 21 -8 46 -36 46c-31 0 -32 -35 -32 -56v-14z" />
    <glyph glyph-name="uni2010" unicode="&#x2010;" 
d="M340 239h-340v202h340v-202z" />
    </font>
</defs>
</svg>
