<?xml version="1.0" standalone="no"?>
<!DOCTYPE svg PUBLIC "-//W3C//DTD SVG 1.1//EN" "http://www.w3.org/Graphics/SVG/1.1/DTD/svg11.dtd" >
<svg xmlns="http://www.w3.org/2000/svg" xmlns:xlink="http://www.w3.org/1999/xlink" version="1.1">
<metadata>
Created by FontForge 20161116 at Mon May  7 07:28:15 2007
 By Jimmy Wärting
Copr.1994, David Berlow. Produced by The Font Bureau, Inc.
</metadata>
<defs>
<font id="Eagle-Light" horiz-adv-x="854" >
  <font-face 
    font-family="Eagle"
    font-weight="500"
    font-stretch="normal"
    units-per-em="1000"
    panose-1="0 0 0 0 0 0 0 0 0 0"
    ascent="800"
    descent="-200"
    x-height="505"
    cap-height="678"
    bbox="-129.09 -224 1215 897.133"
    underline-thickness="20"
    underline-position="-133"
    stemh="49"
    stemv="53"
    unicode-range="U+0020-FB02"
  />
<missing-glyph horiz-adv-x="500" 
 />
    <glyph glyph-name=".notdef" horiz-adv-x="500" 
 />
    <glyph glyph-name="space" unicode=" " horiz-adv-x="220" 
 />
    <glyph glyph-name="exclam" unicode="!" horiz-adv-x="199" 
d="M136 341c0 -32 -5 -169 -14 -203c-2 -9 -3 -9 -10 -9h-7c-5 0 -9 1 -11 9c-9 35 -14 194 -14 202v342c0 5 1 10 6 10c18 0 31 1 45 0c4 0 5 -3 5 -12v-339zM141 16c0 -13 -3 -16 -10 -16h-46s-10 0 -10 15v39c0 11 1 14 10 14h46s10 -1 10 -14v-38z" />
    <glyph glyph-name="quotedbl" unicode="&#x22;" horiz-adv-x="292" 
d="M237 679c0 -36 -1 -119 -1 -144c0 -53 -22 -82 -26 -82c-3 0 -26 33 -26 82c0 25 -1 110 -1 144c0 3 10 9 26 9c20 0 28 -6 28 -9zM127 679c0 -36 -1 -119 -1 -144c0 -53 -22 -82 -26 -82c-3 0 -26 33 -26 82c0 25 -1 110 -1 144c0 3 10 9 26 9c20 0 28 -6 28 -9z" />
    <glyph glyph-name="numbersign" unicode="#" horiz-adv-x="557" 
d="M552 438c0 -2 -3 -4 -6 -4h-124l-28 -175h122c6 0 7 1 7 -2v-42c0 -2 -3 -4 -6 -4h-131s-28 -182 -32 -198c-1 -5 -2 -8 -9 -8h-35c-2 0 -6 5 -6 10c2 12 33 196 33 196h-161s-28 -182 -32 -198c-1 -5 -2 -8 -9 -8h-35c-2 0 -6 5 -6 10c2 12 32 196 32 196h-112
c-6 0 -8 1 -8 8v33c0 4 1 7 9 7h119l27 175h-117c-6 0 -8 1 -8 8v33c0 2 5 7 10 7h121s26 151 31 181c1 6 0 7 3 7h44c2 0 3 -4 3 -6c-7 -45 -31 -182 -31 -182h160s26 149 31 181c1 6 1 7 4 7h43c2 0 3 -4 3 -6c-6 -35 -31 -182 -31 -182h118c6 0 7 1 7 -2v-42zM372 434
h-160l-28 -175h160z" />
    <glyph glyph-name="dollar" unicode="$" horiz-adv-x="624" 
d="M570 182c0 -118 -68 -188 -212 -197l-16 -1v-60h-49v60c-57 2 -105 16 -143 40c-41 25 -75 63 -89 108c-5 15 -2 16 4 18c12 5 21 9 37 13c5 1 9 1 11 -5c27 -75 85 -118 180 -123v284l-25 5c-107 21 -188 77 -188 173c0 102 66 180 192 192c0 0 14 2 21 2v34h49v-34
c45 -3 83 -13 113 -30c53 -28 86 -72 103 -120c3 -9 0 -12 -6 -16c-15 -11 -37 -19 -41 -10c-15 40 -40 75 -77 97c-25 15 -56 25 -92 28v-273c9 0 26 -2 26 -2c119 -11 202 -74 202 -183zM293 374v266c-112 -7 -159 -62 -159 -134c0 -73 55 -112 138 -128c0 0 14 -3 21 -4z
M516 174c0 82 -55 123 -152 136c0 0 -15 2 -22 3v-278c119 6 174 58 174 139z" />
    <glyph glyph-name="percent" unicode="%" horiz-adv-x="825" 
d="M801 174c0 -102 -74 -181 -185 -181c-113 0 -193 78 -193 181c0 101 79 183 190 183c114 0 188 -82 188 -183zM710 655c-193 -228 -518 -631 -531 -661c-18 1 -47 22 -46 35c187 214 505 615 535 657c16 -10 29 -21 42 -31zM401 497c0 -102 -74 -181 -187 -181
c-111 0 -191 81 -191 181c0 102 79 181 190 181c114 0 188 -79 188 -181zM754 170c0 70 -49 143 -141 143c-91 0 -143 -73 -143 -143c0 -68 45 -136 143 -136c92 0 141 68 141 136zM352 497c0 70 -49 141 -141 141s-141 -71 -141 -141s43 -136 141 -136c92 0 141 66 141 136
z" />
    <glyph glyph-name="ampersand" unicode="&#x26;" horiz-adv-x="633" 
d="M603 0h-54c0 0 -47 54 -79 93c-5 -5 -8 -12 -15 -15c-50 -50 -126 -88 -221 -88c-125 0 -196 86 -196 187c0 114 72 173 164 217c0 0 13 6 19 9c-3 4 -13 19 -13 19c-20 29 -38 64 -38 116c0 94 77 154 179 154c79 0 126 -31 176 -76c10 -9 11 -13 5 -21s-10 -11 -20 -20
c-7 -6 -10 -5 -20 5c-29 28 -70 63 -145 63c-101 0 -122 -69 -122 -104c0 -43 24 -89 59 -133c44 -56 121 -155 185 -234c36 43 67 103 96 161c1 3 24 -10 36 -16c8 -4 8 -4 1 -20c-26 -58 -57 -114 -99 -167c40 -49 69 -82 98 -117c7 -8 10 -13 4 -13zM436 134
c-56 69 -125 154 -186 231c-105 -46 -160 -100 -160 -181c0 -79 57 -144 157 -144c82 0 151 39 189 94z" />
    <glyph glyph-name="quoteright" unicode="&#x2019;" horiz-adv-x="100" 
d="M101 671c0 -3 -1 -5 -2 -8c-25 -53 -43 -91 -68 -141c-1 -3 -4 -9 -8 -9c-3 0 -4 3 -4 13v142c0 10 3 10 6 10h72c3 0 4 -4 4 -7z" />
    <glyph glyph-name="parenleft" unicode="(" horiz-adv-x="283" 
d="M225 695c-65 -118 -120 -258 -120 -413c0 -154 59 -303 119 -423c1 -4 3 -7 -8 -14c-11 -6 -15 -8 -18 -4c-78 125 -148 257 -148 441c0 183 79 335 150 434c2 2 8 0 16 -5c11 -7 13 -9 9 -16z" />
    <glyph glyph-name="parenright" unicode=")" horiz-adv-x="283" 
d="M230 275c0 -183 -76 -336 -147 -434c-2 -3 -8 0 -16 5c-11 7 -11 13 -7 21c64 117 115 253 115 408c0 154 -62 303 -122 423c-1 4 -3 7 8 14c11 6 15 8 18 4c78 -125 151 -257 151 -441z" />
    <glyph glyph-name="asterisk" unicode="*" horiz-adv-x="426" 
d="M396 516c2 -3 0 -3 -2 -4l-143 -51l82 -130c2 -3 0 -5 -2 -7c-8 -9 -17 -15 -25 -18c-1 -1 -3 -1 -4 1l-89 121l-88 -121c-2 -3 -3 -2 -5 -1c-12 7 -18 12 -24 19c-2 2 -4 2 -1 7l80 129l-144 55c-1 0 -1 2 -1 3c4 11 5 17 8 25c1 3 1 3 6 3l143 -38l10 150c0 2 1 4 4 4
h26c2 0 5 -1 5 -4l7 -151l145 37c5 1 3 1 5 -2c3 -9 5 -16 7 -27z" />
    <glyph glyph-name="plus" unicode="+" horiz-adv-x="516" 
d="M477 311c0 -6 -2 -8 -12 -8h-181v-189c0 -12 -1 -14 -12 -14h-26c-7 0 -9 4 -9 14v189h-182c-13 0 -14 1 -14 9v27c0 11 4 12 14 12h182v191c0 8 2 10 9 10h26c10 0 12 -1 12 -11v-190h181c10 0 12 -2 12 -12v-28z" />
    <glyph glyph-name="comma" unicode="," horiz-adv-x="130" 
d="M111 67c0 -5 0 -9 -2 -13c-25 -49 -42 -83 -64 -126c-2 -4 -5 -4 -9 -4c-3 0 -8 1 -8 7v134c0 9 1 10 5 10h76c3 0 2 -5 2 -8z" />
    <glyph glyph-name="hyphen" unicode="-" horiz-adv-x="413" 
d="M356 333c0 -11 -1 -12 -12 -12h-273c-12 0 -14 1 -14 12v24c0 6 2 11 14 11h273c12 0 12 -3 12 -12v-23z" />
    <glyph glyph-name="period" unicode="." horiz-adv-x="137" 
d="M103 13c0 -11 -1 -13 -13 -13h-50c-10 0 -12 2 -12 12v53s3 10 11 10h55s9 -1 9 -11v-51z" />
    <glyph glyph-name="slash" unicode="/" horiz-adv-x="370" 
d="M358 675c-85 -184 -222 -478 -320 -686c-6 -12 -7 -11 -11 -9c-15 6 -23 7 -32 16c-5 5 -4 6 -2 11c71 155 233 500 321 689c6 14 9 13 14 11c9 -4 19 -6 29 -13c7 -5 7 -6 1 -19z" />
    <glyph glyph-name="zero" unicode="0" horiz-adv-x="678" 
d="M632 337c0 -244 -129 -354 -293 -354c-181 0 -293 110 -293 354c0 245 127 355 293 355c169 0 293 -112 293 -355zM576 337c0 188 -82 305 -237 305c-148 0 -237 -119 -237 -305c0 -192 72 -304 237 -304c152 0 237 113 237 304z" />
    <glyph glyph-name="one" unicode="1" horiz-adv-x="205" 
d="M129 14c0 -14 0 -14 -10 -14h-38c-4 0 -5 9 -5 14v609c0 11 0 14 5 17c13 7 24 17 45 28c3 1 3 -7 3 -15v-639z" />
    <glyph glyph-name="two" unicode="2" horiz-adv-x="598" 
d="M535 10c0 -9 -1 -10 -11 -10h-448c-7 0 -13 4 -15 17c-1 8 1 17 5 20c84 63 178 152 234 203c130 120 172 191 172 259c0 81 -58 143 -161 143c-94 0 -166 -45 -198 -146c-3 -9 -8 -10 -13 -7c-10 5 -23 12 -32 18c-4 3 -4 8 -2 15c41 114 130 170 247 170
c125 0 214 -72 214 -193c0 -93 -57 -170 -194 -296c-48 -44 -104 -95 -171 -152h361c11 0 12 -1 12 -9v-32z" />
    <glyph glyph-name="three" unicode="3" horiz-adv-x="606" 
d="M568 182c0 -105 -83 -201 -260 -201c-159 0 -244 83 -265 167c-3 11 -2 12 6 15c11 4 18 6 32 11c6 2 12 -2 15 -12c25 -84 117 -131 212 -131c138 0 204 61 204 153c0 105 -83 155 -244 156c-9 0 -12 8 -12 22c0 13 1 24 11 24c139 4 211 45 211 133
c0 65 -64 121 -171 121s-163 -40 -184 -122c-2 -7 -3 -11 -12 -8s-20 9 -29 14c-6 4 -8 6 -7 11c15 76 86 155 233 155c135 0 225 -70 225 -174c0 -90 -66 -137 -151 -148c92 -10 186 -69 186 -186z" />
    <glyph glyph-name="four" unicode="4" horiz-adv-x="588" 
d="M561 153c0 -8 -2 -10 -7 -10h-87v-136c0 -14 0 -14 -9 -14h-34c-9 0 -10 0 -10 14v136h-377c-14 0 -18 0 -18 7v25c0 6 1 10 5 15c133 159 417 498 408 488c0 0 9 10 14 10h15c5 0 6 -1 6 -7v-488h86c5 0 8 -3 8 -11v-29zM414 192v391l-323 -391h323z" />
    <glyph glyph-name="five" unicode="5" horiz-adv-x="596" 
d="M555 240c0 -144 -101 -257 -259 -257c-140 0 -222 76 -260 158c-4 8 -3 11 4 16c8 5 19 12 32 18c5 2 8 0 12 -7c36 -73 97 -135 215 -135c122 0 201 95 201 205c0 104 -69 202 -190 202c-98 0 -164 -56 -206 -147c-2 -5 -15 0 -21 2c-9 3 -15 8 -15 11
c8 90 21 208 33 360c1 7 9 12 17 12h383c7 0 8 -2 8 -8v-38c0 -5 -2 -7 -9 -7h-350l-22 -223c21 29 73 87 187 87c140 0 240 -104 240 -249z" />
    <glyph glyph-name="six" unicode="6" horiz-adv-x="630" 
d="M584 229c0 -144 -110 -246 -261 -246c-146 0 -271 106 -271 317c0 269 117 392 276 392c110 0 176 -42 222 -120c3 -4 4 -12 -2 -16l-28 -16c-8 -3 -12 -1 -17 7c-34 58 -82 95 -175 95c-144 0 -220 -143 -220 -297c25 67 110 134 223 134c152 0 253 -106 253 -250z
M528 229c0 120 -92 201 -200 201c-122 0 -210 -89 -210 -201c0 -100 82 -197 205 -197c119 0 205 87 205 197z" />
    <glyph glyph-name="seven" unicode="7" horiz-adv-x="470" 
d="M456 636c-14 -24 -173 -322 -220 -630c-2 -11 -5 -16 -18 -16h-26c-13 0 -9 12 -8 19c56 290 143 473 209 620h-372c-8 0 -14 2 -13 9c2 10 3 23 8 33c3 6 4 7 17 7h422c3 0 3 -38 1 -42z" />
    <glyph glyph-name="eight" unicode="8" horiz-adv-x="570" 
d="M553 180c0 -116 -102 -197 -265 -197s-265 90 -265 197c0 99 67 155 158 179c-79 20 -123 73 -123 154c0 105 99 179 230 179c144 0 230 -72 230 -179c0 -84 -44 -131 -123 -154c91 -17 158 -78 158 -179zM463 513c0 85 -84 129 -175 129s-175 -42 -175 -129
c0 -80 72 -133 175 -133c105 0 175 51 175 133zM497 182c0 94 -102 151 -209 151s-209 -56 -209 -151c0 -98 108 -149 209 -149s209 39 209 149z" />
    <glyph glyph-name="nine" unicode="9" horiz-adv-x="599" 
d="M564 370c0 -269 -118 -387 -276 -387c-113 0 -178 45 -230 113c-6 7 -5 10 1 15c9 7 22 14 33 20c6 3 12 0 16 -6c33 -50 85 -94 180 -94c137 0 220 127 220 294c-22 -55 -78 -134 -228 -134c-155 0 -248 112 -248 254c0 135 106 246 261 246c146 0 271 -110 271 -321z
M498 441c0 100 -82 201 -205 201c-126 0 -205 -93 -205 -197c0 -124 78 -205 192 -205c132 0 218 89 218 201z" />
    <glyph glyph-name="colon" unicode=":" horiz-adv-x="140" 
d="M98 363c0 -11 -1 -13 -13 -13h-40c-10 0 -12 2 -12 12v43c0 10 7 10 11 10h45c9 0 9 -1 9 -11v-41zM98 13c0 -11 -1 -13 -13 -13h-40c-10 0 -12 2 -12 12v43c0 9 5 10 11 10h45c10 0 9 -1 9 -11v-41z" />
    <glyph glyph-name="semicolon" unicode=";" horiz-adv-x="140" 
d="M98 363c0 -11 -6 -13 -13 -13h-40c-10 0 -12 2 -12 12v43c0 9 5 10 11 10h45c9 0 9 -1 9 -11v-41zM106 57c0 -5 0 -8 -2 -13c-22 -53 -54 -133 -54 -133c-2 -4 -5 -4 -9 -4c-3 0 -8 1 -8 7v141c0 10 3 10 5 10h66c3 0 2 -5 2 -8z" />
    <glyph glyph-name="less" unicode="&#x3c;" horiz-adv-x="412" 
d="M337 91c0 -3 -2 -5 -6 -5c-3 0 -6 1 -8 3c-87 72 -174 143 -252 211c-1 1 -5 4 -5 8s4 8 5 9c84 68 181 143 252 193c1 1 5 1 9 0c3 -1 5 -3 5 -7v-31c0 -7 -3 -11 -8 -15c-66 -54 -154 -121 -193 -148c36 -31 120 -104 193 -168c5 -5 8 -9 8 -15v-35z" />
    <glyph glyph-name="equal" unicode="=" horiz-adv-x="424" 
d="M373 415c0 -2 -2 -4 -6 -4h-312c-6 0 -8 1 -8 8v36c0 5 3 7 10 7h309c6 0 7 -2 7 -7v-40zM373 197c0 -3 -2 -4 -6 -4h-312c-6 0 -8 1 -8 8v36c0 5 3 7 10 7h309c6 0 7 -2 7 -9v-38z" />
    <glyph glyph-name="greater" unicode="&#x3e;" horiz-adv-x="412" 
d="M359 308c0 -4 -4 -7 -5 -8c-78 -68 -163 -140 -252 -211c-3 -3 -5 -4 -9 -3c-3 1 -5 2 -5 9v31c0 6 3 11 8 15c80 66 158 137 194 167c-38 27 -120 94 -194 149c-5 4 -8 7 -8 15v28c0 7 1 9 4 11s7 1 10 -1c70 -51 168 -125 252 -193c1 -1 5 -5 5 -9z" />
    <glyph glyph-name="question" unicode="?" horiz-adv-x="430" 
d="M414 515c0 -101 -74 -159 -112 -200c-47 -51 -78 -84 -78 -169c0 -6 1 -9 -4 -9h-44c-4 0 -4 0 -4 7c0 79 36 137 79 185c46 51 113 99 113 185c0 75 -58 132 -143 132c-78 0 -137 -56 -159 -149c-1 -6 -5 -7 -10 -5c-15 7 -19 8 -30 13c-5 2 -6 4 -4 13
c23 106 105 178 203 178c96 0 193 -60 193 -181zM231 16c0 -13 -3 -16 -10 -16h-46s-10 0 -10 15v39c0 11 1 14 10 14h46s10 -1 10 -14v-38z" />
    <glyph glyph-name="at" unicode="@" horiz-adv-x="698" 
d="M675 372c0 -178 -92 -247 -156 -247c-40 0 -67 16 -76 81c-27 -52 -70 -84 -136 -84c-68 0 -144 62 -144 180c0 164 122 228 183 228c23 0 57 0 101 -38l46 16l-23 -222c-12 -109 36 -116 55 -116c49 0 106 91 106 193c0 213 -126 295 -266 295
c-159 0 -296 -132 -296 -341c0 -194 100 -325 294 -325c58 0 118 19 150 53c14 13 19 5 28 -14c4 -11 7 -19 -1 -25c-50 -37 -104 -57 -175 -57c-199 0 -342 127 -342 368c0 210 137 383 340 383c195 0 312 -140 312 -328zM435 453c-16 14 -43 33 -89 33
c-62 0 -137 -71 -137 -187c0 -42 23 -137 104 -137c51 0 90 40 101 125z" />
    <glyph glyph-name="A" unicode="A" horiz-adv-x="671" 
d="M674 12c4 -8 3 -12 -6 -12h-43c-6 0 -7 1 -11 8l-74 155h-409l-72 -151c-5 -9 -7 -12 -17 -12h-35c-12 0 -14 2 -8 14c36 75 266 549 329 674c2 4 3 7 8 7s6 -3 8 -7c63 -127 290 -591 330 -676zM518 211c0 0 -97 206 -160 337c-8 17 -20 43 -22 43s-15 -27 -22 -42
c-62 -133 -161 -338 -161 -338h365z" />
    <glyph glyph-name="B" unicode="B" horiz-adv-x="662" 
d="M602 183c0 -126 -76 -183 -220 -183h-306c-6 0 -8 3 -8 9v659c0 8 3 10 10 10h259c130 0 226 -63 226 -176c0 -90 -39 -138 -98 -155c77 -12 137 -80 137 -164zM507 498c0 77 -61 130 -163 130h-220v-262h237c102 0 146 43 146 132zM545 183c0 80 -67 135 -172 135h-249
v-268h250c113 0 171 44 171 133z" />
    <glyph glyph-name="C" unicode="C" horiz-adv-x="753" 
d="M696 167c-53 -101 -146 -184 -301 -184c-211 0 -355 151 -355 354c0 196 151 355 353 355c170 0 269 -89 303 -183c4 -10 4 -15 -2 -17l-32 -11c-6 -2 -11 2 -14 9c-33 79 -116 152 -256 152c-168 0 -294 -138 -294 -305c0 -169 127 -304 296 -304c145 0 215 82 258 156
c7 11 9 13 17 8l26 -15c6 -4 6 -6 1 -15z" />
    <glyph glyph-name="D" unicode="D" horiz-adv-x="710" 
d="M670 344c0 -198 -132 -344 -324 -344h-274c-3 0 -4 5 -4 9v659c0 8 1 10 4 10h280c169 0 318 -110 318 -334zM611 344c0 188 -118 284 -270 284h-217v-578h215c162 0 272 124 272 294z" />
    <glyph glyph-name="E" unicode="E" horiz-adv-x="572" 
d="M525 12c0 -12 -1 -12 -11 -12h-437c-8 0 -9 2 -9 14v654c0 9 -1 10 5 10h438c8 0 9 -1 9 -11v-25c0 -12 -2 -14 -9 -14h-387v-258h383c5 0 6 -2 6 -14v-20c0 -14 -1 -16 -6 -16h-383v-270h390c11 0 11 0 11 -13v-25z" />
    <glyph glyph-name="F" unicode="F" horiz-adv-x="523" 
d="M509 640c0 -9 -1 -12 -9 -12h-376v-281h337c13 0 15 -2 15 -10v-30c0 -8 -3 -10 -15 -10h-337v-283c0 -12 1 -14 -7 -14h-43c-6 0 -6 -1 -6 14v655c0 3 6 9 7 9h424c8 0 10 -2 10 -10v-28z" />
    <glyph glyph-name="G" unicode="G" horiz-adv-x="759" 
d="M703 0c0 -8 -2 -10 -10 -10c-6 0 -8 0 -15 7l-64 65c-51 -40 -115 -79 -219 -79c-213 0 -355 158 -355 354s153 355 355 355c161 0 248 -80 291 -156c3 -6 4 -12 -4 -15l-36 -15c-5 -2 -10 1 -12 6c-31 64 -114 131 -242 131c-169 0 -295 -138 -295 -307
c0 -168 129 -306 297 -306c122 0 219 66 259 161c3 6 4 9 8 9h36c6 0 6 -2 6 -11v-189z" />
    <glyph glyph-name="H" unicode="H" horiz-adv-x="683" 
d="M615 9c0 -9 0 -9 -12 -9h-34c-8 0 -10 1 -10 9v333h-435v-333c0 -7 -1 -9 -10 -9h-36c-9 0 -10 0 -10 11v654c0 12 2 13 11 13h36c7 0 9 -1 9 -13v-271h435v270c0 13 2 14 10 14h35c10 0 11 -1 11 -14v-655z" />
    <glyph glyph-name="I" unicode="I" horiz-adv-x="238" 
d="M147 9c0 -8 -1 -9 -10 -9h-36c-8 0 -10 1 -10 9v657c0 11 2 12 11 12h37c6 0 8 -2 8 -12v-657z" />
    <glyph glyph-name="J" unicode="J" horiz-adv-x="257" 
d="M198 79c0 -56 -42 -92 -95 -92c-26 0 -64 4 -83 15c-6 4 -7 5 -7 8l5 41c0 4 2 6 9 3c27 -12 52 -17 70 -17c33 0 45 21 45 57v573c0 10 1 11 10 11h36c9 0 10 -2 10 -11v-588z" />
    <glyph glyph-name="K" unicode="K" horiz-adv-x="626" 
d="M617 11c3 -4 5 -11 -7 -11h-46c-5 0 -15 8 -18 12l-256 341l-166 -187v-157c0 -7 -1 -9 -11 -9h-35c-8 0 -10 3 -10 9v660c0 7 2 9 9 9h38c8 0 9 -3 9 -10v-430l377 433c5 4 8 7 17 7h42c7 0 11 -7 7 -11l-236 -269z" />
    <glyph glyph-name="L" unicode="L" horiz-adv-x="489" 
d="M477 11c0 -10 0 -11 -8 -11h-394c-6 0 -7 1 -7 8v662c0 6 1 8 7 8h44c5 0 5 -1 5 -7v-621h344c8 0 9 0 9 -9v-30z" />
    <glyph glyph-name="M" unicode="M" horiz-adv-x="766" 
d="M735 9c0 -7 -1 -9 -10 -9h-42c-4 0 -6 2 -6 9l-30 540l-249 -368c-4 -6 -5 -5 -9 -5c-5 0 -6 -1 -10 5l-249 363l-29 -530c-1 -13 -2 -14 -9 -14h-42s-7 3 -7 13l40 661c0 7 7 13 14 13s11 -4 15 -10l281 -417l278 417c4 6 9 9 14 9c7 0 12 -6 12 -12z" />
    <glyph glyph-name="N" unicode="N" horiz-adv-x="683" 
d="M615 -1c0 -5 -3 -9 -11 -9c-7 0 -11 3 -15 8c-50 61 -465 560 -465 560v-549c0 -8 -1 -9 -7 -9h-41c-6 0 -8 1 -8 10v668c0 5 4 8 9 8c6 0 10 -2 15 -7c66 -72 467 -562 467 -562v552c0 8 2 9 9 9h39c7 0 8 -2 8 -12v-667z" />
    <glyph glyph-name="O" unicode="O" horiz-adv-x="790" 
d="M750 337c0 -196 -153 -354 -355 -354s-355 158 -355 354s153 355 355 355s355 -159 355 -355zM692 337c0 167 -129 305 -297 305s-297 -138 -297 -305s130 -304 297 -304s297 137 297 304z" />
    <glyph glyph-name="P" unicode="P" horiz-adv-x="591" 
d="M559 470c0 -128 -97 -208 -244 -208h-191v-253c0 -7 0 -9 -7 -9h-42c-6 0 -7 1 -7 9v660c0 10 5 9 7 9h260c120 0 224 -79 224 -208zM504 470c0 99 -81 158 -172 158h-208v-316h210c89 0 170 54 170 158z" />
    <glyph glyph-name="Q" unicode="Q" horiz-adv-x="789" 
d="M750 335c0 -107 -56 -206 -101 -241v-107c0 -6 0 -13 -3 -15c-4 -2 -14 4 -20 6c-36 16 -89 39 -89 39c-21 -15 -89 -32 -142 -32c-202 0 -355 154 -355 350s153 357 355 357s355 -161 355 -357zM694 335c0 167 -131 307 -299 307s-297 -140 -297 -307s130 -302 297 -302
c168 0 299 125 299 302z" />
    <glyph glyph-name="R" unicode="R" horiz-adv-x="606" 
d="M603 6c0 -5 -3 -6 -11 -6h-40c-6 0 -10 2 -14 8l-184 257h-230v-256c0 -8 -1 -9 -7 -9h-42c-6 0 -7 2 -7 9v660c0 10 5 9 7 9h260c138 0 224 -97 224 -211c0 -98 -60 -164 -147 -192c0 0 116 -159 186 -257c4 -6 5 -7 5 -12zM506 466c0 99 -78 162 -174 162h-208v-314
h203c116 0 179 64 179 152z" />
    <glyph glyph-name="S" unicode="S" horiz-adv-x="611" 
d="M560 177c0 -131 -92 -194 -244 -194c-131 0 -228 55 -265 149c-6 15 -4 15 4 18l37 13c9 4 9 1 11 -5c28 -79 106 -126 209 -126c128 0 194 48 194 133c0 91 -70 123 -186 148c-9 2 -29 6 -38 8c-127 29 -212 75 -212 186c0 110 84 185 239 185c135 0 210 -70 239 -151
c3 -9 3 -12 -6 -16l-30 -13c-7 -4 -9 -2 -11 3c-28 77 -89 128 -194 128c-129 0 -183 -55 -183 -129c0 -83 71 -119 175 -141c9 -2 28 -6 38 -8c124 -26 223 -72 223 -188z" />
    <glyph glyph-name="T" unicode="T" horiz-adv-x="544" 
d="M533 635c0 -6 0 -7 -9 -7h-224v-619c0 -8 0 -9 -7 -9h-39c-9 0 -10 0 -10 11v617h-225c-6 0 -7 1 -7 7v33s1 10 8 10h505c8 0 8 -1 8 -10v-33z" />
    <glyph glyph-name="U" unicode="U" horiz-adv-x="644" 
d="M585 258c0 -175 -102 -275 -263 -275s-263 100 -263 276v412c0 7 1 7 7 7h42c7 0 7 0 7 -8v-411c0 -160 80 -226 207 -226s207 66 207 226v412c0 6 0 7 4 7h45c7 0 7 0 7 -7v-413z" />
    <glyph glyph-name="V" unicode="V" horiz-adv-x="635" 
d="M631 660c0 0 -288 -652 -294 -664c-4 -9 -6 -11 -11 -11s-8 3 -11 11c-6 12 -312 673 -312 673c-3 9 -2 9 4 9h42c6 0 9 -1 11 -6l266 -575l251 570c4 9 6 11 9 11h42c9 0 9 0 3 -18z" />
    <glyph glyph-name="W" unicode="W" horiz-adv-x="937" 
d="M934 665c-66 -178 -169 -449 -256 -675c-2 -5 -5 -5 -8 -5s-6 0 -8 5c-66 183 -193 545 -193 545s-125 -355 -193 -546c-1 -4 -5 -4 -8 -4s-7 0 -9 4l-256 675c-4 12 -3 14 2 14h44c6 0 9 -3 12 -11c68 -184 208 -552 208 -552l193 560c2 6 4 5 8 5c3 0 6 0 8 -5
l197 -560l205 556c2 6 4 7 12 7h34c10 0 12 -2 8 -13z" />
    <glyph glyph-name="X" unicode="X" horiz-adv-x="558" 
d="M562 8c4 -6 3 -8 -8 -8h-46c-8 0 -11 2 -15 7c-28 38 -215 285 -215 285s-192 -244 -219 -281c-6 -8 -8 -11 -18 -11h-37c-12 0 -11 5 -5 13c38 50 247 324 247 324s-177 244 -241 330c-5 7 -4 11 8 11h43c8 0 10 -2 15 -9c51 -70 208 -292 208 -292s169 233 212 292
c6 8 8 9 16 9h41c6 0 11 -3 6 -10c-53 -70 -245 -331 -245 -331s219 -285 253 -329z" />
    <glyph glyph-name="Y" unicode="Y" horiz-adv-x="569" 
d="M566 666c-60 -98 -254 -410 -254 -410v-243c0 -12 -1 -13 -11 -13h-37c-6 0 -8 1 -8 11v245s-201 325 -255 412c-4 7 -2 10 11 10h36c8 0 9 -1 14 -9c43 -67 222 -358 222 -358s179 288 222 355c7 11 9 12 13 12h40c11 0 12 -3 7 -12z" />
    <glyph glyph-name="Z" unicode="Z" horiz-adv-x="544" 
d="M526 660c-144 -201 -441 -610 -441 -610h432c7 0 8 -3 8 -11v-28c0 -10 -2 -11 -8 -11h-509c-7 0 -6 19 -3 23c145 203 438 609 438 609h-404c-11 0 -13 1 -13 9v24c0 11 1 13 9 13h489c7 0 5 -14 2 -18z" />
    <glyph glyph-name="bracketleft" unicode="[" horiz-adv-x="243" 
d="M240 -160c0 -6 -1 -6 -5 -6h-186c-3 0 -5 2 -5 6v832c0 4 2 6 5 6h186c4 0 5 -2 5 -6v-35c0 -4 -1 -5 -6 -5h-136v-748h136c5 0 6 -1 6 -5v-39z" />
    <glyph glyph-name="backslash" unicode="\" horiz-adv-x="370" 
d="M363 -23c3 -7 3 -11 -6 -17c-8 -6 -13 -8 -20 -10c-11 -3 -14 1 -19 11c-101 221 -191 418 -316 695c-4 9 -4 13 0 16c10 6 17 9 28 14c8 3 10 2 16 -12c126 -277 207 -455 317 -697z" />
    <glyph glyph-name="bracketright" unicode="]" horiz-adv-x="243" 
d="M199 -160c0 -4 -2 -6 -5 -6h-186c-4 0 -5 2 -5 6v39c0 4 2 5 6 5h136v744h-136c-4 0 -6 1 -6 5v39c0 5 2 6 5 6h186c3 0 5 -2 5 -6v-832z" />
    <glyph glyph-name="asciicircum" unicode="^" horiz-adv-x="384" 
d="M375 498c0 -6 -2 -7 -10 -7h-44l-131 155l-131 -155h-46c-6 0 -8 1 -8 5s2 7 7 12c12 16 152 189 166 206c4 5 7 9 12 9s9 -4 13 -10c13 -17 148 -183 163 -201c3 -4 9 -10 9 -14z" />
    <glyph glyph-name="underscore" unicode="_" horiz-adv-x="381" 
d="M399 -184c0 -8 -2 -9 -16 -9h-385c-11 0 -11 2 -11 12v21c0 12 1 14 11 14h385c14 0 16 -2 16 -8v-30z" />
    <glyph glyph-name="quoteleft" unicode="&#x2018;" horiz-adv-x="100" 
d="M82 526c0 -10 -1 -13 -4 -13c-4 0 -7 6 -8 9c-25 50 -41 84 -68 141c-1 3 -2 5 -2 9c0 3 1 6 4 6h72c3 0 6 0 6 -10v-142z" />
    <glyph glyph-name="a" unicode="a" horiz-adv-x="576" 
d="M520 11c0 -9 -2 -11 -9 -11h-33c-6 0 -8 2 -8 10v82c-29 -58 -104 -102 -192 -102c-143 0 -244 108 -244 258c0 160 93 267 239 267c87 0 157 -41 197 -103v84c0 8 2 9 7 9h35c6 0 8 -2 8 -7v-487zM473 252c0 134 -91 217 -195 217c-111 0 -192 -76 -192 -217
c0 -121 87 -215 192 -215c125 0 195 90 195 215z" />
    <glyph glyph-name="b" unicode="b" horiz-adv-x="577" 
d="M543 258c0 -152 -97 -266 -242 -266c-105 0 -164 44 -191 99l-17 -82c-1 -7 -3 -9 -11 -9h-20c-5 0 -6 2 -6 11v674c0 5 2 7 6 7h37c7 0 8 -1 8 -9v-277c41 72 108 109 197 109c139 0 239 -90 239 -257zM491 253c0 147 -91 214 -195 214c-110 0 -192 -89 -192 -214
c0 -118 65 -214 190 -214c106 0 197 93 197 214z" />
    <glyph glyph-name="c" unicode="c" horiz-adv-x="578" 
d="M531 118c-44 -81 -122 -135 -230 -135c-156 0 -267 109 -267 268c0 155 106 269 267 269c109 0 187 -51 226 -133c2 -5 3 -8 -3 -12l-33 -18c-5 -3 -8 -2 -12 5c-36 72 -98 109 -179 109c-124 0 -211 -96 -211 -220c0 -122 87 -219 211 -219c86 0 152 42 187 114
c2 4 4 5 10 1l30 -18c5 -3 6 -7 4 -11z" />
    <glyph glyph-name="d" unicode="d" horiz-adv-x="577" 
d="M521 11c0 -8 -1 -11 -9 -11h-34c-5 0 -8 2 -8 10v79c-26 -51 -104 -99 -194 -99c-141 0 -242 108 -242 258c0 159 94 267 244 267c87 0 152 -43 192 -104v271c0 8 2 10 8 10h35c7 0 8 -2 8 -8v-673zM472 252c0 133 -90 217 -196 217c-109 0 -190 -77 -190 -217
c0 -123 87 -214 190 -214c127 0 196 89 196 214z" />
    <glyph glyph-name="e" unicode="e" horiz-adv-x="562" 
d="M528 285c0 -25 -1 -33 -10 -46c-3 -4 -9 -5 -16 -5h-415c4 -109 83 -204 215 -204c63 0 111 32 134 54c2 2 6 1 8 -1c11 -12 14 -15 24 -30c2 -3 6 -6 2 -9c-46 -37 -98 -61 -170 -61c-165 0 -266 109 -266 268c0 155 100 269 259 269c155 0 235 -132 235 -235zM476 282
c-5 99 -72 192 -184 192c-110 0 -197 -87 -204 -192h388z" />
    <glyph glyph-name="f" unicode="f" horiz-adv-x="235" 
d="M271 678c3 -3 2 -4 -2 -11c-3 -6 -13 -21 -20 -29c-4 -4 -6 -3 -8 -1c-16 16 -29 22 -55 22c-43 0 -67 -28 -67 -85v-63c0 -5 1 -6 8 -6h98c4 0 5 -2 5 -6v-35c0 -4 -2 -6 -7 -6h-104v-451c0 -5 -1 -7 -6 -7h-40c-3 0 -5 2 -5 8v450h-54c-3 0 -5 1 -5 6v35c0 4 2 6 5 6
h54v72c0 81 52 132 121 132c37 0 64 -13 82 -31z" />
    <glyph glyph-name="g" unicode="g" horiz-adv-x="565" 
d="M521 108c0 -185 -87 -302 -245 -302c-100 0 -158 31 -199 72c-4 4 -5 7 -1 13c8 10 15 19 25 29c3 4 7 4 11 0c34 -35 83 -67 159 -67c148 0 195 104 199 260c-31 -69 -104 -108 -197 -108c-146 0 -239 99 -239 258c0 149 94 252 242 252c90 0 162 -45 194 -106v89
c0 7 2 7 8 7h36c6 0 7 -2 7 -8v-389zM472 256c0 125 -69 213 -196 213c-107 0 -190 -78 -190 -200c0 -140 81 -216 190 -216c106 0 196 70 196 203z" />
    <glyph glyph-name="h" unicode="h" horiz-adv-x="518" 
d="M466 14c0 -12 -2 -14 -9 -14h-35c-7 0 -8 2 -8 13v320c0 84 -46 133 -132 133c-78 0 -152 -43 -174 -141v-315c0 -8 -1 -10 -8 -10h-36c-8 0 -8 1 -8 13v670c0 7 1 9 6 9h38c7 0 8 -2 8 -9v-267c32 64 108 99 179 99c97 0 179 -47 179 -179v-322z" />
    <glyph glyph-name="i" unicode="i" horiz-adv-x="184" 
d="M121 581c0 -7 -2 -8 -9 -8h-43c-5 0 -6 2 -6 9v40c0 6 2 8 7 8h41c8 0 10 -1 10 -8v-41zM118 10c0 -9 -1 -10 -9 -10h-33c-9 0 -10 0 -10 13v484c0 6 2 8 8 8h34s10 -1 10 -8v-487z" />
    <glyph glyph-name="j" unicode="j" horiz-adv-x="199" 
d="M138 582c0 -7 -1 -9 -7 -9h-42c-6 0 -8 1 -8 9v39c0 7 1 9 8 9h42c6 0 7 0 7 -9v-39zM135 -25c0 -85 -52 -132 -121 -132c-37 0 -64 13 -82 31c-3 3 -2 4 2 11c3 6 13 21 20 29c4 4 6 3 8 1c16 -16 29 -22 55 -22c43 0 67 28 67 85v516c0 10 2 11 9 11h32
c9 0 10 -2 10 -10v-520z" />
    <glyph glyph-name="k" unicode="k" horiz-adv-x="466" 
d="M474 11c7 -10 7 -11 -4 -11h-46c-6 0 -15 9 -19 15c-71 95 -199 262 -199 262l-98 -110v-157c0 -8 0 -10 -7 -10h-37c-7 0 -8 2 -8 13v670c0 8 1 9 6 9h38c7 0 8 -1 8 -10v-444c34 37 159 178 231 260c5 6 8 7 13 7h46c3 0 5 0 5 -2s-1 -2 -3 -5
c-11 -15 -156 -180 -156 -180s191 -254 230 -307z" />
    <glyph glyph-name="l" unicode="l" horiz-adv-x="184" 
d="M118 10c0 -9 -1 -10 -8 -10h-36c-6 0 -8 1 -8 10v673c0 9 1 9 10 9h33c8 0 9 0 9 -9v-673z" />
    <glyph glyph-name="m" unicode="m" horiz-adv-x="858" 
d="M806 14c0 -13 0 -14 -7 -14h-37c-6 0 -8 1 -8 10v312c0 85 -50 144 -134 144c-78 0 -146 -57 -163 -140v-312c0 -13 0 -14 -7 -14h-37c-7 0 -8 2 -8 10v312c0 85 -48 144 -133 144c-77 0 -148 -57 -164 -142v-314c0 -8 0 -10 -7 -10h-37c-7 0 -8 0 -8 13v482
c0 9 1 10 7 10h32c12 0 12 0 12 -9v-82c30 65 101 101 170 101c78 0 139 -33 170 -111c42 77 107 111 179 111c102 0 180 -61 180 -184v-317z" />
    <glyph glyph-name="n" unicode="n" horiz-adv-x="518" 
d="M466 14c0 -11 0 -14 -7 -14h-36c-7 0 -9 1 -9 10v322c0 84 -41 134 -133 134c-90 0 -156 -57 -173 -140v-316c0 -8 0 -10 -4 -10h-41c-6 0 -7 1 -7 12v486c0 6 1 7 7 7h35s9 0 9 -9v-78c36 62 105 97 176 97c103 0 183 -51 183 -174v-327z" />
    <glyph glyph-name="o" unicode="o" horiz-adv-x="602" 
d="M568 251c0 -158 -110 -268 -267 -268c-154 0 -267 109 -267 268c0 155 108 269 267 269c157 0 267 -108 267 -269zM515 251c0 123 -91 222 -214 222c-122 0 -214 -94 -214 -222c0 -122 92 -221 214 -221c124 0 214 94 214 221z" />
    <glyph glyph-name="p" unicode="p" horiz-adv-x="577" 
d="M543 260c0 -159 -97 -269 -250 -269c-86 0 -148 43 -186 101v-246c0 -10 -1 -12 -8 -12h-37c-5 0 -6 2 -6 10v653c0 7 1 8 6 8h39c5 0 6 -1 6 -10v-80c32 57 97 100 189 100c143 0 247 -100 247 -255zM491 258c0 123 -90 209 -195 209c-125 0 -192 -86 -192 -211
c0 -133 88 -218 192 -218c111 0 195 80 195 220z" />
    <glyph glyph-name="q" unicode="q" horiz-adv-x="577" 
d="M521 -156c0 -8 -2 -10 -9 -10h-33c-7 0 -9 2 -9 12v249c-49 -73 -120 -104 -200 -104c-134 0 -236 101 -236 268c0 147 98 256 241 256c107 0 161 -44 192 -96c3 -3 13 76 13 76c2 8 4 10 12 10h23c5 0 6 -4 6 -8v-653zM472 256c0 118 -67 211 -192 211
c-106 0 -194 -88 -194 -211c0 -147 88 -218 190 -218c112 0 196 94 196 218z" />
    <glyph glyph-name="r" unicode="r" horiz-adv-x="379" 
d="M390 406c-7 -9 -17 -21 -28 -25c-5 -2 -13 -2 -18 -2c-11 52 -34 88 -100 88c-65 0 -120 -50 -136 -131v-326c0 -8 -2 -10 -7 -10h-38c-5 0 -7 2 -7 9v488c0 8 0 8 8 8h36c5 0 7 -1 7 -8v-67c29 56 77 85 146 85c73 0 127 -48 137 -109z" />
    <glyph glyph-name="s" unicode="s" horiz-adv-x="464" 
d="M427 135c0 -103 -74 -152 -187 -152c-99 0 -166 44 -198 118c-5 11 -3 13 4 16l29 12c11 5 12 5 16 -5c24 -56 73 -94 150 -94c88 0 133 34 133 93c0 46 -16 85 -142 111c-118 24 -172 57 -172 151c0 81 60 137 178 137c100 0 155 -51 180 -113c3 -8 3 -11 -8 -16
l-25 -12c-8 -4 -11 1 -15 10c-21 50 -63 84 -134 84c-93 0 -124 -41 -124 -89c0 -53 37 -81 134 -100c130 -25 181 -79 181 -151z" />
    <glyph glyph-name="t" unicode="t" horiz-adv-x="284" 
d="M277 21c2 -9 2 -9 -6 -12c-32 -14 -55 -19 -81 -19c-59 0 -111 45 -111 120v346h-62c-5 0 -7 1 -7 10v31c0 4 2 8 6 8h63v119c0 8 1 10 8 10h32c10 0 11 -1 11 -12v-117h99c7 0 10 0 10 -4v-36c0 -6 -7 -9 -11 -9h-98v-338c0 -61 33 -78 66 -78c26 0 52 10 64 18
c4 3 7 -1 9 -9c2 -7 6 -20 8 -28z" />
    <glyph glyph-name="u" unicode="u" horiz-adv-x="518" 
d="M463 9c0 -8 -1 -9 -6 -9h-36c-8 0 -9 0 -9 12v76c-27 -55 -105 -98 -177 -98c-103 0 -179 64 -179 187v317c0 10 1 11 7 11h36s8 0 8 -11v-308c0 -86 48 -147 134 -147c78 0 154 63 171 146v310c0 9 1 10 6 10h36c9 0 9 0 9 -11v-485z" />
    <glyph glyph-name="v" unicode="v" horiz-adv-x="485" 
d="M483 499c-101 -223 -147 -329 -230 -501c-4 -8 -6 -10 -9 -10s-6 2 -10 10c-85 174 -135 282 -233 500c-2 5 0 7 3 7h49c4 0 5 -2 6 -4c67 -149 165 -369 186 -411c18 42 113 252 185 410c2 4 4 5 8 5h42c3 0 5 -1 3 -6z" />
    <glyph glyph-name="w" unicode="w" horiz-adv-x="733" 
d="M733 500c-78 -205 -130 -332 -205 -506c-2 -6 -4 -11 -9 -11s-8 3 -11 11c-55 147 -124 339 -141 388c-18 -50 -96 -273 -139 -388c-2 -6 -6 -9 -12 -9c-5 0 -7 4 -9 9c-68 163 -119 288 -206 505c-2 5 -2 6 3 6h41c7 0 8 -4 12 -13c64 -157 143 -345 163 -391l141 400
c1 4 4 4 8 4c3 0 6 0 7 -3l143 -401c19 45 103 245 168 401c1 3 3 3 8 3h34c4 0 5 -2 4 -5z" />
    <glyph glyph-name="x" unicode="x" horiz-adv-x="433" 
d="M435 7c4 -6 3 -7 -5 -7h-35c-11 0 -14 2 -20 10c-27 35 -163 212 -163 212s-129 -174 -159 -215c-3 -4 -6 -7 -9 -7h-43c-6 0 -7 2 -3 8c80 108 188 252 188 252s-145 189 -183 241c-2 2 -2 4 1 4h51c4 0 5 0 6 -2c20 -27 151 -205 151 -205s112 143 159 203c3 4 4 4 9 4
h43c6 0 7 -1 5 -4c-65 -84 -187 -240 -187 -240s126 -165 194 -254z" />
    <glyph glyph-name="y" unicode="y" horiz-adv-x="438" 
d="M435 495c-115 -306 -169 -441 -253 -654c-3 -7 -5 -7 -8 -7h-38c-8 0 -9 2 -6 10c42 101 81 198 86 209c-8 16 -123 252 -214 443c-4 8 -2 9 7 9h42c5 0 6 -2 9 -8c62 -133 159 -343 182 -385c13 40 80 225 139 385c2 7 4 8 11 8h39c5 0 6 -3 4 -10z" />
    <glyph glyph-name="z" unicode="z" horiz-adv-x="429" 
d="M423 495c-115 -155 -342 -450 -342 -450h318c10 0 12 0 12 -6v-31c0 -6 -2 -8 -12 -8h-389c-9 0 -9 16 -4 22c119 159 328 437 328 437h-304c-3 0 -4 1 -4 7v33c0 6 1 6 11 6h384c3 0 4 -7 2 -10z" />
    <glyph glyph-name="braceleft" unicode="{" horiz-adv-x="235" 
d="M245 -133c0 -9 -2 -11 -14 -11h-46c-45 0 -96 27 -96 117v193c0 40 -12 56 -49 63c-15 3 -19 6 -19 11v52c0 7 3 11 16 13c40 6 52 25 52 79v147c0 111 54 147 96 147h46c13 0 14 -1 14 -11v-22c0 -11 -1 -12 -14 -12h-15c-77 0 -75 -36 -75 -151v-107
c0 -43 -4 -89 -70 -108c66 -20 70 -60 70 -112v-98c0 -109 -4 -154 75 -154h15c13 0 14 -1 14 -12v-24z" />
    <glyph glyph-name="bar" unicode="|" horiz-adv-x="276" 
d="M163 -180c0 -10 -1 -12 -9 -12h-22c-6 0 -8 2 -8 13v891c0 12 1 13 10 13h16c11 0 13 -1 13 -14v-891z" />
    <glyph glyph-name="braceright" unicode="}" horiz-adv-x="235" 
d="M214 240c0 -5 -2 -8 -19 -11c-37 -7 -49 -23 -49 -63v-158c0 -107 -51 -152 -96 -152h-46c-12 0 -14 1 -14 11v24c0 11 2 12 14 12h15c79 0 78 45 78 154v98c0 52 1 92 67 112c-66 19 -67 65 -67 108v107c0 115 -1 151 -78 151h-15c-13 0 -14 2 -14 12v22
c0 10 1 11 14 11h46c42 0 96 -36 96 -147v-147c0 -54 12 -73 52 -79c15 -2 16 -5 16 -13v-52z" />
    <glyph glyph-name="asciitilde" unicode="~" horiz-adv-x="489" 
d="M419 614c-2 -10 -45 -90 -116 -90c-37 0 -68 30 -80 38c-13 8 -33 27 -65 27c-30 0 -47 -17 -59 -27c-7 -6 -22 -20 -27 -22c-6 -2 -7 -1 -7 7c0 21 46 92 116 92c32 0 65 -28 74 -35c14 -8 38 -29 64 -29c31 0 49 14 63 26s24 22 29 24c11 3 11 -1 8 -11z" />
    <glyph glyph-name="exclamdown" unicode="&#xa1;" horiz-adv-x="199" 
d="M63 337c0 32 5 169 14 203c2 9 3 9 10 9h7c5 0 9 -1 11 -9c9 -35 14 -194 14 -202v-342c0 -5 -1 -10 -6 -10c-18 0 -31 -1 -45 0c-4 0 -5 3 -5 12v339zM58 662c0 13 3 16 10 16h46s10 0 10 -15v-39c0 -11 -1 -14 -10 -14h-46s-10 1 -10 14v38z" />
    <glyph glyph-name="cent" unicode="&#xa2;" horiz-adv-x="503" 
d="M459 308c-37 -70 -105 -113 -195 -113c-30 0 -58 5 -84 14l-32 -53l-44 26l30 49c-60 39 -97 108 -97 192c0 132 90 229 227 229c28 0 54 -4 77 -12l31 54l46 -24l-31 -52c30 -19 54 -46 72 -79c1 -4 1 -5 -1 -6l-32 -18c-3 -1 -5 2 -7 6c-31 55 -87 91 -156 91
c-105 0 -182 -83 -182 -189c0 -104 77 -188 182 -188c71 0 132 37 162 95c1 3 4 3 6 3l28 -17c2 -2 3 -3 0 -8z" />
    <glyph glyph-name="sterling" unicode="&#xa3;" horiz-adv-x="567" 
d="M524 563c3 -6 3 -8 -3 -15s-19 -16 -27 -19c-5 -2 -8 -2 -12 5c-41 70 -94 114 -183 114c-86 0 -167 -34 -167 -134c0 -46 24 -83 52 -127c0 0 142 -1 158 0c5 0 6 -49 -1 -49h-129c34 -64 61 -149 42 -289h240c8 0 3 -16 0 -27c-3 -10 -8 -22 -12 -22h-436
c-15 0 -16 0 -16 12v23s2 14 13 14h156c19 149 -9 229 -43 289h-125c-8 0 -8 2 -8 8v35c0 4 3 6 6 6h97c-25 39 -45 75 -45 127c0 113 88 185 218 185c114 0 179 -52 225 -136z" />
    <glyph glyph-name="fraction" unicode="&#x2044;" horiz-adv-x="331" 
d="M418 656c-123 -168 -392 -532 -508 -687c-7 -10 -9 -12 -13 -9c-9 7 -20 16 -24 21c-2 3 -3 7 -1 9c116 159 387 525 509 687c6 8 10 15 14 12c8 -5 16 -13 20 -17c5 -5 9 -8 3 -16z" />
    <glyph glyph-name="yen" unicode="&#xa5;" horiz-adv-x="569" 
d="M566 666c-38 -61 -128 -207 -191 -307h133c14 0 14 -1 14 -12v-23c0 -10 -1 -12 -14 -12h-162c-21 -34 -35 -56 -35 -56h197c14 0 14 -1 14 -12v-23c0 -9 -1 -12 -14 -12h-197v-196c0 -12 -1 -13 -11 -13h-35c-6 0 -8 1 -8 14v195h-195c-10 0 -12 1 -12 12v23
c0 10 2 12 12 12h195s-14 22 -35 56h-160c-10 0 -12 1 -12 12v23s2 12 12 12h131c-64 103 -158 254 -192 309c-4 6 -2 10 11 10h36c8 0 9 -1 14 -9c43 -67 222 -358 222 -358s180 290 223 357c6 9 7 10 15 10h37c11 0 12 -3 7 -12z" />
    <glyph glyph-name="florin" unicode="&#x192;" horiz-adv-x="376" 
d="M330 365c0 -9 -3 -10 -13 -10h-119v-363c0 -95 -25 -143 -87 -143c-29 0 -45 6 -60 12c-9 3 -10 6 -9 15c2 14 2 11 4 22c2 13 4 15 19 12c41 -10 81 -14 81 59v386h-85c-12 0 -13 3 -13 12v30c0 8 2 10 13 10h85v142c0 59 34 129 123 129h54c8 0 7 -2 7 -10v-32
c0 -8 -3 -9 -8 -9c-40 0 -87 2 -105 -24c-21 -30 -19 -45 -19 -196h119c11 0 13 -2 13 -12v-30z" />
    <glyph glyph-name="section" unicode="&#xa7;" horiz-adv-x="470" 
d="M433 301c0 -66 -27 -113 -72 -137c39 -20 71 -55 71 -108c0 -101 -77 -163 -201 -163c-94 0 -148 29 -189 99c-4 6 -3 13 5 17l25 14c7 4 12 0 16 -7c28 -48 73 -72 144 -72c98 0 149 38 149 99s-42 87 -132 99c-7 1 -17 2 -23 3c-94 13 -167 57 -167 139
c0 58 23 108 76 134c-47 23 -76 57 -76 111c0 93 77 148 187 148c101 0 158 -41 186 -101c5 -10 1 -12 -7 -16l-25 -12c-7 -4 -12 2 -15 8c-25 45 -69 70 -141 70c-89 0 -132 -38 -132 -90c0 -67 62 -88 150 -99c8 -1 16 -2 21 -3c86 -12 150 -55 150 -133zM284 188
c121 23 146 176 -16 199c-26 4 -73 10 -73 10c-96 -33 -129 -169 12 -198c66 -14 77 -11 77 -11z" />
    <glyph glyph-name="currency" unicode="&#xa4;" 
d="M793 300c0 -205 -168 -373 -373 -373s-373 168 -373 373s168 373 373 373s373 -168 373 -373zM693 491l-48 -29l-9 78l-65 -109l-127 53l23 54l40 40l-103 33l-106 -73l82 -13l2 -49l-107 -51l-100 97l9 -104l-48 33l73 -189l193 38l-127 -224l21 -51l48 24l67 220
l-26 -218l46 -36l36 41l-25 215l63 -209l57 -9l16 43l-129 206l193 -22zM478 573l-32 -35l-35 -68l-13 48l12 17l-68 11l26 13l17 -5l-1 19l28 19zM658 436l-30 -128l-35 38l-38 -26l-28 30l-31 -20l-45 40l-35 -47l-52 44l-22 -53l-37 28l-12 -35l-38 29l-34 -39l-38 91
l33 -14l11 58l38 -48l128 53l21 -52l16 62l148 -56l47 59l8 -40zM559 94l-32 -18l-30 100zM448 53l-40 1l18 142zM353 160l-28 -107l-29 17z" />
    <glyph glyph-name="quotesingle" unicode="'" horiz-adv-x="198" 
d="M127 679c0 -36 -1 -119 -1 -144c0 -53 -22 -82 -26 -82c-3 0 -26 33 -26 82c0 25 -1 110 -1 144c0 3 10 9 26 9c20 0 28 -6 28 -9z" />
    <glyph glyph-name="quotedblleft" unicode="&#x201c;" horiz-adv-x="206" 
d="M188 526c0 -10 -1 -13 -4 -13c-4 0 -7 6 -8 9c-25 50 -42 86 -68 141c-1 3 -2 6 -2 9c0 4 1 6 4 6h72c3 0 6 0 6 -10v-142zM82 526c0 -10 -1 -13 -4 -13c-4 0 -7 6 -8 9c-25 50 -42 86 -68 141c-1 3 -2 6 -2 9c0 4 1 6 4 6h72c3 0 6 0 6 -10v-142z" />
    <glyph glyph-name="guillemotleft" unicode="&#xab;" horiz-adv-x="534" 
d="M476 15c0 -6 -3 -7 -5 -7c-4 0 -6 2 -8 4c-85 81 -156 149 -230 229c-1 1 -4 4 -4 10c0 5 3 10 4 11c62 66 166 170 230 232c3 3 5 3 9 2c3 -1 4 -3 4 -11v-32c0 -11 -3 -15 -8 -20c-65 -63 -183 -182 -183 -182s144 -140 183 -179c7 -7 8 -10 8 -19v-38zM286 15
c0 -6 -3 -7 -5 -7c-4 0 -6 2 -8 4c-85 81 -156 149 -230 229c-1 1 -4 4 -4 10c0 5 3 10 4 11c62 66 166 170 230 232c3 3 6 4 9 2s4 -4 4 -11v-32c0 -11 -2 -14 -8 -20c-65 -63 -183 -182 -183 -182s144 -140 183 -179c7 -7 8 -10 8 -19v-38z" />
    <glyph glyph-name="guilsinglleft" unicode="&#x2039;" horiz-adv-x="289" 
d="M259 15c0 -6 -3 -7 -5 -7c-4 0 -6 2 -8 4c-85 81 -156 149 -230 229c-1 1 -4 4 -4 10c0 5 3 10 4 11c62 66 166 170 230 232c2 2 4 3 9 0c2 -2 4 -2 4 -9v-32c0 -11 -2 -14 -8 -20c-65 -63 -183 -182 -183 -182s144 -140 183 -179c8 -8 8 -12 8 -19v-38z" />
    <glyph glyph-name="guilsinglright" unicode="&#x203a;" horiz-adv-x="289" 
d="M279 251c0 -6 -3 -9 -4 -10c-74 -80 -145 -148 -230 -229c-2 -2 -4 -4 -8 -4c-2 0 -5 1 -5 7v38c0 10 2 13 8 19c39 39 183 179 183 179s-118 119 -183 182c-6 6 -8 9 -8 20v32c0 7 2 7 4 9c5 3 8 1 9 0c64 -62 168 -166 230 -232c1 -1 4 -6 4 -11z" />
    <glyph glyph-name="fi" unicode="&#xfb01;" horiz-adv-x="442" 
d="M375 581c0 -7 -3 -8 -9 -8h-42c-5 0 -6 3 -6 7v45c0 4 2 5 7 5h40c8 0 10 -1 10 -8v-41zM372 10c0 -7 0 -10 -9 -10h-32s-10 2 -10 13v484c0 7 2 8 8 8h33c10 0 10 0 10 -8v-487zM271 678c3 -3 2 -5 -2 -11c-8 -13 -10 -16 -20 -29c-3 -4 -6 -3 -8 -1
c-16 16 -29 22 -55 22c-43 0 -67 -28 -67 -85v-63c0 -5 1 -6 8 -6h98c4 0 5 -2 5 -5v-38c0 -4 -1 -6 -7 -6h-104v-449c0 -6 -1 -7 -7 -7h-39c-4 0 -5 2 -5 8v448h-54c-3 0 -5 2 -5 8v38c0 3 1 3 5 3h54v72c0 81 52 132 121 132c37 0 64 -13 82 -31z" />
    <glyph glyph-name="fl" unicode="&#xfb02;" horiz-adv-x="442" 
d="M372 10c0 -7 -2 -10 -8 -10h-35c-6 0 -8 2 -8 13v670c0 9 1 9 10 9h32c7 0 9 0 9 -9v-673zM271 678c3 -3 2 -5 -2 -11c-8 -13 -10 -16 -20 -29c-3 -4 -6 -3 -8 -1c-16 16 -29 22 -55 22c-43 0 -67 -28 -67 -85v-63c0 -5 1 -6 8 -6h98c4 0 5 -3 5 -6v-37c0 -4 -1 -6 -7 -6
h-104v-449c0 -5 -1 -7 -6 -7h-40c-4 0 -5 2 -5 8v448h-54c-3 0 -5 2 -5 8v35c0 5 1 6 5 6h54v72c0 81 52 132 121 132c37 0 64 -13 82 -31z" />
    <glyph glyph-name="endash" unicode="&#x2013;" horiz-adv-x="410" 
d="M410 333c0 -10 -1 -12 -14 -12h-384c-10 0 -12 2 -12 12v23c0 11 3 12 12 12h384c13 0 14 -2 14 -12v-23z" />
    <glyph glyph-name="dagger" unicode="&#x2020;" horiz-adv-x="547" 
d="M525 409c0 -2 -2 -3 -5 -3c-22 1 -207 4 -217 4c0 -27 -8 -522 -8 -570c0 -4 -1 -5 -4 -5h-35c-3 0 -2 1 -2 5c0 37 -10 547 -10 571c-18 0 -202 -4 -217 -5c-3 0 -3 1 -3 3v42c0 3 1 3 3 3c23 -1 197 -2 218 -2c1 21 5 218 5 231c0 3 0 3 3 3h42c2 0 3 0 3 -3
c0 -12 2 -211 4 -233c20 0 196 4 218 4c2 0 5 0 5 -3v-42z" />
    <glyph glyph-name="daggerdbl" unicode="&#x2021;" horiz-adv-x="565" 
d="M500 120c0 -3 -3 -3 -5 -3c-22 0 -173 4 -193 4c-2 -22 -4 -221 -4 -233c0 -3 -1 -4 -3 -4h-42c-3 0 -3 1 -3 4c0 13 -4 210 -5 231c-21 0 -119 -2 -193 -2c-2 0 -3 0 -3 3v42c0 2 0 3 3 3c15 -1 174 -5 192 -5v251c-18 0 -177 -4 -192 -5c-3 0 -3 1 -3 3v42c0 3 1 2 3 2
c74 0 172 -1 193 -1c1 21 5 218 5 231c0 3 0 3 3 3h42c2 0 3 0 3 -3c0 -12 2 -211 4 -233c20 0 171 4 193 4c2 0 5 0 5 -3v-42c0 -2 -2 -3 -5 -3c-22 1 -182 4 -192 4v-249c10 0 170 3 192 4c3 0 5 -1 5 -3v-42z" />
    <glyph glyph-name="periodcentered" unicode="&#xb7;" horiz-adv-x="170" 
d="M118 319c0 -11 -1 -13 -13 -13h-50c-10 0 -12 2 -12 12v53c0 10 6 10 11 10h55c9 0 9 -1 9 -11v-51z" />
    <glyph glyph-name="paragraph" unicode="&#xb6;" horiz-adv-x="641" 
d="M562 -62c0 -10 0 -9 -7 -9h-49l-5 697h-48c-2 -73 -25 -697 -25 -697h-49c-6 0 -7 1 -6 9c0 0 4 118 9 264h-78c-157 0 -238 91 -238 235c0 147 84 241 239 241h245c2 0 7 1 7 -9v-323c0 -125 5 -398 5 -408zM397 626h-89c-121 0 -180 -71 -180 -190
c0 -108 56 -182 178 -182h78c4 130 9 273 13 372z" />
    <glyph glyph-name="bullet" unicode="&#x2022;" horiz-adv-x="640" 
d="M613 286c0 -162 -132 -295 -295 -295s-295 133 -295 295c0 163 132 296 295 296s295 -133 295 -296z" />
    <glyph glyph-name="quotesinglbase" unicode="&#x201a;" horiz-adv-x="100" 
d="M107 51c0 -3 -1 -6 -2 -9c-25 -54 -43 -91 -68 -141c-1 -3 -4 -9 -8 -9c-3 0 -4 3 -4 13v142c0 10 3 10 6 10h72c3 0 4 -2 4 -6z" />
    <glyph glyph-name="quotedblbase" unicode="&#x201e;" horiz-adv-x="206" 
d="M213 52c0 -3 -1 -6 -2 -9c-27 -57 -43 -91 -68 -141c-1 -3 -4 -9 -8 -9c-3 0 -4 3 -4 13v142c0 10 3 10 6 10h72c3 0 4 -2 4 -6zM107 52c0 -3 -1 -6 -2 -9c-26 -56 -43 -91 -68 -141c-1 -3 -4 -9 -8 -9c-3 0 -4 3 -4 13v142c0 10 3 10 6 10h72c3 0 4 -2 4 -6z" />
    <glyph glyph-name="quotedblright" unicode="&#x201d;" horiz-adv-x="206" 
d="M206 672c0 -3 -1 -6 -2 -9c-28 -58 -43 -91 -68 -141c-1 -3 -4 -9 -8 -9c-3 0 -4 3 -4 13v142c0 10 3 10 6 10h72c3 0 4 -2 4 -6zM100 672c0 -3 -1 -6 -2 -9c-27 -56 -43 -91 -68 -141c-1 -3 -4 -9 -8 -9c-3 0 -4 3 -4 13v142c0 10 3 10 6 10h72c3 0 4 -2 4 -6z" />
    <glyph glyph-name="guillemotright" unicode="&#xbb;" horiz-adv-x="534" 
d="M493 251c0 -6 -3 -9 -4 -10c-74 -80 -145 -148 -230 -229c-2 -2 -5 -5 -8 -5c-2 0 -5 2 -5 8v38c0 10 1 12 8 19c39 39 183 179 183 179s-118 119 -183 182c-6 6 -8 9 -8 20v32c0 7 1 9 4 11s7 0 9 -2c64 -62 168 -166 230 -232c1 -1 4 -6 4 -11zM303 251
c0 -6 -3 -9 -4 -10c-74 -80 -145 -148 -230 -229c-2 -2 -5 -5 -8 -5c-2 0 -5 2 -5 8v38c0 9 1 12 8 19c39 39 183 179 183 179s-118 119 -183 182c-6 6 -8 9 -8 20v32c0 7 1 9 4 11s5 2 9 -2c64 -62 168 -166 230 -232c1 -1 4 -6 4 -11z" />
    <glyph glyph-name="ellipsis" unicode="&#x2026;" horiz-adv-x="555" 
d="M510 13c0 -11 -1 -13 -13 -13h-50c-10 0 -12 2 -12 12v53c0 10 6 10 11 10h55c9 0 9 -1 9 -11v-51zM314 13c0 -11 -1 -13 -13 -13h-50c-10 0 -12 2 -12 12v53c0 10 6 10 11 10h55c9 0 9 -1 9 -11v-51zM118 13c0 -11 -1 -13 -13 -13h-50c-10 0 -12 2 -12 12v53
c0 10 6 10 11 10h55c9 0 9 -1 9 -11v-51z" />
    <glyph glyph-name="perthousand" unicode="&#x2030;" horiz-adv-x="1251" 
d="M1215 174c0 -102 -74 -181 -185 -181c-113 0 -193 78 -193 181c0 101 79 183 190 183c114 0 188 -82 188 -183zM801 174c0 -102 -74 -181 -185 -181c-113 0 -193 78 -193 181c0 101 79 183 190 183c114 0 188 -82 188 -183zM710 655c-193 -228 -518 -631 -531 -661
c-18 1 -47 22 -46 35c187 214 505 615 535 657c16 -10 29 -21 42 -31zM401 497c0 -102 -74 -181 -187 -181c-111 0 -191 81 -191 181c0 102 79 181 190 181c114 0 188 -79 188 -181zM1168 170c0 70 -49 143 -141 143c-91 0 -143 -73 -143 -143c0 -68 45 -136 143 -136
c92 0 141 68 141 136zM754 170c0 70 -49 143 -141 143c-91 0 -143 -73 -143 -143c0 -68 45 -136 143 -136c92 0 141 68 141 136zM352 497c0 70 -49 141 -141 141s-141 -71 -141 -141s43 -136 141 -136c92 0 141 66 141 136z" />
    <glyph glyph-name="questiondown" unicode="&#xbf;" horiz-adv-x="430" 
d="M23 163c0 101 74 159 112 200c47 51 78 84 78 169c0 6 -1 9 4 9h44c4 0 4 0 4 -7c0 -79 -36 -137 -79 -185c-46 -51 -113 -99 -113 -185c0 -75 58 -132 143 -132c78 0 137 56 159 149c1 6 5 7 10 5c15 -7 19 -8 30 -13c5 -2 6 -4 4 -13c-23 -106 -105 -178 -203 -178
c-96 0 -193 60 -193 181zM206 662c0 13 3 16 10 16h46s10 0 10 -15v-39c0 -11 -1 -14 -10 -14h-46s-10 1 -10 14v38z" />
    <glyph glyph-name="grave" unicode="`" horiz-adv-x="400" 
d="M277 558c3 -4 2 -7 -2 -9c-6 -3 -35 -3 -40 2c-35 35 -91 96 -112 118c-4 4 -8 6 -8 10s1 6 4 9c7 7 22 20 28 25s9 6 13 0c19 -25 114 -151 117 -155z" />
    <glyph glyph-name="acute" unicode="&#xb4;" horiz-adv-x="400" 
d="M275 677c-1 -2 -4 -5 -7 -8c-21 -22 -92 -86 -132 -118c-6 -4 -14 -5 -20 -2c-4 2 -5 5 -2 9s98 130 117 155c3 4 8 4 13 0c6 -5 24 -20 31 -27c3 -3 2 -6 0 -9z" />
    <glyph glyph-name="circumflex" unicode="&#x2c6;" horiz-adv-x="400" 
d="M371 554c-1 -4 -4 -4 -10 -4h-19c-2 0 -4 1 -8 3c-29 17 -127 105 -127 105s-95 -92 -124 -106c-3 -1 -5 -2 -7 -2h-24c-4 0 -6 0 -6 4s2 4 5 7c59 60 91 92 148 151c2 2 4 6 8 6c5 0 6 -3 10 -7c57 -57 128 -128 147 -148c4 -4 8 -5 7 -9z" />
    <glyph glyph-name="tilde" unicode="&#x2dc;" horiz-adv-x="400" 
d="M398 661c-2 -10 -45 -90 -116 -90c-37 0 -68 30 -80 38c-13 8 -33 27 -65 27c-30 0 -47 -17 -59 -27c-7 -6 -22 -20 -27 -22c-8 -3 -7 -3 -7 7c0 21 46 92 116 92c32 0 65 -28 74 -35c14 -8 38 -29 64 -29c31 0 49 14 63 26s24 22 29 24c11 3 11 -1 8 -11z" />
    <glyph glyph-name="macron" unicode="&#xaf;" horiz-adv-x="400" 
d="M353 611c0 -7 -5 -12 -13 -12h-273c-12 0 -14 1 -14 12v25c0 2 2 12 14 12h273c8 0 13 -1 13 -12v-25z" />
    <glyph glyph-name="breve" unicode="&#x2d8;" horiz-adv-x="400" 
d="M365 656c5 -4 5 -9 -2 -18c-37 -51 -78 -76 -161 -76c-75 0 -128 32 -162 78c-7 8 -5 15 -1 18c7 6 17 14 24 19c2 2 11 5 16 -1c29 -37 77 -65 123 -65c43 0 90 18 120 64c3 4 12 4 16 1c7 -5 20 -14 27 -20z" />
    <glyph glyph-name="dotaccent" unicode="&#x2d9;" horiz-adv-x="400" 
d="M218 582c0 -9 -6 -11 -13 -11h-50c-7 0 -8 5 -8 10v53c0 6 3 9 9 9h48c10 0 14 -3 14 -12v-49z" />
    <glyph glyph-name="dieresis" unicode="&#xa8;" horiz-adv-x="400" 
d="M345 606c0 -8 -1 -10 -9 -10h-64c-6 0 -7 4 -7 9v55c0 5 2 8 8 8h62s10 -3 10 -11v-51zM140 606c0 -8 -2 -10 -9 -10h-63c-7 0 -8 4 -8 9v55c0 5 3 8 9 8h60c10 0 11 -3 11 -11v-51z" />
    <glyph glyph-name="ring" unicode="&#x2da;" horiz-adv-x="400" 
d="M334 658c0 -68 -55 -123 -123 -123s-123 55 -123 123s55 123 123 123s123 -55 123 -123zM295 658c0 47 -37 83 -84 83s-84 -36 -84 -83s37 -83 84 -83s84 36 84 83z" />
    <glyph glyph-name="cedilla" unicode="&#xb8;" horiz-adv-x="400" 
d="M335 -105c0 -64 -48 -119 -144 -119c-59 0 -106 25 -124 79c-1 6 0 8 4 10l33 14c3 1 4 0 5 -2c11 -32 44 -57 82 -57c54 0 99 30 99 83c0 72 -94 97 -122 97h49c82 0 118 -64 118 -105z" />
    <glyph glyph-name="hungarumlaut" unicode="&#x2dd;" horiz-adv-x="400" 
d="M373 678c7 -7 3 -13 -4 -19c-22 -21 -91 -69 -132 -98c-10 -7 -29 -3 -22 7c3 4 88 120 107 145c3 4 9 3 13 0c6 -5 31 -28 38 -35zM203 678c7 -7 3 -14 -4 -19c-28 -20 -92 -66 -132 -98c-10 -7 -29 -3 -22 7c3 4 88 120 107 145c3 4 9 3 13 0c6 -5 31 -28 38 -35z" />
    <glyph glyph-name="ogonek" unicode="&#x2db;" horiz-adv-x="400" 
d="M341 -145c-18 -54 -65 -79 -124 -79c-96 0 -144 55 -144 119c0 41 36 105 118 105h49c-28 0 -122 -25 -122 -97c0 -53 45 -83 99 -83c38 0 71 25 82 57c1 2 2 3 5 2l33 -14c4 -2 5 -4 4 -10z" />
    <glyph glyph-name="caron" unicode="&#x2c7;" horiz-adv-x="400" 
d="M370 694c0 -4 -3 -5 -6 -8c-59 -60 -90 -92 -147 -151c-2 -2 -4 -6 -8 -6c-5 0 -6 3 -10 7c-57 57 -128 128 -147 148c-4 4 -8 5 -7 9s4 4 10 4h29c3 0 11 -1 15 -5c14 -14 110 -95 110 -95s95 81 109 95c3 4 8 5 12 5h34c4 0 6 -1 6 -3z" />
    <glyph glyph-name="emdash" unicode="&#x2014;" horiz-adv-x="819" 
d="M819 333c0 -10 -1 -12 -13 -12h-794c-10 0 -12 1 -12 12v23c0 11 1 12 12 12h794c12 0 13 -2 13 -12v-23z" />
    <glyph glyph-name="AE" unicode="&#xc6;" horiz-adv-x="802" 
d="M789 12c0 -12 -1 -12 -11 -12h-397c-8 0 -9 2 -9 14v145h-240s-51 -97 -77 -147c-6 -12 -8 -12 -18 -12h-35c-12 0 -14 2 -7 14c40 75 293 533 362 658c3 6 4 6 16 6h402c8 0 9 -1 9 -11v-31c0 -9 -2 -10 -9 -10h-351v-255h344c8 0 9 -2 9 -9v-33s-2 -10 -9 -10h-345
v-267h355c11 0 11 0 11 -13v-27zM372 211v399c0 0 -20 -48 -34 -71c-72 -131 -179 -328 -179 -328h213z" />
    <glyph glyph-name="ordfeminine" unicode="&#xaa;" horiz-adv-x="560" 
d="M460 305c0 -6 0 -8 -8 -8h-26c-3 0 -6 2 -6 8v61c-24 -43 -84 -77 -154 -77c-114 0 -195 82 -195 194c0 120 74 200 191 200c70 0 126 -30 158 -77v63c0 6 1 7 5 7h28c7 0 7 -2 7 -8v-363zM469 231c0 -10 -1 -11 -18 -11h-341c-15 0 -17 1 -17 11v16c0 10 2 11 17 11h341
c16 0 18 -1 18 -10v-17zM422 486c0 101 -73 163 -156 163c-89 0 -154 -57 -154 -163c0 -91 70 -161 154 -161c100 0 156 67 156 161z" />
    <glyph glyph-name="Lslash" unicode="&#x141;" horiz-adv-x="489" 
d="M477 11c0 -8 -1 -11 -5 -11h-397c-6 0 -7 1 -7 8v235c-25 -14 -49 -28 -49 -28c-6 -3 -12 -7 -18 3s-7 13 -11 20c-3 5 -4 11 7 17c19 11 44 25 71 41v376c0 5 0 6 7 6h44c5 0 5 -1 5 -7v-343c56 32 114 68 154 90c8 4 10 4 13 -1s6 -14 12 -26c5 -11 5 -9 -4 -16
c-24 -14 -106 -60 -175 -100v-223h347c4 0 6 -5 6 -9v-32z" />
    <glyph glyph-name="Oslash" unicode="&#xd8;" horiz-adv-x="790" 
d="M750 337c0 -196 -153 -354 -355 -354c-95 0 -179 35 -242 92c-40 -39 -79 -76 -85 -82c-3 -3 -5 -4 -11 2s-15 14 -24 24c-4 5 -2 10 1 13c5 5 40 39 84 80c-49 61 -78 139 -78 225c0 196 153 355 355 355c95 0 179 -35 241 -93c43 42 72 69 79 75c4 3 7 3 13 -3
c7 -7 12 -13 21 -24c3 -4 3 -9 -1 -12c-5 -5 -35 -32 -77 -72c50 -62 79 -140 79 -226zM596 561c-52 49 -123 80 -201 80c-166 0 -298 -139 -298 -304c0 -69 24 -134 63 -186c122 113 305 287 436 410zM694 337c0 70 -24 135 -64 187c-122 -116 -310 -291 -436 -410
c53 -50 123 -80 201 -80c165 0 299 138 299 303z" />
    <glyph glyph-name="OE" unicode="&#x152;" horiz-adv-x="760" 
d="M733 12c0 -11 -1 -12 -11 -12h-243c-38 0 -92 -4 -98 -4c-194 0 -341 153 -341 341s147 343 341 343c1 0 58 -2 98 -2h240c8 0 9 -1 9 -11v-27c0 -10 -2 -14 -9 -14h-282v-255h274c9 0 10 -2 10 -10v-30c0 -10 -2 -12 -10 -12h-275v-267h286c10 0 11 -2 11 -13v-27z
M381 46v583c-159 0 -286 -134 -286 -292s128 -291 286 -291z" />
    <glyph glyph-name="ordmasculine" unicode="&#xba;" horiz-adv-x="560" 
d="M496 479c0 -119 -89 -201 -215 -201c-123 0 -212 82 -212 201c0 117 85 202 212 202c126 0 215 -81 215 -202zM469 223c0 -9 -1 -11 -18 -11h-341c-14 0 -17 2 -17 12v14c0 9 3 12 17 12h341c16 0 18 -1 18 -10v-17zM456 479c0 93 -76 166 -175 166
c-97 0 -171 -73 -171 -166c0 -92 74 -165 171 -165c99 0 175 73 175 165z" />
    <glyph glyph-name="ae" unicode="&#xe6;" horiz-adv-x="980" 
d="M953 285c0 -25 -1 -33 -10 -46c-3 -4 -9 -5 -16 -5h-405c7 -98 79 -206 203 -206c63 0 110 33 136 55c2 2 6 1 8 -1c9 -12 13 -16 21 -31c2 -4 6 -6 2 -9c-46 -37 -95 -59 -167 -59c-112 0 -181 55 -226 140c-47 -92 -133 -133 -221 -133c-143 0 -244 108 -244 258
c0 160 93 267 239 267c87 0 173 -47 200 -113v94c0 8 2 9 7 9h35c5 0 8 -1 8 -11v-85c20 70 100 111 192 111c155 0 238 -132 238 -235zM906 282c-4 100 -80 194 -191 194c-127 0 -187 -112 -192 -194h383zM473 252c0 129 -85 217 -195 217c-111 0 -192 -76 -192 -217
c0 -121 87 -215 192 -215c125 0 195 90 195 215z" />
    <glyph glyph-name="dotlessi" unicode="&#x131;" horiz-adv-x="184" 
d="M118 10c0 -9 -1 -10 -9 -10h-33c-9 0 -10 0 -10 13v484c0 6 2 8 8 8h34s10 -1 10 -8v-487z" />
    <glyph glyph-name="lslash" unicode="&#x142;" horiz-adv-x="199" 
d="M193 362c5 -11 5 -9 -4 -16c-18 -11 -41 -22 -62 -34v-302c0 -5 -2 -10 -8 -10h-35c-6 0 -8 2 -8 13v271c-23 -13 -37 -21 -49 -28c-5 -3 -12 -7 -18 3c-2 4 -6 9 -9 15c-3 5 -4 11 7 17c23 13 48 27 69 39v353c0 9 1 9 10 9h32c7 0 9 -4 9 -9v-325c12 7 29 17 41 24
c11 7 13 2 17 -5c3 -5 6 -11 8 -15z" />
    <glyph glyph-name="oslash" unicode="&#xf8;" horiz-adv-x="602" 
d="M580 445c-16 -13 -35 -28 -53 -42c26 -42 41 -94 41 -152c0 -158 -112 -268 -269 -268c-81 0 -151 30 -198 82c-22 -18 -44 -36 -65 -53c-4 -4 -7 -2 -12 4c-7 8 -11 12 -18 23c-3 4 -2 9 2 12c14 11 39 31 65 51c-25 42 -39 92 -39 149c0 155 106 269 265 269
c81 0 151 -29 199 -80c21 18 38 31 53 43c3 3 6 2 12 -5c5 -6 13 -16 17 -22c3 -5 4 -8 0 -11zM456 406c-39 42 -95 67 -157 67c-122 0 -214 -98 -214 -222c0 -42 11 -82 30 -115c100 79 238 189 341 270zM517 251c0 44 -12 85 -33 119c-103 -81 -226 -178 -342 -271
c38 -43 94 -69 157 -69c124 0 218 99 218 221z" />
    <glyph glyph-name="oe" unicode="&#x153;" horiz-adv-x="1014" 
d="M991 285c0 -25 -1 -33 -10 -46c-3 -4 -9 -5 -16 -5h-405c7 -98 79 -206 203 -206c63 0 110 33 136 55c2 2 6 1 8 -1c9 -12 13 -16 21 -31c2 -4 6 -6 2 -9c-46 -37 -95 -59 -167 -59c-111 0 -192 53 -230 143c-39 -88 -123 -143 -234 -143c-154 0 -265 109 -265 268
c0 155 106 269 265 269c110 0 194 -53 233 -141c35 87 110 141 221 141c155 0 238 -132 238 -235zM944 282c-4 97 -79 194 -191 194c-110 0 -185 -89 -192 -194h383zM507 251c0 123 -85 222 -208 222c-122 0 -214 -98 -214 -222c0 -122 92 -221 214 -221
c124 0 208 99 208 221z" />
    <glyph glyph-name="germandbls" unicode="&#xdf;" horiz-adv-x="536" 
d="M494 182c0 -104 -70 -186 -180 -186c-21 0 -37 -1 -51 5c-3 1 -6 2 -6 13v25c0 5 -1 14 3 13c14 -4 31 -6 47 -6c76 0 134 54 134 141c0 98 -108 131 -175 132c-4 0 -4 6 -4 10v68c0 5 2 12 2 12c59 8 144 34 144 121c0 85 -50 130 -145 130c-90 0 -152 -56 -152 -158
v-495c0 -3 -1 -7 -4 -7h-43c-4 0 -4 3 -4 9v492c0 125 81 210 199 210c124 0 202 -61 202 -176c0 -99 -88 -167 -196 -170c147 -1 229 -79 229 -183z" />
    <glyph glyph-name="NUL" horiz-adv-x="0" 
 />
    <glyph glyph-name="Eth" unicode="&#xd0;" horiz-adv-x="710" 
d="M670 344c0 -192 -142 -344 -324 -344h-274c-3 0 -4 5 -4 9v312h-28c-12 0 -14 1 -14 12v25s2 10 14 10h28v300c0 8 1 10 4 10h280c169 0 318 -110 318 -334zM616 344c0 188 -119 282 -275 282h-217v-258h189c11 0 12 0 12 -12v-23c0 -11 -1 -12 -12 -12h-189v-269h215
c154 0 277 122 277 292z" />
    <glyph glyph-name="eth" unicode="&#xf0;" horiz-adv-x="602" 
d="M568 251c0 -158 -112 -268 -269 -268c-154 0 -265 109 -265 268c0 170 131 292 308 266c-63 61 -134 128 -147 141c-9 9 -9 10 -3 19c4 7 17 16 23 23c7 7 9 6 16 0c16 -14 90 -88 154 -151c31 33 102 108 117 124c5 5 8 6 12 2c10 -9 22 -24 26 -30c3 -3 5 -6 -1 -12
c-20 -20 -93 -100 -114 -123c18 -18 52 -51 74 -73c34 -34 69 -94 69 -186zM517 251c0 123 -95 222 -218 222c-122 0 -214 -98 -214 -222c0 -122 92 -221 214 -221c124 0 218 99 218 221z" />
    <glyph glyph-name="Scaron" unicode="&#x160;" horiz-adv-x="611" 
d="M560 177c0 -131 -92 -194 -244 -194c-131 0 -228 55 -265 149c-6 15 -4 15 4 18l37 13c9 4 9 1 11 -5c28 -79 106 -126 209 -126c128 0 194 48 194 133c0 91 -70 123 -186 148c-9 2 -29 6 -38 8c-127 29 -212 75 -212 186c0 110 84 185 239 185c135 0 210 -70 239 -151
c3 -9 3 -12 -6 -16l-30 -13c-7 -4 -9 -2 -11 3c-28 77 -89 128 -194 128c-129 0 -183 -55 -183 -129c0 -83 71 -119 175 -141c9 -2 28 -6 38 -8c124 -26 223 -72 223 -188zM466 883c0 -4 -3 -5 -6 -8c-59 -60 -90 -92 -147 -151c-2 -2 -4 -6 -8 -6c-5 0 -6 3 -10 7
c-57 57 -128 128 -147 148c-4 4 -8 5 -7 9s4 4 10 4h29c3 0 11 -1 15 -5c14 -14 110 -95 110 -95s95 81 109 95c3 4 8 5 12 5h34c4 0 6 -1 6 -3z" />
    <glyph glyph-name="scaron" unicode="&#x161;" horiz-adv-x="464" 
d="M427 135c0 -103 -74 -152 -187 -152c-99 0 -166 44 -198 118c-5 11 -3 13 4 16l29 12c11 5 12 5 16 -5c24 -56 73 -94 150 -94c88 0 133 34 133 93c0 46 -16 85 -142 111c-118 24 -172 57 -172 151c0 81 60 137 178 137c100 0 155 -51 180 -113c3 -8 3 -11 -8 -16
l-25 -12c-8 -4 -11 1 -15 10c-21 50 -63 84 -134 84c-93 0 -124 -41 -124 -89c0 -53 37 -81 134 -100c130 -25 181 -79 181 -151zM391 712c0 -4 -3 -5 -6 -8c-59 -60 -90 -92 -147 -151c-2 -2 -4 -6 -8 -6c-5 0 -6 3 -10 7c-57 57 -128 128 -147 148c-4 4 -8 5 -7 9
s4 4 10 4h29c3 0 11 -1 15 -5c14 -14 110 -95 110 -95s95 81 109 95c3 4 8 5 12 5h34c4 0 6 -1 6 -3z" />
    <glyph glyph-name="Yacute" unicode="&#xdd;" horiz-adv-x="569" 
d="M566 666c-60 -98 -254 -410 -254 -410v-243c0 -12 -1 -13 -11 -13h-37c-6 0 -8 1 -8 11v245s-201 325 -255 412c-4 7 -2 10 11 10h36c8 0 9 -1 14 -9c43 -67 222 -358 222 -358s179 288 222 355c7 11 9 12 13 12h40c11 0 12 -3 7 -12zM377 848c-1 -2 -4 -5 -7 -8
c-21 -22 -92 -86 -132 -118c-6 -4 -14 -5 -20 -2c-4 2 -5 5 -2 9s98 130 117 155c3 4 8 4 13 0c6 -5 24 -20 31 -27c3 -3 2 -6 0 -9z" />
    <glyph glyph-name="yacute" unicode="&#xfd;" horiz-adv-x="438" 
d="M435 495c-115 -306 -169 -441 -253 -654c-3 -7 -5 -7 -8 -7h-38c-8 0 -9 2 -6 10c42 101 81 198 86 209c-8 16 -123 252 -214 443c-4 8 -2 9 7 9h42c5 0 6 -2 9 -8c62 -133 159 -343 182 -385c13 40 80 225 139 385c2 7 4 8 11 8h39c5 0 6 -3 4 -10zM325 676
c-1 -2 -4 -5 -7 -8c-21 -22 -92 -86 -132 -118c-6 -4 -14 -5 -20 -2c-4 2 -5 5 -2 9s98 130 117 155c3 4 8 4 13 0c6 -5 24 -20 31 -27c3 -3 2 -6 0 -9z" />
    <glyph glyph-name="Thorn" unicode="&#xde;" horiz-adv-x="591" 
d="M559 352c0 -128 -104 -205 -228 -205h-207v-138c0 -8 -1 -9 -7 -9h-42c-7 0 -7 -1 -7 9v657c0 9 6 12 11 12h35c7 0 11 -3 11 -13v-102h210c128 0 224 -97 224 -211zM504 351c0 99 -81 160 -172 160h-208v-312h210c89 0 170 67 170 152z" />
    <glyph glyph-name="thorn" unicode="&#xfe;" horiz-adv-x="577" 
d="M543 260c0 -159 -96 -269 -242 -269c-86 0 -156 43 -194 101v-246c0 -5 -1 -12 -8 -12h-37c-5 0 -6 3 -6 10v826c0 4 2 8 6 8h34c8 0 11 -6 11 -11v-252c26 60 102 100 189 100c143 0 247 -105 247 -255zM491 256c0 123 -90 211 -195 211c-125 0 -192 -86 -192 -211
c0 -133 88 -218 192 -218c111 0 195 78 195 218z" />
    <glyph glyph-name="Zcaron" unicode="&#x17d;" horiz-adv-x="544" 
d="M526 660c-144 -201 -441 -610 -441 -610h432c7 0 8 -3 8 -11v-28c0 -10 -2 -11 -8 -11h-509c-7 0 -6 19 -3 23c145 203 438 609 438 609h-404c-11 0 -13 1 -13 9v24c0 11 1 13 9 13h489c7 0 5 -14 2 -18zM454 882c0 -4 -3 -5 -6 -8c-59 -60 -90 -92 -147 -151
c-2 -2 -4 -6 -8 -6c-5 0 -6 3 -10 7c-57 57 -128 128 -147 148c-4 4 -8 5 -7 9s4 4 10 4h29c3 0 11 -1 15 -5c14 -14 110 -95 110 -95s95 81 109 95c3 4 8 5 12 5h34c4 0 6 -1 6 -3z" />
    <glyph glyph-name="zcaron" unicode="&#x17e;" horiz-adv-x="429" 
d="M423 495c-115 -155 -342 -450 -342 -450h318c10 0 12 0 12 -6v-31c0 -6 -2 -8 -12 -8h-389c-9 0 -9 16 -4 22c119 159 328 437 328 437h-304c-3 0 -4 1 -4 7v33c0 6 1 6 11 6h384c3 0 4 -7 2 -10zM397 712c0 -4 -3 -5 -6 -8c-59 -60 -90 -92 -147 -151c-2 -2 -4 -6 -8 -6
c-5 0 -6 3 -10 7c-57 57 -128 128 -147 148c-4 4 -8 5 -7 9s4 4 10 4h29c3 0 11 -1 15 -5c14 -14 110 -95 110 -95s95 81 109 95c3 4 8 5 12 5h34c4 0 6 -1 6 -3z" />
    <glyph glyph-name="onehalf" unicode="&#xbd;" 
d="M793 300c0 -205 -168 -373 -373 -373s-373 168 -373 373s168 373 373 373s373 -168 373 -373zM693 491l-48 -29l-9 78l-65 -109l-127 53l23 54l40 40l-103 33l-106 -73l82 -13l2 -49l-107 -51l-100 97l9 -104l-48 33l73 -189l193 38l-127 -224l21 -51l48 24l67 220
l-26 -218l46 -36l36 41l-25 215l63 -209l57 -9l16 43l-129 206l193 -22zM478 573l-32 -35l-35 -68l-13 48l12 17l-68 11l26 13l17 -5l-1 19l28 19zM658 436l-30 -128l-35 38l-38 -26l-28 30l-31 -20l-45 40l-35 -47l-52 44l-22 -53l-37 28l-12 -35l-38 29l-34 -39l-38 91
l33 -14l11 58l38 -48l128 53l21 -52l16 62l148 -56l47 59l8 -40zM559 94l-32 -18l-30 100zM448 53l-40 1l18 142zM353 160l-28 -107l-29 17z" />
    <glyph glyph-name="onequarter" unicode="&#xbc;" 
d="M793 300c0 -205 -168 -373 -373 -373s-373 168 -373 373s168 373 373 373s373 -168 373 -373zM693 491l-48 -29l-9 78l-65 -109l-127 53l23 54l40 40l-103 33l-106 -73l82 -13l2 -49l-107 -51l-100 97l9 -104l-48 33l73 -189l193 38l-127 -224l21 -51l48 24l67 220
l-26 -218l46 -36l36 41l-25 215l63 -209l57 -9l16 43l-129 206l193 -22zM478 573l-32 -35l-35 -68l-13 48l12 17l-68 11l26 13l17 -5l-1 19l28 19zM658 436l-30 -128l-35 38l-38 -26l-28 30l-31 -20l-45 40l-35 -47l-52 44l-22 -53l-37 28l-12 -35l-38 29l-34 -39l-38 91
l33 -14l11 58l38 -48l128 53l21 -52l16 62l148 -56l47 59l8 -40zM559 94l-32 -18l-30 100zM448 53l-40 1l18 142zM353 160l-28 -107l-29 17z" />
    <glyph glyph-name="onesuperior" unicode="&#xb9;" 
d="M793 300c0 -205 -168 -373 -373 -373s-373 168 -373 373s168 373 373 373s373 -168 373 -373zM693 491l-48 -29l-9 78l-65 -109l-127 53l23 54l40 40l-103 33l-106 -73l82 -13l2 -49l-107 -51l-100 97l9 -104l-48 33l73 -189l193 38l-127 -224l21 -51l48 24l67 220
l-26 -218l46 -36l36 41l-25 215l63 -209l57 -9l16 43l-129 206l193 -22zM478 573l-32 -35l-35 -68l-13 48l12 17l-68 11l26 13l17 -5l-1 19l28 19zM658 436l-30 -128l-35 38l-38 -26l-28 30l-31 -20l-45 40l-35 -47l-52 44l-22 -53l-37 28l-12 -35l-38 29l-34 -39l-38 91
l33 -14l11 58l38 -48l128 53l21 -52l16 62l148 -56l47 59l8 -40zM559 94l-32 -18l-30 100zM448 53l-40 1l18 142zM353 160l-28 -107l-29 17z" />
    <glyph glyph-name="threequarters" unicode="&#xbe;" 
d="M793 300c0 -205 -168 -373 -373 -373s-373 168 -373 373s168 373 373 373s373 -168 373 -373zM693 491l-48 -29l-9 78l-65 -109l-127 53l23 54l40 40l-103 33l-106 -73l82 -13l2 -49l-107 -51l-100 97l9 -104l-48 33l73 -189l193 38l-127 -224l21 -51l48 24l67 220
l-26 -218l46 -36l36 41l-25 215l63 -209l57 -9l16 43l-129 206l193 -22zM478 573l-32 -35l-35 -68l-13 48l12 17l-68 11l26 13l17 -5l-1 19l28 19zM658 436l-30 -128l-35 38l-38 -26l-28 30l-31 -20l-45 40l-35 -47l-52 44l-22 -53l-37 28l-12 -35l-38 29l-34 -39l-38 91
l33 -14l11 58l38 -48l128 53l21 -52l16 62l148 -56l47 59l8 -40zM559 94l-32 -18l-30 100zM448 53l-40 1l18 142zM353 160l-28 -107l-29 17z" />
    <glyph glyph-name="threesuperior" unicode="&#xb3;" 
d="M793 300c0 -205 -168 -373 -373 -373s-373 168 -373 373s168 373 373 373s373 -168 373 -373zM693 491l-48 -29l-9 78l-65 -109l-127 53l23 54l40 40l-103 33l-106 -73l82 -13l2 -49l-107 -51l-100 97l9 -104l-48 33l73 -189l193 38l-127 -224l21 -51l48 24l67 220
l-26 -218l46 -36l36 41l-25 215l63 -209l57 -9l16 43l-129 206l193 -22zM478 573l-32 -35l-35 -68l-13 48l12 17l-68 11l26 13l17 -5l-1 19l28 19zM658 436l-30 -128l-35 38l-38 -26l-28 30l-31 -20l-45 40l-35 -47l-52 44l-22 -53l-37 28l-12 -35l-38 29l-34 -39l-38 91
l33 -14l11 58l38 -48l128 53l21 -52l16 62l148 -56l47 59l8 -40zM559 94l-32 -18l-30 100zM448 53l-40 1l18 142zM353 160l-28 -107l-29 17z" />
    <glyph glyph-name="twosuperior" unicode="&#xb2;" 
d="M793 300c0 -205 -168 -373 -373 -373s-373 168 -373 373s168 373 373 373s373 -168 373 -373zM693 491l-48 -29l-9 78l-65 -109l-127 53l23 54l40 40l-103 33l-106 -73l82 -13l2 -49l-107 -51l-100 97l9 -104l-48 33l73 -189l193 38l-127 -224l21 -51l48 24l67 220
l-26 -218l46 -36l36 41l-25 215l63 -209l57 -9l16 43l-129 206l193 -22zM478 573l-32 -35l-35 -68l-13 48l12 17l-68 11l26 13l17 -5l-1 19l28 19zM658 436l-30 -128l-35 38l-38 -26l-28 30l-31 -20l-45 40l-35 -47l-52 44l-22 -53l-37 28l-12 -35l-38 29l-34 -39l-38 91
l33 -14l11 58l38 -48l128 53l21 -52l16 62l148 -56l47 59l8 -40zM559 94l-32 -18l-30 100zM448 53l-40 1l18 142zM353 160l-28 -107l-29 17z" />
    <glyph glyph-name="brokenbar" unicode="&#xa6;" 
d="M793 300c0 -205 -168 -373 -373 -373s-373 168 -373 373s168 373 373 373s373 -168 373 -373zM693 491l-48 -29l-9 78l-65 -109l-127 53l23 54l40 40l-103 33l-106 -73l82 -13l2 -49l-107 -51l-100 97l9 -104l-48 33l73 -189l193 38l-127 -224l21 -51l48 24l67 220
l-26 -218l46 -36l36 41l-25 215l63 -209l57 -9l16 43l-129 206l193 -22zM478 573l-32 -35l-35 -68l-13 48l12 17l-68 11l26 13l17 -5l-1 19l28 19zM658 436l-30 -128l-35 38l-38 -26l-28 30l-31 -20l-45 40l-35 -47l-52 44l-22 -53l-37 28l-12 -35l-38 29l-34 -39l-38 91
l33 -14l11 58l38 -48l128 53l21 -52l16 62l148 -56l47 59l8 -40zM559 94l-32 -18l-30 100zM448 53l-40 1l18 142zM353 160l-28 -107l-29 17z" />
    <glyph glyph-name="minus" unicode="&#x2212;" 
d="M793 300c0 -205 -168 -373 -373 -373s-373 168 -373 373s168 373 373 373s373 -168 373 -373zM693 491l-48 -29l-9 78l-65 -109l-127 53l23 54l40 40l-103 33l-106 -73l82 -13l2 -49l-107 -51l-100 97l9 -104l-48 33l73 -189l193 38l-127 -224l21 -51l48 24l67 220
l-26 -218l46 -36l36 41l-25 215l63 -209l57 -9l16 43l-129 206l193 -22zM478 573l-32 -35l-35 -68l-13 48l12 17l-68 11l26 13l17 -5l-1 19l28 19zM658 436l-30 -128l-35 38l-38 -26l-28 30l-31 -20l-45 40l-35 -47l-52 44l-22 -53l-37 28l-12 -35l-38 29l-34 -39l-38 91
l33 -14l11 58l38 -48l128 53l21 -52l16 62l148 -56l47 59l8 -40zM559 94l-32 -18l-30 100zM448 53l-40 1l18 142zM353 160l-28 -107l-29 17z" />
    <glyph glyph-name="multiply" unicode="&#xd7;" 
d="M793 300c0 -205 -168 -373 -373 -373s-373 168 -373 373s168 373 373 373s373 -168 373 -373zM693 491l-48 -29l-9 78l-65 -109l-127 53l23 54l40 40l-103 33l-106 -73l82 -13l2 -49l-107 -51l-100 97l9 -104l-48 33l73 -189l193 38l-127 -224l21 -51l48 24l67 220
l-26 -218l46 -36l36 41l-25 215l63 -209l57 -9l16 43l-129 206l193 -22zM478 573l-32 -35l-35 -68l-13 48l12 17l-68 11l26 13l17 -5l-1 19l28 19zM658 436l-30 -128l-35 38l-38 -26l-28 30l-31 -20l-45 40l-35 -47l-52 44l-22 -53l-37 28l-12 -35l-38 29l-34 -39l-38 91
l33 -14l11 58l38 -48l128 53l21 -52l16 62l148 -56l47 59l8 -40zM559 94l-32 -18l-30 100zM448 53l-40 1l18 142zM353 160l-28 -107l-29 17z" />
    <glyph glyph-name="Adieresis" unicode="&#xc4;" horiz-adv-x="671" 
d="M488 738c0 -8 -1 -10 -9 -10h-64c-6 0 -7 4 -7 9v55c0 5 2 8 8 8h62s10 -3 10 -11v-51zM263 738c0 -8 -2 -10 -9 -10h-63c-7 0 -8 4 -8 9v55c0 5 3 8 9 8h60c10 0 11 -3 11 -11v-51zM674 12c4 -8 3 -12 -6 -12h-43c-6 0 -7 1 -11 8l-74 155h-409l-72 -151
c-5 -9 -7 -12 -17 -12h-35c-12 0 -14 2 -8 14c36 75 266 549 329 674c2 4 3 7 8 7s6 -3 8 -7c63 -127 290 -591 330 -676zM518 211c0 0 -97 206 -160 337c-8 17 -20 43 -22 43s-15 -27 -22 -42c-62 -133 -161 -338 -161 -338h365z" />
    <glyph glyph-name="Aring" unicode="&#xc5;" horiz-adv-x="671" 
d="M674 12c5 -11 3 -12 -6 -12h-45c-4 0 -6 2 -9 8l-72 151h-413l-70 -147c-6 -10 -8 -12 -17 -12h-35c-13 0 -14 2 -8 14c31 64 205 423 293 602c-38 17 -66 57 -66 101c0 60 51 111 111 111s111 -51 111 -111c0 -45 -28 -85 -68 -102c88 -179 260 -533 294 -603zM402 717
c0 37 -28 65 -65 65s-65 -28 -65 -65s28 -65 65 -65s65 28 65 65zM518 211c0 0 -95 208 -160 337c-9 17 -20 43 -22 43s-14 -27 -22 -42c-65 -131 -161 -338 -161 -338h365z" />
    <glyph glyph-name="Ccedilla" unicode="&#xc7;" horiz-adv-x="753" 
d="M696 167c-47 -88 -123 -162 -244 -180c17 -20 27 -46 27 -72c0 -64 -45 -119 -141 -119c-59 0 -106 25 -124 79c-1 6 0 8 4 10l33 14c3 1 4 0 5 -2c11 -32 45 -57 82 -57c52 0 96 31 96 83c0 26 -10 45 -25 60h-14c-202 0 -355 158 -355 354s153 355 355 355
c166 0 270 -98 301 -183c4 -11 4 -15 -2 -17l-32 -11c-6 -2 -9 1 -12 9c-27 69 -116 155 -256 155c-168 0 -301 -141 -301 -308c0 -169 132 -307 301 -307c145 0 214 85 258 159c7 12 9 13 17 8l26 -15c6 -4 6 -6 1 -15z" />
    <glyph glyph-name="Eacute" unicode="&#xc9;" horiz-adv-x="572" 
d="M525 12c0 -12 -1 -12 -11 -12h-437c-8 0 -9 2 -9 14v654c0 9 -1 10 5 10h438c8 0 9 -1 9 -11v-25c0 -12 -2 -14 -9 -14h-387v-258h383c5 0 6 -2 6 -14v-20c0 -14 -1 -16 -6 -16h-383v-270h390c11 0 11 0 11 -13v-25zM381 846c-1 -2 -4 -5 -7 -8
c-21 -22 -92 -86 -132 -118c-6 -4 -14 -5 -20 -2c-4 2 -5 5 -2 9s98 130 117 155c3 4 8 4 13 0c6 -5 24 -20 31 -27c3 -3 2 -6 0 -9z" />
    <glyph glyph-name="Ntilde" unicode="&#xd1;" horiz-adv-x="683" 
d="M615 -1c0 -5 -3 -9 -11 -9c-7 0 -11 3 -15 8c-50 61 -465 560 -465 560v-549c0 -8 -1 -9 -7 -9h-41c-6 0 -8 1 -8 10v668c0 5 4 8 9 8c6 0 10 -2 15 -7c66 -72 467 -562 467 -562v552c0 8 2 9 9 9h39c7 0 8 -2 8 -12v-667zM536 806c-2 -10 -45 -90 -116 -90
c-37 0 -68 30 -80 38c-13 8 -33 27 -65 27c-30 0 -47 -17 -59 -27c-7 -6 -22 -20 -27 -22c-8 -3 -7 -3 -7 7c0 21 46 92 116 92c32 0 65 -28 74 -35c14 -8 38 -29 64 -29c31 0 49 14 63 26s24 22 29 24c11 3 11 -1 8 -11z" />
    <glyph glyph-name="Odieresis" unicode="&#xd6;" horiz-adv-x="790" 
d="M547 738c0 -8 -1 -10 -9 -10h-64c-6 0 -7 4 -7 9v55c0 5 2 8 8 8h62s10 -3 10 -11v-51zM322 738c0 -8 -2 -10 -9 -10h-63c-7 0 -8 4 -8 9v55c0 5 3 8 9 8h60c10 0 11 -3 11 -11v-51zM750 337c0 -196 -153 -354 -355 -354s-355 158 -355 354s153 355 355 355
s355 -159 355 -355zM692 337c0 167 -129 305 -297 305s-297 -138 -297 -305s130 -304 297 -304s297 137 297 304z" />
    <glyph glyph-name="Udieresis" unicode="&#xdc;" horiz-adv-x="644" 
d="M474 738c0 -8 -1 -10 -9 -10h-64c-6 0 -7 4 -7 9v55c0 5 2 8 8 8h62s10 -3 10 -11v-51zM249 738c0 -8 -2 -10 -9 -10h-63c-7 0 -8 4 -8 9v55c0 5 3 8 9 8h60c10 0 11 -3 11 -11v-51zM585 258c0 -175 -102 -275 -263 -275s-263 100 -263 276v412c0 7 1 7 7 7h42
c7 0 7 0 7 -8v-411c0 -160 80 -226 207 -226s207 66 207 226v412c0 6 0 7 4 7h45c7 0 7 0 7 -7v-413z" />
    <glyph glyph-name="aacute" unicode="&#xe1;" horiz-adv-x="576" 
d="M520 11c0 -9 -2 -11 -9 -11h-33c-6 0 -8 2 -8 10v82c-29 -58 -104 -102 -192 -102c-143 0 -244 108 -244 258c0 160 93 267 239 267c87 0 157 -41 197 -103v84c0 8 2 9 7 9h35c6 0 8 -2 8 -7v-487zM473 252c0 134 -91 217 -195 217c-111 0 -192 -76 -192 -217
c0 -121 87 -215 192 -215c125 0 195 90 195 215zM367 677c-1 -2 -4 -5 -7 -8c-21 -22 -92 -86 -132 -118c-6 -4 -14 -5 -20 -2c-4 2 -5 5 -2 9s98 130 117 155c3 4 8 4 13 0c6 -5 24 -20 31 -27c3 -3 2 -6 0 -9z" />
    <glyph glyph-name="agrave" unicode="&#xe0;" horiz-adv-x="576" 
d="M520 11c0 -9 -2 -11 -9 -11h-33c-6 0 -8 2 -8 10v82c-29 -58 -104 -102 -192 -102c-143 0 -244 108 -244 258c0 160 93 267 239 267c87 0 157 -41 197 -103v84c0 8 2 9 7 9h35c6 0 8 -2 8 -7v-487zM473 252c0 134 -91 217 -195 217c-111 0 -192 -76 -192 -217
c0 -121 87 -215 192 -215c125 0 195 90 195 215zM344 558c3 -4 2 -7 -2 -9c-6 -3 -35 -3 -40 2c-35 35 -91 96 -112 118c-4 4 -8 6 -8 10s1 6 4 9c7 7 22 20 28 25s9 6 13 0c19 -25 114 -151 117 -155z" />
    <glyph glyph-name="acircumflex" unicode="&#xe2;" horiz-adv-x="576" 
d="M520 11c0 -9 -2 -11 -9 -11h-33c-6 0 -8 2 -8 10v82c-29 -58 -104 -102 -192 -102c-143 0 -244 108 -244 258c0 160 93 267 239 267c87 0 157 -41 197 -103v84c0 8 2 9 7 9h35c6 0 8 -2 8 -7v-487zM473 252c0 134 -91 217 -195 217c-111 0 -192 -76 -192 -217
c0 -121 87 -215 192 -215c125 0 195 90 195 215zM443 551c-1 -4 -4 -4 -10 -4h-19c-2 0 -4 1 -8 3c-29 17 -127 105 -127 105s-95 -92 -124 -106c-3 -1 -5 -2 -7 -2h-24c-4 0 -6 0 -6 4s2 4 5 7c59 60 91 92 148 151c2 2 4 6 8 6c5 0 6 -3 10 -7c57 -57 128 -128 147 -148
c4 -4 8 -5 7 -9z" />
    <glyph glyph-name="adieresis" unicode="&#xe4;" horiz-adv-x="576" 
d="M520 11c0 -9 -2 -11 -9 -11h-33c-6 0 -8 2 -8 10v82c-29 -58 -104 -102 -192 -102c-143 0 -244 108 -244 258c0 160 93 267 239 267c87 0 157 -41 197 -103v84c0 8 2 9 7 9h35c6 0 8 -2 8 -7v-487zM473 252c0 134 -91 217 -195 217c-111 0 -192 -76 -192 -217
c0 -121 87 -215 192 -215c125 0 195 90 195 215zM440 579c0 -8 -1 -10 -9 -10h-64c-6 0 -7 4 -7 9v55c0 5 2 8 8 8h62s10 -3 10 -11v-51zM235 579c0 -8 -2 -10 -9 -10h-63c-7 0 -8 4 -8 9v55c0 5 3 8 9 8h60c10 0 11 -3 11 -11v-51z" />
    <glyph glyph-name="atilde" unicode="&#xe3;" horiz-adv-x="576" 
d="M520 11c0 -9 -2 -11 -9 -11h-33c-6 0 -8 2 -8 10v82c-29 -58 -104 -102 -192 -102c-143 0 -244 108 -244 258c0 160 93 267 239 267c87 0 157 -41 197 -103v84c0 8 2 9 7 9h35c6 0 8 -2 8 -7v-487zM473 252c0 134 -91 217 -195 217c-111 0 -192 -76 -192 -217
c0 -121 87 -215 192 -215c125 0 195 90 195 215zM460 637c-2 -10 -45 -90 -116 -90c-37 0 -68 30 -80 38c-13 8 -33 27 -65 27c-30 0 -47 -17 -59 -27c-7 -6 -22 -20 -27 -22c-8 -3 -7 -3 -7 7c0 21 46 92 116 92c32 0 65 -28 74 -35c14 -8 38 -29 64 -29c31 0 49 14 63 26
s24 22 29 24c11 3 11 -1 8 -11z" />
    <glyph glyph-name="aring" unicode="&#xe5;" horiz-adv-x="576" 
d="M520 11c0 -9 -2 -11 -9 -11h-33c-6 0 -8 2 -8 10v82c-29 -58 -104 -102 -192 -102c-143 0 -244 108 -244 258c0 160 93 267 239 267c87 0 157 -41 197 -103v84c0 8 2 9 7 9h35c6 0 8 -2 8 -7v-487zM473 252c0 134 -91 217 -195 217c-111 0 -192 -76 -192 -217
c0 -121 87 -215 192 -215c125 0 195 90 195 215zM402 670c0 -68 -55 -123 -123 -123s-123 55 -123 123s55 123 123 123s123 -55 123 -123zM363 670c0 47 -37 83 -84 83s-84 -36 -84 -83s37 -83 84 -83s84 36 84 83z" />
    <glyph glyph-name="ccedilla" unicode="&#xe7;" horiz-adv-x="578" 
d="M536 117c-38 -68 -104 -118 -189 -131c35 -21 44 -62 44 -91c0 -62 -41 -119 -134 -119c-59 0 -110 34 -124 79c-2 6 0 8 4 10l28 11c3 1 4 0 5 -2c9 -34 49 -59 87 -59c64 0 93 32 93 88c0 42 -26 66 -54 80c-153 2 -262 111 -262 268c0 155 106 269 267 269
c107 0 191 -50 233 -130c3 -6 3 -8 -3 -12l-31 -17c-5 -3 -8 -2 -12 5c-36 65 -107 107 -188 107c-124 0 -214 -98 -214 -222c0 -122 90 -221 214 -221c86 0 157 51 193 114c2 4 4 5 10 1l29 -17c5 -3 7 -6 4 -11z" />
    <glyph glyph-name="eacute" unicode="&#xe9;" horiz-adv-x="562" 
d="M528 285c0 -25 -1 -33 -10 -46c-3 -4 -9 -5 -16 -5h-415c4 -109 83 -204 215 -204c63 0 111 32 134 54c2 2 6 1 8 -1c11 -12 14 -15 24 -30c2 -3 6 -6 2 -9c-46 -37 -98 -61 -170 -61c-165 0 -266 109 -266 268c0 155 100 269 259 269c155 0 235 -132 235 -235zM476 282
c-5 99 -72 192 -184 192c-110 0 -197 -87 -204 -192h388zM372 677c-1 -2 -4 -5 -7 -8c-21 -22 -92 -86 -132 -118c-6 -4 -14 -5 -20 -2c-4 2 -5 5 -2 9s98 130 117 155c3 4 8 4 13 0c6 -5 24 -20 31 -27c3 -3 2 -6 0 -9z" />
    <glyph glyph-name="egrave" unicode="&#xe8;" horiz-adv-x="562" 
d="M528 285c0 -25 -1 -33 -10 -46c-3 -4 -9 -5 -16 -5h-415c4 -109 83 -204 215 -204c63 0 111 32 134 54c2 2 6 1 8 -1c11 -12 14 -15 24 -30c2 -3 6 -6 2 -9c-46 -37 -98 -61 -170 -61c-165 0 -266 109 -266 268c0 155 100 269 259 269c155 0 235 -132 235 -235zM476 282
c-5 99 -72 192 -184 192c-110 0 -197 -87 -204 -192h388zM362 558c3 -4 2 -7 -2 -9c-6 -3 -35 -3 -40 2c-35 35 -91 96 -112 118c-4 4 -8 6 -8 10s1 6 4 9c7 7 22 20 28 25s9 6 13 0c19 -25 114 -151 117 -155z" />
    <glyph glyph-name="ecircumflex" unicode="&#xea;" horiz-adv-x="562" 
d="M528 285c0 -25 -1 -33 -10 -46c-3 -4 -9 -5 -16 -5h-415c4 -109 83 -204 215 -204c63 0 111 32 134 54c2 2 6 1 8 -1c11 -12 14 -15 24 -30c2 -3 6 -6 2 -9c-46 -37 -98 -61 -170 -61c-165 0 -266 109 -266 268c0 155 100 269 259 269c155 0 235 -132 235 -235zM476 282
c-5 99 -72 192 -184 192c-110 0 -197 -87 -204 -192h388zM449 554c-1 -4 -4 -4 -10 -4h-19c-2 0 -4 1 -8 3c-29 17 -127 105 -127 105s-95 -92 -124 -106c-3 -1 -5 -2 -7 -2h-24c-4 0 -6 0 -6 4s2 4 5 7c59 60 91 92 148 151c2 2 4 6 8 6c5 0 6 -3 10 -7
c57 -57 128 -128 147 -148c4 -4 8 -5 7 -9z" />
    <glyph glyph-name="edieresis" unicode="&#xeb;" horiz-adv-x="562" 
d="M528 285c0 -25 -1 -33 -10 -46c-3 -4 -9 -5 -16 -5h-415c4 -109 83 -204 215 -204c63 0 111 32 134 54c2 2 6 1 8 -1c11 -12 14 -15 24 -30c2 -3 6 -6 2 -9c-46 -37 -98 -61 -170 -61c-165 0 -266 109 -266 268c0 155 100 269 259 269c155 0 235 -132 235 -235zM476 282
c-5 99 -72 192 -184 192c-110 0 -197 -87 -204 -192h388zM426 579c0 -8 -1 -10 -9 -10h-64c-6 0 -7 4 -7 9v55c0 5 2 8 8 8h62s10 -3 10 -11v-51zM221 579c0 -8 -2 -10 -9 -10h-63c-7 0 -8 4 -8 9v55c0 5 3 8 9 8h60c10 0 11 -3 11 -11v-51z" />
    <glyph glyph-name="iacute" unicode="&#xed;" horiz-adv-x="184" 
d="M118 10c0 -9 -1 -10 -9 -10h-33c-9 0 -10 0 -10 13v484c0 6 2 8 8 8h34s10 -1 10 -8v-487zM175 677c-1 -2 -4 -5 -7 -8c-21 -22 -92 -86 -132 -118c-6 -4 -14 -5 -20 -2c-4 2 -5 5 -2 9s98 130 117 155c3 4 8 4 13 0c6 -5 24 -20 31 -27c3 -3 2 -6 0 -9z" />
    <glyph glyph-name="igrave" unicode="&#xec;" horiz-adv-x="184" 
d="M118 10c0 -9 -1 -10 -9 -10h-33c-9 0 -10 0 -10 13v484c0 6 2 8 8 8h34s10 -1 10 -8v-487zM165 558c3 -4 2 -7 -2 -9c-6 -3 -35 -3 -40 2c-35 35 -91 96 -112 118c-4 4 -8 6 -8 10s1 6 4 9c7 7 22 20 28 25s9 6 13 0c19 -25 114 -151 117 -155z" />
    <glyph glyph-name="icircumflex" unicode="&#xee;" horiz-adv-x="184" 
d="M118 10c0 -9 -1 -10 -9 -10h-33c-9 0 -10 0 -10 13v484c0 6 2 8 8 8h34s10 -1 10 -8v-487zM255 554c-1 -4 -4 -4 -10 -4h-19c-2 0 -4 1 -8 3c-29 17 -127 105 -127 105s-95 -92 -124 -106c-3 -1 -5 -2 -7 -2h-24c-4 0 -6 0 -6 4s2 4 5 7c59 60 91 92 148 151c2 2 4 6 8 6
c5 0 6 -3 10 -7c57 -57 128 -128 147 -148c4 -4 8 -5 7 -9z" />
    <glyph glyph-name="idieresis" unicode="&#xef;" horiz-adv-x="184" 
d="M201 577c0 -8 -1 -10 -9 -10h-64c-6 0 -7 4 -7 9v55c0 5 2 8 8 8h62s10 -3 10 -11v-51zM56 577c0 -8 -2 -10 -9 -10h-63c-7 0 -8 4 -8 9v55c0 5 3 8 9 8h60c10 0 11 -3 11 -11v-51zM118 10c0 -9 -1 -10 -9 -10h-33c-9 0 -10 0 -10 13v484c0 6 2 8 8 8h34s10 -1 10 -8
v-487z" />
    <glyph glyph-name="ntilde" unicode="&#xf1;" horiz-adv-x="518" 
d="M466 14c0 -11 0 -14 -7 -14h-36c-7 0 -9 1 -9 10v322c0 84 -41 134 -133 134c-90 0 -156 -57 -173 -140v-316c0 -8 0 -10 -4 -10h-41c-6 0 -7 1 -7 12v486c0 6 1 7 7 7h35s9 0 9 -9v-78c36 62 105 97 176 97c103 0 183 -51 183 -174v-327zM454 657
c-2 -10 -45 -90 -116 -90c-37 0 -68 30 -80 38c-13 8 -33 27 -65 27c-30 0 -47 -17 -59 -27c-7 -6 -22 -20 -27 -22c-8 -3 -7 -3 -7 7c0 21 46 92 116 92c32 0 65 -28 74 -35c14 -8 38 -29 64 -29c31 0 49 14 63 26s24 22 29 24c11 3 11 -1 8 -11z" />
    <glyph glyph-name="oacute" unicode="&#xf3;" horiz-adv-x="602" 
d="M568 251c0 -158 -110 -268 -267 -268c-154 0 -267 109 -267 268c0 155 108 269 267 269c157 0 267 -108 267 -269zM515 251c0 123 -91 222 -214 222c-122 0 -214 -94 -214 -222c0 -122 92 -221 214 -221c124 0 214 94 214 221zM389 679c-1 -2 -4 -5 -7 -8
c-21 -22 -92 -86 -132 -118c-6 -4 -14 -5 -20 -2c-4 2 -5 5 -2 9s98 130 117 155c3 4 8 4 13 0c6 -5 24 -20 31 -27c3 -3 2 -6 0 -9z" />
    <glyph glyph-name="ograve" unicode="&#xf2;" horiz-adv-x="602" 
d="M568 251c0 -158 -110 -268 -267 -268c-154 0 -267 109 -267 268c0 155 108 269 267 269c157 0 267 -108 267 -269zM515 251c0 123 -91 222 -214 222c-122 0 -214 -94 -214 -222c0 -122 92 -221 214 -221c124 0 214 94 214 221zM382 554c3 -4 2 -7 -2 -9
c-6 -3 -35 -3 -40 2c-35 35 -91 96 -112 118c-4 4 -8 6 -8 10s1 6 4 9c7 7 22 20 28 25s9 6 13 0c19 -25 114 -151 117 -155z" />
    <glyph glyph-name="ocircumflex" unicode="&#xf4;" horiz-adv-x="602" 
d="M568 251c0 -158 -110 -268 -267 -268c-154 0 -267 109 -267 268c0 155 108 269 267 269c157 0 267 -108 267 -269zM515 251c0 123 -91 222 -214 222c-122 0 -214 -94 -214 -222c0 -122 92 -221 214 -221c124 0 214 94 214 221zM464 554c-1 -4 -4 -4 -10 -4h-19
c-2 0 -4 1 -8 3c-29 17 -127 105 -127 105s-95 -92 -124 -106c-3 -1 -5 -2 -7 -2h-24c-4 0 -6 0 -6 4s2 4 5 7c59 60 91 92 148 151c2 2 4 6 8 6c5 0 6 -3 10 -7c57 -57 128 -128 147 -148c4 -4 8 -5 7 -9z" />
    <glyph glyph-name="odieresis" unicode="&#xf6;" horiz-adv-x="602" 
d="M568 251c0 -158 -110 -268 -267 -268c-154 0 -267 109 -267 268c0 155 108 269 267 269c157 0 267 -108 267 -269zM515 251c0 123 -91 222 -214 222c-122 0 -214 -94 -214 -222c0 -122 92 -221 214 -221c124 0 214 94 214 221zM441 579c0 -8 -1 -10 -9 -10h-64
c-6 0 -7 4 -7 9v55c0 5 2 8 8 8h62s10 -3 10 -11v-51zM236 579c0 -8 -2 -10 -9 -10h-63c-7 0 -8 4 -8 9v55c0 5 3 8 9 8h60c10 0 11 -3 11 -11v-51z" />
    <glyph glyph-name="otilde" unicode="&#xf5;" horiz-adv-x="602" 
d="M568 251c0 -158 -110 -268 -267 -268c-154 0 -267 109 -267 268c0 155 108 269 267 269c157 0 267 -108 267 -269zM515 251c0 123 -91 222 -214 222c-122 0 -214 -94 -214 -222c0 -122 92 -221 214 -221c124 0 214 94 214 221zM491 655c-2 -10 -45 -90 -116 -90
c-37 0 -68 30 -80 38c-13 8 -33 27 -65 27c-30 0 -47 -17 -59 -27c-7 -6 -22 -20 -27 -22c-8 -3 -7 -3 -7 7c0 21 46 92 116 92c32 0 65 -28 74 -35c14 -8 38 -29 64 -29c31 0 49 14 63 26s24 22 29 24c11 3 11 -1 8 -11z" />
    <glyph glyph-name="uacute" unicode="&#xfa;" horiz-adv-x="518" 
d="M463 9c0 -8 -1 -9 -6 -9h-36c-8 0 -9 0 -9 12v76c-27 -55 -105 -98 -177 -98c-103 0 -179 64 -179 187v317c0 10 1 11 7 11h36s8 0 8 -11v-308c0 -86 48 -147 134 -147c78 0 154 63 171 146v310c0 9 1 10 6 10h36c9 0 9 0 9 -11v-485zM347 678c-1 -2 -4 -5 -7 -8
c-21 -22 -92 -86 -132 -118c-6 -4 -14 -5 -20 -2c-4 2 -5 5 -2 9s98 130 117 155c3 4 8 4 13 0c6 -5 24 -20 31 -27c3 -3 2 -6 0 -9z" />
    <glyph glyph-name="ugrave" unicode="&#xf9;" horiz-adv-x="518" 
d="M463 9c0 -8 -1 -9 -6 -9h-36c-8 0 -9 0 -9 12v76c-27 -55 -105 -98 -177 -98c-103 0 -179 64 -179 187v317c0 10 1 11 7 11h36s8 0 8 -11v-308c0 -86 48 -147 134 -147c78 0 154 63 171 146v310c0 9 1 10 6 10h36c9 0 9 0 9 -11v-485zM350 559c3 -4 2 -7 -2 -9
c-6 -3 -35 -3 -40 2c-35 35 -91 96 -112 118c-4 4 -8 6 -8 10s1 6 4 9c7 7 22 20 28 25s9 6 13 0c19 -25 114 -151 117 -155z" />
    <glyph glyph-name="ucircumflex" unicode="&#xfb;" horiz-adv-x="518" 
d="M463 9c0 -8 -1 -9 -6 -9h-36c-8 0 -9 0 -9 12v76c-27 -55 -105 -98 -177 -98c-103 0 -179 64 -179 187v317c0 10 1 11 7 11h36s8 0 8 -11v-308c0 -86 48 -147 134 -147c78 0 154 63 171 146v310c0 9 1 10 6 10h36c9 0 9 0 9 -11v-485zM424 554c-1 -4 -4 -4 -10 -4h-19
c-2 0 -4 1 -8 3c-29 17 -127 105 -127 105s-95 -92 -124 -106c-3 -1 -5 -2 -7 -2h-24c-4 0 -6 0 -6 4s2 4 5 7c59 60 91 92 148 151c2 2 4 6 8 6c5 0 6 -3 10 -7c57 -57 128 -128 147 -148c4 -4 8 -5 7 -9z" />
    <glyph glyph-name="udieresis" unicode="&#xfc;" horiz-adv-x="518" 
d="M463 9c0 -8 -1 -9 -6 -9h-36c-8 0 -9 0 -9 12v76c-27 -55 -105 -98 -177 -98c-103 0 -179 64 -179 187v317c0 10 1 11 7 11h36s8 0 8 -11v-308c0 -86 48 -147 134 -147c78 0 154 63 171 146v310c0 9 1 10 6 10h36c9 0 9 0 9 -11v-485zM403 579c0 -8 -1 -10 -9 -10h-64
c-6 0 -7 4 -7 9v55c0 5 2 8 8 8h62s10 -3 10 -11v-51zM198 579c0 -8 -2 -10 -9 -10h-63c-7 0 -8 4 -8 9v55c0 5 3 8 9 8h60c10 0 11 -3 11 -11v-51z" />
    <glyph glyph-name="degree" unicode="&#xb0;" horiz-adv-x="385" 
d="M359 535c0 -91 -74 -164 -165 -164s-165 73 -165 164s74 165 165 165s165 -74 165 -165zM326 535c0 73 -59 132 -132 132s-132 -59 -132 -132s59 -131 132 -131s132 58 132 131z" />
    <glyph glyph-name="registered" unicode="&#xae;" horiz-adv-x="839" 
d="M811 308c0 -216 -176 -392 -392 -392s-392 176 -392 392s176 392 392 392s392 -176 392 -392zM771 308c0 194 -158 352 -352 352s-352 -158 -352 -352s158 -352 352 -352s352 158 352 352zM595 115c0 -9 -4 -11 -10 -11h-20c-14 0 -12 2 -19 11c-41 56 -103 141 -103 141
h-125v-140c0 -10 -1 -12 -11 -12h-19c-10 0 -10 -2 -10 12v383c0 14 7 12 10 12h143c92 0 138 -63 138 -128c0 -58 -37 -100 -82 -117c15 -22 68 -93 103 -141c3 -4 5 -7 5 -10zM528 384c0 54 -29 87 -99 87h-111v-176h115c66 0 95 36 95 89z" />
    <glyph glyph-name="copyright" unicode="&#xa9;" horiz-adv-x="839" 
d="M811 308c0 -216 -176 -392 -392 -392s-392 176 -392 392s176 392 392 392s392 -176 392 -392zM771 308c0 194 -158 352 -352 352s-352 -158 -352 -352s158 -352 352 -352s352 158 352 352zM618 429c2 -3 1 -5 -4 -8l-25 -13c-5 -3 -7 -3 -9 1c-31 53 -92 89 -163 89
c-106 0 -184 -80 -184 -190c0 -103 78 -191 184 -191c73 0 135 45 163 98c3 6 5 5 9 2l24 -14c5 -3 6 -5 3 -10c-37 -67 -110 -111 -198 -111c-134 0 -226 93 -226 226c0 132 91 226 226 226c89 0 158 -34 200 -105z" />
    <glyph glyph-name="trademark" unicode="&#x2122;" horiz-adv-x="661" 
d="M627 347c1 -11 0 -13 -7 -13h-27c-6 0 -7 3 -8 13l-14 239l-109 -160c-7 -10 -16 -9 -23 1l-107 159l-13 -237c-1 -13 -2 -15 -11 -15h-23s-9 3 -8 15l22 324c1 11 12 8 16 2l138 -195l138 197c4 7 12 5 13 -7zM282 647c0 -8 -2 -9 -10 -9h-102v-293c0 -11 -2 -11 -9 -11
h-23c-9 0 -9 2 -9 11v293h-104c-7 0 -8 2 -8 11v19c0 10 2 10 9 10h247c7 0 9 -1 9 -9v-22z" />
    <glyph glyph-name="notequal" unicode="&#x2260;" horiz-adv-x="470" 
d="M506 678c3 -3 2 -5 -2 -11c-5 -9 -14 -21 -20 -29c-3 -4 -6 -3 -8 -1c-16 16 -29 22 -55 22c-43 0 -67 -28 -67 -85v-63c0 -5 1 -6 8 -6h98c2 0 5 0 5 -3v-40c0 -3 -4 -6 -7 -6h-104v-449c0 -5 -4 -7 -9 -7h-37c-3 0 -5 4 -5 8v448h-54c-3 0 -5 2 -5 8v38c0 3 3 3 5 3h54
v72c0 81 52 132 121 132c37 0 64 -13 82 -31zM271 678c3 -3 2 -5 -2 -11c-6 -10 -14 -21 -20 -29c-3 -4 -6 -3 -8 -1c-16 16 -29 22 -55 22c-43 0 -67 -28 -67 -85v-63c0 -5 1 -6 8 -6h98c2 0 5 0 5 -3v-40c0 -3 -4 -6 -7 -6h-104v-449c0 -5 -4 -7 -9 -7h-37c-3 0 -5 4 -5 8
v448h-54c-3 0 -5 2 -5 8v38c0 3 3 3 5 3h54v72c0 81 52 132 121 132c37 0 64 -13 82 -31z" />
    <glyph glyph-name="infinity" unicode="&#x221e;" horiz-adv-x="678" 
d="M610 581c0 -7 -3 -8 -9 -8h-42c-5 0 -6 3 -6 7v45c0 4 2 5 7 5h40c8 0 10 -1 10 -8v-41zM607 10c0 -8 -1 -10 -9 -10h-32c-9 0 -10 2 -10 13v484c0 7 2 8 8 8h33s10 0 10 -8v-487zM506 678c3 -3 2 -5 -2 -11c-5 -9 -12 -18 -20 -29c-3 -4 -6 -3 -8 -1
c-16 16 -29 22 -55 22c-43 0 -67 -28 -67 -85v-63c0 -5 1 -6 8 -6h98c2 0 5 0 5 -3v-40c0 -3 -4 -6 -7 -6h-104v-449c0 -5 -4 -7 -9 -7h-37c-3 0 -5 4 -5 8v448h-54c-3 0 -5 2 -5 8v38c0 3 3 3 5 3h54v72c0 81 52 132 121 132c37 0 64 -13 82 -31zM271 678c3 -3 2 -5 -2 -11
c-8 -13 -10 -16 -20 -29c-3 -4 -6 -3 -8 -1c-16 16 -29 22 -55 22c-43 0 -67 -28 -67 -85v-63c0 -5 1 -6 8 -6h98c2 0 5 0 5 -3v-40c0 -3 -4 -6 -7 -6h-104v-449c0 -5 -4 -7 -9 -7h-37c-3 0 -5 4 -5 8v448h-54c-3 0 -5 2 -5 8v38c0 3 3 3 5 3h54v72c0 81 52 132 121 132
c37 0 64 -13 82 -31z" />
    <glyph glyph-name="plusminus" unicode="&#xb1;" horiz-adv-x="678" 
d="M607 10c0 -7 0 -10 -8 -10h-35c-6 0 -8 2 -8 13v668c0 10 1 11 10 11h32c7 0 9 0 9 -9v-673zM506 678c3 -3 2 -5 -2 -11c-8 -13 -10 -16 -20 -29c-3 -4 -6 -3 -8 -1c-16 16 -29 22 -55 22c-43 0 -67 -28 -67 -85v-63c0 -5 1 -6 8 -6h98c2 0 5 0 5 -3v-40
c0 -3 -4 -6 -7 -6h-104v-449c0 -5 -4 -7 -9 -7h-37c-3 0 -5 4 -5 8v448h-54c-3 0 -5 2 -5 8v38c0 3 3 3 5 3h54v72c0 81 52 132 121 132c37 0 64 -13 82 -31zM271 678c3 -3 2 -5 -2 -11c-8 -13 -10 -16 -20 -29c-3 -4 -6 -3 -8 -1c-16 16 -29 22 -55 22
c-43 0 -67 -28 -67 -85v-63c0 -5 1 -6 8 -6h98c2 0 5 0 5 -3v-40c0 -3 -4 -6 -7 -6h-104v-449c0 -5 -4 -7 -9 -7h-37c-3 0 -5 4 -5 8v448h-54c-3 0 -5 2 -5 8v38c0 3 3 3 5 3h54v72c0 81 52 132 121 132c37 0 64 -13 82 -31z" />
    <glyph glyph-name="lessequal" unicode="&#x2264;" 
d="M793 300c0 -205 -168 -373 -373 -373s-373 168 -373 373s168 373 373 373s373 -168 373 -373zM693 491l-48 -29l-9 78l-65 -109l-127 53l23 54l40 40l-103 33l-106 -73l82 -13l2 -49l-107 -51l-100 97l9 -104l-48 33l73 -189l193 38l-127 -224l21 -51l48 24l67 220
l-26 -218l46 -36l36 41l-25 215l63 -209l57 -9l16 43l-129 206l193 -22zM478 573l-32 -35l-35 -68l-13 48l12 17l-68 11l26 13l17 -5l-1 19l28 19zM658 436l-30 -128l-35 38l-38 -26l-28 30l-31 -20l-45 40l-35 -47l-52 44l-22 -53l-37 28l-12 -35l-38 29l-34 -39l-38 91
l33 -14l11 58l38 -48l128 53l21 -52l16 62l148 -56l47 59l8 -40zM559 94l-32 -18l-30 100zM448 53l-40 1l18 142zM353 160l-28 -107l-29 17z" />
    <glyph glyph-name="greaterequal" unicode="&#x2265;" 
d="M793 300c0 -205 -168 -373 -373 -373s-373 168 -373 373s168 373 373 373s373 -168 373 -373zM693 491l-48 -29l-9 78l-65 -109l-127 53l23 54l40 40l-103 33l-106 -73l82 -13l2 -49l-107 -51l-100 97l9 -104l-48 33l73 -189l193 38l-127 -224l21 -51l48 24l67 220
l-26 -218l46 -36l36 41l-25 215l63 -209l57 -9l16 43l-129 206l193 -22zM478 573l-32 -35l-35 -68l-13 48l12 17l-68 11l26 13l17 -5l-1 19l28 19zM658 436l-30 -128l-35 38l-38 -26l-28 30l-31 -20l-45 40l-35 -47l-52 44l-22 -53l-37 28l-12 -35l-38 29l-34 -39l-38 91
l33 -14l11 58l38 -48l128 53l21 -52l16 62l148 -56l47 59l8 -40zM559 94l-32 -18l-30 100zM448 53l-40 1l18 142zM353 160l-28 -107l-29 17z" />
    <glyph glyph-name="mu" unicode="&#xb5;" 
d="M793 300c0 -205 -168 -373 -373 -373s-373 168 -373 373s168 373 373 373s373 -168 373 -373zM693 491l-48 -29l-9 78l-65 -109l-127 53l23 54l40 40l-103 33l-106 -73l82 -13l2 -49l-107 -51l-100 97l9 -104l-48 33l73 -189l193 38l-127 -224l21 -51l48 24l67 220
l-26 -218l46 -36l36 41l-25 215l63 -209l57 -9l16 43l-129 206l193 -22zM478 573l-32 -35l-35 -68l-13 48l12 17l-68 11l26 13l17 -5l-1 19l28 19zM658 436l-30 -128l-35 38l-38 -26l-28 30l-31 -20l-45 40l-35 -47l-52 44l-22 -53l-37 28l-12 -35l-38 29l-34 -39l-38 91
l33 -14l11 58l38 -48l128 53l21 -52l16 62l148 -56l47 59l8 -40zM559 94l-32 -18l-30 100zM448 53l-40 1l18 142zM353 160l-28 -107l-29 17z" />
    <glyph glyph-name="partialdiff" unicode="&#x2202;" 
d="M793 300c0 -205 -168 -373 -373 -373s-373 168 -373 373s168 373 373 373s373 -168 373 -373zM693 491l-48 -29l-9 78l-65 -109l-127 53l23 54l40 40l-103 33l-106 -73l82 -13l2 -49l-107 -51l-100 97l9 -104l-48 33l73 -189l193 38l-127 -224l21 -51l48 24l67 220
l-26 -218l46 -36l36 41l-25 215l63 -209l57 -9l16 43l-129 206l193 -22zM478 573l-32 -35l-35 -68l-13 48l12 17l-68 11l26 13l17 -5l-1 19l28 19zM658 436l-30 -128l-35 38l-38 -26l-28 30l-31 -20l-45 40l-35 -47l-52 44l-22 -53l-37 28l-12 -35l-38 29l-34 -39l-38 91
l33 -14l11 58l38 -48l128 53l21 -52l16 62l148 -56l47 59l8 -40zM559 94l-32 -18l-30 100zM448 53l-40 1l18 142zM353 160l-28 -107l-29 17z" />
    <glyph glyph-name="summation" unicode="&#x2211;" 
d="M793 300c0 -205 -168 -373 -373 -373s-373 168 -373 373s168 373 373 373s373 -168 373 -373zM693 491l-48 -29l-9 78l-65 -109l-127 53l23 54l40 40l-103 33l-106 -73l82 -13l2 -49l-107 -51l-100 97l9 -104l-48 33l73 -189l193 38l-127 -224l21 -51l48 24l67 220
l-26 -218l46 -36l36 41l-25 215l63 -209l57 -9l16 43l-129 206l193 -22zM478 573l-32 -35l-35 -68l-13 48l12 17l-68 11l26 13l17 -5l-1 19l28 19zM658 436l-30 -128l-35 38l-38 -26l-28 30l-31 -20l-45 40l-35 -47l-52 44l-22 -53l-37 28l-12 -35l-38 29l-34 -39l-38 91
l33 -14l11 58l38 -48l128 53l21 -52l16 62l148 -56l47 59l8 -40zM559 94l-32 -18l-30 100zM448 53l-40 1l18 142zM353 160l-28 -107l-29 17z" />
    <glyph glyph-name="product" unicode="&#x220f;" 
d="M793 300c0 -205 -168 -373 -373 -373s-373 168 -373 373s168 373 373 373s373 -168 373 -373zM693 491l-48 -29l-9 78l-65 -109l-127 53l23 54l40 40l-103 33l-106 -73l82 -13l2 -49l-107 -51l-100 97l9 -104l-48 33l73 -189l193 38l-127 -224l21 -51l48 24l67 220
l-26 -218l46 -36l36 41l-25 215l63 -209l57 -9l16 43l-129 206l193 -22zM478 573l-32 -35l-35 -68l-13 48l12 17l-68 11l26 13l17 -5l-1 19l28 19zM658 436l-30 -128l-35 38l-38 -26l-28 30l-31 -20l-45 40l-35 -47l-52 44l-22 -53l-37 28l-12 -35l-38 29l-34 -39l-38 91
l33 -14l11 58l38 -48l128 53l21 -52l16 62l148 -56l47 59l8 -40zM559 94l-32 -18l-30 100zM448 53l-40 1l18 142zM353 160l-28 -107l-29 17z" />
    <glyph glyph-name="pi" unicode="&#x3c0;" horiz-adv-x="839" 
d="M811 308c0 -216 -176 -392 -392 -392s-392 176 -392 392s176 392 392 392s392 -176 392 -392zM771 308c0 194 -158 352 -352 352s-352 -158 -352 -352s158 -352 352 -352s352 158 352 352zM591 385c0 -77 -60 -128 -136 -128h-112v-134c0 -13 -4 -16 -13 -16h-18
c-13 0 -13 0 -13 16v378c0 17 7 13 13 13h143c83 0 136 -55 136 -129zM548 387c0 59 -37 88 -93 88h-112v-179h113c63 0 92 40 92 91z" />
    <glyph glyph-name="integral" unicode="&#x222b;" 
d="M793 300c0 -205 -168 -373 -373 -373s-373 168 -373 373s168 373 373 373s373 -168 373 -373zM693 491l-48 -29l-9 78l-65 -109l-127 53l23 54l40 40l-103 33l-106 -73l82 -13l2 -49l-107 -51l-100 97l9 -104l-48 33l73 -189l193 38l-127 -224l21 -51l48 24l67 220
l-26 -218l46 -36l36 41l-25 215l63 -209l57 -9l16 43l-129 206l193 -22zM478 573l-32 -35l-35 -68l-13 48l12 17l-68 11l26 13l17 -5l-1 19l28 19zM658 436l-30 -128l-35 38l-38 -26l-28 30l-31 -20l-45 40l-35 -47l-52 44l-22 -53l-37 28l-12 -35l-38 29l-34 -39l-38 91
l33 -14l11 58l38 -48l128 53l21 -52l16 62l148 -56l47 59l8 -40zM559 94l-32 -18l-30 100zM448 53l-40 1l18 142zM353 160l-28 -107l-29 17z" />
    <glyph glyph-name="Omega" unicode="&#x3a9;" 
d="M793 300c0 -205 -168 -373 -373 -373s-373 168 -373 373s168 373 373 373s373 -168 373 -373zM693 491l-48 -29l-9 78l-65 -109l-127 53l23 54l40 40l-103 33l-106 -73l82 -13l2 -49l-107 -51l-100 97l9 -104l-48 33l73 -189l193 38l-127 -224l21 -51l48 24l67 220
l-26 -218l46 -36l36 41l-25 215l63 -209l57 -9l16 43l-129 206l193 -22zM478 573l-32 -35l-35 -68l-13 48l12 17l-68 11l26 13l17 -5l-1 19l28 19zM658 436l-30 -128l-35 38l-38 -26l-28 30l-31 -20l-45 40l-35 -47l-52 44l-22 -53l-37 28l-12 -35l-38 29l-34 -39l-38 91
l33 -14l11 58l38 -48l128 53l21 -52l16 62l148 -56l47 59l8 -40zM559 94l-32 -18l-30 100zM448 53l-40 1l18 142zM353 160l-28 -107l-29 17z" />
    <glyph glyph-name="logicalnot" unicode="&#xac;" 
d="M793 300c0 -205 -168 -373 -373 -373s-373 168 -373 373s168 373 373 373s373 -168 373 -373zM693 491l-48 -29l-9 78l-65 -109l-127 53l23 54l40 40l-103 33l-106 -73l82 -13l2 -49l-107 -51l-100 97l9 -104l-48 33l73 -189l193 38l-127 -224l21 -51l48 24l67 220
l-26 -218l46 -36l36 41l-25 215l63 -209l57 -9l16 43l-129 206l193 -22zM478 573l-32 -35l-35 -68l-13 48l12 17l-68 11l26 13l17 -5l-1 19l28 19zM658 436l-30 -128l-35 38l-38 -26l-28 30l-31 -20l-45 40l-35 -47l-52 44l-22 -53l-37 28l-12 -35l-38 29l-34 -39l-38 91
l33 -14l11 58l38 -48l128 53l21 -52l16 62l148 -56l47 59l8 -40zM559 94l-32 -18l-30 100zM448 53l-40 1l18 142zM353 160l-28 -107l-29 17z" />
    <glyph glyph-name="radical" unicode="&#x221a;" horiz-adv-x="574" 
d="M625 678c-101 -179 -236 -471 -300 -695c-4 -13 -14 -14 -20 -11c-18 7 -26 8 -28 21c-22 132 -148 304 -238 304c-7 0 -11 1 -13 4s-1 8 1 14s13 26 16 31c5 8 7 10 23 4c106 -40 215 -184 244 -306c38 163 196 531 267 656c6 11 9 16 19 12c9 -3 19 -8 28 -13
s8 -8 1 -21z" />
    <glyph glyph-name="approxequal" unicode="&#x2248;" 
d="M793 300c0 -205 -168 -373 -373 -373s-373 168 -373 373s168 373 373 373s373 -168 373 -373zM693 491l-48 -29l-9 78l-65 -109l-127 53l23 54l40 40l-103 33l-106 -73l82 -13l2 -49l-107 -51l-100 97l9 -104l-48 33l73 -189l193 38l-127 -224l21 -51l48 24l67 220
l-26 -218l46 -36l36 41l-25 215l63 -209l57 -9l16 43l-129 206l193 -22zM478 573l-32 -35l-35 -68l-13 48l12 17l-68 11l26 13l17 -5l-1 19l28 19zM658 436l-30 -128l-35 38l-38 -26l-28 30l-31 -20l-45 40l-35 -47l-52 44l-22 -53l-37 28l-12 -35l-38 29l-34 -39l-38 91
l33 -14l11 58l38 -48l128 53l21 -52l16 62l148 -56l47 59l8 -40zM559 94l-32 -18l-30 100zM448 53l-40 1l18 142zM353 160l-28 -107l-29 17z" />
    <glyph glyph-name="Delta" unicode="&#x394;" 
d="M793 300c0 -205 -168 -373 -373 -373s-373 168 -373 373s168 373 373 373s373 -168 373 -373zM693 491l-48 -29l-9 78l-65 -109l-127 53l23 54l40 40l-103 33l-106 -73l82 -13l2 -49l-107 -51l-100 97l9 -104l-48 33l73 -189l193 38l-127 -224l21 -51l48 24l67 220
l-26 -218l46 -36l36 41l-25 215l63 -209l57 -9l16 43l-129 206l193 -22zM478 573l-32 -35l-35 -68l-13 48l12 17l-68 11l26 13l17 -5l-1 19l28 19zM658 436l-30 -128l-35 38l-38 -26l-28 30l-31 -20l-45 40l-35 -47l-52 44l-22 -53l-37 28l-12 -35l-38 29l-34 -39l-38 91
l33 -14l11 58l38 -48l128 53l21 -52l16 62l148 -56l47 59l8 -40zM559 94l-32 -18l-30 100zM448 53l-40 1l18 142zM353 160l-28 -107l-29 17z" />
    <glyph glyph-name="nbspace" unicode="&#xa0;" horiz-adv-x="110" 
 />
    <glyph glyph-name="Agrave" unicode="&#xc0;" horiz-adv-x="671" 
d="M674 12c4 -8 3 -12 -6 -12h-43c-6 0 -7 1 -11 8l-74 155h-409l-72 -151c-5 -9 -7 -12 -17 -12h-35c-12 0 -14 2 -8 14c36 75 266 549 329 674c2 4 3 7 8 7s6 -3 8 -7c63 -127 290 -591 330 -676zM518 211c0 0 -97 206 -160 337c-8 17 -20 43 -22 43s-15 -27 -22 -42
c-62 -133 -161 -338 -161 -338h365zM355 738c3 -4 2 -7 -2 -9c-6 -3 -35 -3 -40 2c-35 35 -91 96 -112 118c-4 4 -8 6 -8 10s1 6 4 9c7 7 22 20 28 25s9 6 13 0c19 -25 114 -151 117 -155z" />
    <glyph glyph-name="Atilde" unicode="&#xc3;" horiz-adv-x="671" 
d="M674 12c4 -8 3 -12 -6 -12h-43c-6 0 -7 1 -11 8l-74 155h-409l-72 -151c-5 -9 -7 -12 -17 -12h-35c-12 0 -14 2 -8 14c36 75 266 549 329 674c2 4 3 7 8 7s6 -3 8 -7c63 -127 290 -591 330 -676zM518 211c0 0 -97 206 -160 337c-8 17 -20 43 -22 43s-15 -27 -22 -42
c-62 -133 -161 -338 -161 -338h365zM526 821c-2 -10 -45 -90 -116 -90c-37 0 -68 30 -80 38c-13 8 -33 27 -65 27c-30 0 -47 -17 -59 -27c-7 -6 -22 -20 -27 -22c-8 -3 -7 -3 -7 7c0 21 46 92 116 92c32 0 65 -28 74 -35c14 -8 38 -29 64 -29c31 0 49 14 63 26s24 22 29 24
c11 3 11 -1 8 -11z" />
    <glyph glyph-name="Otilde" unicode="&#xd5;" horiz-adv-x="790" 
d="M750 337c0 -196 -153 -354 -355 -354s-355 158 -355 354s153 355 355 355s355 -159 355 -355zM692 337c0 167 -129 305 -297 305s-297 -138 -297 -305s130 -304 297 -304s297 137 297 304zM579 822c-2 -10 -45 -90 -116 -90c-37 0 -68 30 -80 38c-13 8 -33 27 -65 27
c-30 0 -47 -17 -59 -27c-7 -6 -22 -20 -27 -22c-8 -3 -7 -3 -7 7c0 21 46 92 116 92c32 0 65 -28 74 -35c14 -8 38 -29 64 -29c31 0 49 14 63 26s24 22 29 24c11 3 11 -1 8 -11z" />
    <glyph glyph-name="divide" unicode="&#xf7;" 
d="M793 300c0 -205 -168 -373 -373 -373s-373 168 -373 373s168 373 373 373s373 -168 373 -373zM693 491l-48 -29l-9 78l-65 -109l-127 53l23 54l40 40l-103 33l-106 -73l82 -13l2 -49l-107 -51l-100 97l9 -104l-48 33l73 -189l193 38l-127 -224l21 -51l48 24l67 220
l-26 -218l46 -36l36 41l-25 215l63 -209l57 -9l16 43l-129 206l193 -22zM478 573l-32 -35l-35 -68l-13 48l12 17l-68 11l26 13l17 -5l-1 19l28 19zM658 436l-30 -128l-35 38l-38 -26l-28 30l-31 -20l-45 40l-35 -47l-52 44l-22 -53l-37 28l-12 -35l-38 29l-34 -39l-38 91
l33 -14l11 58l38 -48l128 53l21 -52l16 62l148 -56l47 59l8 -40zM559 94l-32 -18l-30 100zM448 53l-40 1l18 142zM353 160l-28 -107l-29 17z" />
    <glyph glyph-name="lozenge" unicode="&#x25ca;" 
d="M793 300c0 -205 -168 -373 -373 -373s-373 168 -373 373s168 373 373 373s373 -168 373 -373zM693 491l-48 -29l-9 78l-65 -109l-127 53l23 54l40 40l-103 33l-106 -73l82 -13l2 -49l-107 -51l-100 97l9 -104l-48 33l73 -189l193 38l-127 -224l21 -51l48 24l67 220
l-26 -218l46 -36l36 41l-25 215l63 -209l57 -9l16 43l-129 206l193 -22zM478 573l-32 -35l-35 -68l-13 48l12 17l-68 11l26 13l17 -5l-1 19l28 19zM658 436l-30 -128l-35 38l-38 -26l-28 30l-31 -20l-45 40l-35 -47l-52 44l-22 -53l-37 28l-12 -35l-38 29l-34 -39l-38 91
l33 -14l11 58l38 -48l128 53l21 -52l16 62l148 -56l47 59l8 -40zM559 94l-32 -18l-30 100zM448 53l-40 1l18 142zM353 160l-28 -107l-29 17z" />
    <glyph glyph-name="ydieresis" unicode="&#xff;" horiz-adv-x="438" 
d="M435 495c-115 -306 -169 -441 -253 -654c-3 -7 -5 -7 -8 -7h-38c-8 0 -9 2 -6 10c42 101 81 198 86 209c-8 16 -123 252 -214 443c-4 8 -2 9 7 9h42c5 0 6 -2 9 -8c62 -133 159 -343 182 -385c13 40 80 225 139 385c2 7 4 8 11 8h39c5 0 6 -3 4 -10zM366 581
c0 -8 -1 -10 -9 -10h-64c-6 0 -7 4 -7 9v55c0 5 2 8 8 8h62s10 -3 10 -11v-51zM161 581c0 -8 -2 -10 -9 -10h-63c-7 0 -8 4 -8 9v55c0 5 3 8 9 8h60c10 0 11 -3 11 -11v-51z" />
    <glyph glyph-name="Ydieresis" unicode="&#x178;" horiz-adv-x="569" 
d="M433 737c0 -8 -1 -10 -9 -10h-64c-6 0 -7 4 -7 9v55c0 5 2 8 8 8h62s10 -3 10 -11v-51zM208 737c0 -8 -2 -10 -9 -10h-63c-7 0 -8 4 -8 9v55c0 5 3 8 9 8h60c10 0 11 -3 11 -11v-51zM566 666c-60 -98 -254 -410 -254 -410v-243c0 -12 -1 -13 -11 -13h-37c-6 0 -8 1 -8 11
v245s-201 325 -255 412c-4 7 -2 10 11 10h36c8 0 9 -1 14 -9c43 -67 222 -358 222 -358s179 288 222 355c7 11 9 12 13 12h40c11 0 12 -3 7 -12z" />
    <glyph glyph-name="Acircumflex" unicode="&#xc2;" horiz-adv-x="671" 
d="M674 12c4 -8 3 -12 -6 -12h-43c-6 0 -7 1 -11 8l-74 155h-409l-72 -151c-5 -9 -7 -12 -17 -12h-35c-12 0 -14 2 -8 14c36 75 266 549 329 674c2 4 3 7 8 7s6 -3 8 -7c63 -127 290 -591 330 -676zM518 211c0 0 -97 206 -160 337c-8 17 -20 43 -22 43s-15 -27 -22 -42
c-62 -133 -161 -338 -161 -338h365zM497 711c-1 -4 -4 -4 -10 -4h-19c-2 0 -4 1 -8 3c-29 17 -127 105 -127 105s-95 -92 -124 -106c-3 -1 -5 -2 -7 -2h-24c-4 0 -6 0 -6 4s2 4 5 7c59 60 91 92 148 151c2 2 4 6 8 6c5 0 6 -3 10 -7c57 -57 128 -128 147 -148
c4 -4 8 -5 7 -9z" />
    <glyph glyph-name="Ecircumflex" unicode="&#xca;" horiz-adv-x="572" 
d="M525 12c0 -12 -1 -12 -11 -12h-437c-8 0 -9 2 -9 14v654c0 9 -1 10 5 10h438c8 0 9 -1 9 -11v-25c0 -12 -2 -14 -9 -14h-387v-258h383c5 0 6 -2 6 -14v-20c0 -14 -1 -16 -6 -16h-383v-270h390c11 0 11 0 11 -13v-25zM459 718c-1 -4 -4 -4 -10 -4h-19c-2 0 -4 1 -8 3
c-29 17 -127 105 -127 105s-95 -92 -124 -106c-3 -1 -5 -2 -7 -2h-24c-4 0 -6 0 -6 4s2 4 5 7c59 60 91 92 148 151c2 2 4 6 8 6c5 0 6 -3 10 -7c57 -57 128 -128 147 -148c4 -4 8 -5 7 -9z" />
    <glyph glyph-name="Aacute" unicode="&#xc1;" horiz-adv-x="671" 
d="M674 12c4 -8 3 -12 -6 -12h-43c-6 0 -7 1 -11 8l-74 155h-409l-72 -151c-5 -9 -7 -12 -17 -12h-35c-12 0 -14 2 -8 14c36 75 266 549 329 674c2 4 3 7 8 7s6 -3 8 -7c63 -127 290 -591 330 -676zM518 211c0 0 -97 206 -160 337c-8 17 -20 43 -22 43s-15 -27 -22 -42
c-62 -133 -161 -338 -161 -338h365zM407 845c-1 -2 -4 -5 -7 -8c-21 -22 -92 -86 -132 -118c-6 -4 -14 -5 -20 -2c-4 2 -5 5 -2 9s98 130 117 155c3 4 8 4 13 0c6 -5 24 -20 31 -27c3 -3 2 -6 0 -9z" />
    <glyph glyph-name="Edieresis" unicode="&#xcb;" horiz-adv-x="572" 
d="M455 745c0 -8 -1 -10 -9 -10h-64c-6 0 -7 4 -7 9v55c0 5 2 8 8 8h62s10 -3 10 -11v-51zM230 745c0 -8 -2 -10 -9 -10h-63c-7 0 -8 4 -8 9v55c0 5 3 8 9 8h60c10 0 11 -3 11 -11v-51zM525 12c0 -12 -1 -12 -11 -12h-437c-8 0 -9 2 -9 14v654c0 9 -1 10 5 10h438
c8 0 9 -1 9 -11v-25c0 -12 -2 -14 -9 -14h-387v-258h383c5 0 6 -2 6 -14v-20c0 -14 -1 -16 -6 -16h-383v-270h390c11 0 11 0 11 -13v-25z" />
    <glyph glyph-name="Egrave" unicode="&#xc8;" horiz-adv-x="572" 
d="M525 12c0 -12 -1 -12 -11 -12h-437c-8 0 -9 2 -9 14v654c0 9 -1 10 5 10h438c8 0 9 -1 9 -11v-25c0 -12 -2 -14 -9 -14h-387v-258h383c5 0 6 -2 6 -14v-20c0 -14 -1 -16 -6 -16h-383v-270h390c11 0 11 0 11 -13v-25zM371 722c3 -4 2 -7 -2 -9c-6 -3 -35 -3 -40 2
c-35 35 -91 96 -112 118c-4 4 -8 6 -8 10s1 6 4 9c7 7 22 20 28 25s9 6 13 0c19 -25 114 -151 117 -155z" />
    <glyph glyph-name="Iacute" unicode="&#xcd;" horiz-adv-x="238" 
d="M147 9c0 -8 -1 -9 -10 -9h-36c-8 0 -10 1 -10 9v657c0 11 2 12 11 12h37c6 0 8 -2 8 -12v-657zM189 821c-1 -2 -4 -5 -7 -8c-21 -22 -92 -86 -132 -118c-6 -4 -14 -5 -20 -2c-4 2 -5 5 -2 9s98 130 117 155c3 4 8 4 13 0c6 -5 24 -20 31 -27c3 -3 2 -6 0 -9z" />
    <glyph glyph-name="Icircumflex" unicode="&#xce;" horiz-adv-x="238" 
d="M147 9c0 -8 -1 -9 -10 -9h-36c-8 0 -10 1 -10 9v657c0 11 2 12 11 12h37c6 0 8 -2 8 -12v-657zM275 716c-1 -4 -4 -4 -10 -4h-19c-2 0 -4 1 -8 3c-29 17 -127 105 -127 105s-95 -92 -124 -106c-3 -1 -5 -2 -7 -2h-24c-4 0 -6 0 -6 4s2 4 5 7c59 60 91 92 148 151
c2 2 4 6 8 6c5 0 6 -3 10 -7c57 -57 128 -128 147 -148c4 -4 8 -5 7 -9z" />
    <glyph glyph-name="Idieresis" unicode="&#xcf;" horiz-adv-x="238" 
d="M254 745c0 -8 -1 -10 -9 -10h-64c-6 0 -7 4 -7 9v55c0 5 2 8 8 8h62s10 -3 10 -11v-51zM29 745c0 -8 -2 -10 -9 -10h-63c-7 0 -8 4 -8 9v55c0 5 3 8 9 8h60c10 0 11 -3 11 -11v-51zM147 9c0 -8 -1 -9 -10 -9h-36c-8 0 -10 1 -10 9v657c0 11 2 12 11 12h37c6 0 8 -2 8 -12
v-657z" />
    <glyph glyph-name="Igrave" unicode="&#xcc;" horiz-adv-x="238" 
d="M147 9c0 -8 -1 -9 -10 -9h-36c-8 0 -10 1 -10 9v657c0 11 2 12 11 12h37c6 0 8 -2 8 -12v-657zM187 724c3 -4 2 -7 -2 -9c-6 -3 -35 -3 -40 2c-35 35 -91 96 -112 118c-4 4 -8 6 -8 10s1 6 4 9c7 7 22 20 28 25s9 6 13 0c19 -25 114 -151 117 -155z" />
    <glyph glyph-name="Oacute" unicode="&#xd3;" horiz-adv-x="790" 
d="M750 337c0 -196 -153 -354 -355 -354s-355 158 -355 354s153 355 355 355s355 -159 355 -355zM692 337c0 167 -129 305 -297 305s-297 -138 -297 -305s130 -304 297 -304s297 137 297 304zM471 847c-1 -2 -4 -5 -7 -8c-21 -22 -92 -86 -132 -118c-6 -4 -14 -5 -20 -2
c-4 2 -5 5 -2 9s98 130 117 155c3 4 8 4 13 0c6 -5 24 -20 31 -27c3 -3 2 -6 0 -9z" />
    <glyph glyph-name="Ocircumflex" unicode="&#xd4;" horiz-adv-x="790" 
d="M750 337c0 -196 -153 -354 -355 -354s-355 158 -355 354s153 355 355 355s355 -159 355 -355zM692 337c0 167 -129 305 -297 305s-297 -138 -297 -305s130 -304 297 -304s297 137 297 304zM559 712c-1 -4 -4 -4 -10 -4h-19c-2 0 -4 1 -8 3c-29 17 -127 105 -127 105
s-95 -92 -124 -106c-3 -1 -5 -2 -7 -2h-24c-4 0 -6 0 -6 4s2 4 5 7c59 60 91 92 148 151c2 2 4 6 8 6c5 0 6 -3 10 -7c57 -57 128 -128 147 -148c4 -4 8 -5 7 -9z" />
    <glyph glyph-name="apple" unicode="&#xf8ff;" 
d="M793 300c0 -205 -168 -373 -373 -373s-373 168 -373 373s168 373 373 373s373 -168 373 -373zM693 491l-48 -29l-9 78l-65 -109l-127 53l23 54l40 40l-103 33l-106 -73l82 -13l2 -49l-107 -51l-100 97l9 -104l-48 33l73 -189l193 38l-127 -224l21 -51l48 24l67 220
l-26 -218l46 -36l36 41l-25 215l63 -209l57 -9l16 43l-129 206l193 -22zM478 573l-32 -35l-35 -68l-13 48l12 17l-68 11l26 13l17 -5l-1 19l28 19zM658 436l-30 -128l-35 38l-38 -26l-28 30l-31 -20l-45 40l-35 -47l-52 44l-22 -53l-37 28l-12 -35l-38 29l-34 -39l-38 91
l33 -14l11 58l38 -48l128 53l21 -52l16 62l148 -56l47 59l8 -40zM559 94l-32 -18l-30 100zM448 53l-40 1l18 142zM353 160l-28 -107l-29 17z" />
    <glyph glyph-name="Ograve" unicode="&#xd2;" horiz-adv-x="790" 
d="M750 337c0 -196 -153 -354 -355 -354s-355 158 -355 354s153 355 355 355s355 -159 355 -355zM692 337c0 167 -129 305 -297 305s-297 -138 -297 -305s130 -304 297 -304s297 137 297 304zM473 724c3 -4 2 -7 -2 -9c-6 -3 -35 -3 -40 2c-35 35 -91 96 -112 118
c-4 4 -8 6 -8 10s1 6 4 9c7 7 22 20 28 25s9 6 13 0c19 -25 114 -151 117 -155z" />
    <glyph glyph-name="Uacute" unicode="&#xda;" horiz-adv-x="644" 
d="M585 258c0 -175 -102 -275 -263 -275s-263 100 -263 276v412c0 7 1 7 7 7h42c7 0 7 0 7 -8v-411c0 -160 80 -226 207 -226s207 66 207 226v412c0 6 0 7 4 7h45c7 0 7 0 7 -7v-413zM407 847c-1 -2 -4 -5 -7 -8c-21 -22 -92 -86 -132 -118c-6 -4 -14 -5 -20 -2
c-4 2 -5 5 -2 9s98 130 117 155c3 4 8 4 13 0c6 -5 24 -20 31 -27c3 -3 2 -6 0 -9z" />
    <glyph glyph-name="Ucircumflex" unicode="&#xdb;" horiz-adv-x="644" 
d="M585 258c0 -175 -102 -275 -263 -275s-263 100 -263 276v412c0 7 1 7 7 7h42c7 0 7 0 7 -8v-411c0 -160 80 -226 207 -226s207 66 207 226v412c0 6 0 7 4 7h45c7 0 7 0 7 -7v-413zM485 716c-1 -4 -4 -4 -10 -4h-19c-2 0 -4 1 -8 3c-29 17 -127 105 -127 105
s-95 -92 -124 -106c-3 -1 -5 -2 -7 -2h-24c-4 0 -6 0 -6 4s2 4 5 7c59 60 91 92 148 151c2 2 4 6 8 6c5 0 6 -3 10 -7c57 -57 128 -128 147 -148c4 -4 8 -5 7 -9z" />
    <glyph glyph-name="Ugrave" unicode="&#xd9;" horiz-adv-x="644" 
d="M585 258c0 -175 -102 -275 -263 -275s-263 100 -263 276v412c0 7 1 7 7 7h42c7 0 7 0 7 -8v-411c0 -160 80 -226 207 -226s207 66 207 226v412c0 6 0 7 4 7h45c7 0 7 0 7 -7v-413zM407 726c3 -4 2 -7 -2 -9c-6 -3 -35 -3 -40 2c-35 35 -91 96 -112 118c-4 4 -8 6 -8 10
s1 6 4 9c7 7 22 20 28 25s9 6 13 0c19 -25 114 -151 117 -155z" />
    </font>
</defs>
</svg>
